<?xml version="1.0" encoding="UTF-8"?> <svg xmlns="http://www.w3.org/2000/svg" width="53" height="53" viewBox="0 0 53 53" fill="none"> <rect x="0.984375" y="0.459473" width="52" height="52" rx="26" fill="#F9F9F9"></rect> <g clip-path="url(#clip0_1533_38)"> <path d="M32.6286 30.0002L30.8144 28.186C30.1665 27.538 29.065 27.7972 28.8059 28.6395C28.6115 29.2227 27.9636 29.5466 27.3804 29.417C26.0846 29.0931 24.3352 27.4085 24.0112 26.0478C23.8168 25.4647 24.2056 24.8167 24.7887 24.6224C25.631 24.3632 25.8902 23.2617 25.2423 22.6138L23.4281 20.7996C22.9097 20.3461 22.1322 20.3461 21.6787 20.7996L20.4476 22.0307C19.2166 23.3265 20.5772 26.7605 23.6225 29.8058C26.6677 32.851 30.1017 34.2765 31.3976 32.9806L32.6286 31.7496C33.0822 31.2312 33.0822 30.4537 32.6286 30.0002Z" fill="black"></path> </g> <defs> <clipPath id="clip0_1533_38"> <rect width="13" height="13" fill="white" transform="translate(19.9844 20.4595)"></rect> </clipPath> </defs> </svg> 