<?xml version="1.0" encoding="UTF-8"?> <!-- Generator: Adobe Illustrator 22.1.0, SVG Export Plug-In . SVG Version: 6.00 Build 0) --> <svg xmlns="http://www.w3.org/2000/svg" xmlns:xlink="http://www.w3.org/1999/xlink" id="Слой_1" x="0px" y="0px" viewBox="0 0 10 10" style="enable-background:new 0 0 10 10;" xml:space="preserve"> <style type="text/css"> .st0{fill:#FFCF52;} </style> <path class="st0" d="M8.2,1.5L1,8.7L1.3,9l7.2-7.2L8.2,1.5z M9,8.9L9,1L8.9,1V1H1.1v0.4h7.5l0,7.5L9,8.9z"></path> <path class="st0" d="M1,8.7L0.6,9.1L0.1,8.7l0.4-0.4L1,8.7z M8.2,1.5L7.8,1.1l0.4-0.4l0.4,0.4L8.2,1.5z M1.3,9l0.4,0.4L1.3,9.8 L0.9,9.4L1.3,9z M8.5,1.8L9,1.4l0.4,0.4L9,2.2L8.5,1.8z M9,1l0-0.6l0.6,0l0,0.6L9,1z M9,8.9l0.6,0l0,0.6L9,9.5L9,8.9z M8.9,1l0,0.6 l-0.6,0V1H8.9z M8.9,1V0.4h0.6V1H8.9z M1.1,1H0.5V0.4h0.6V1z M1.1,1.4V2H0.5V1.4H1.1z M8.6,1.4V0.8h0.6l0,0.6L8.6,1.4z M8.6,8.9 l0,0.6l-0.6,0l0-0.6L8.6,8.9z M0.6,8.2l7.2-7.2l0.8,0.9L1.4,9.1L0.6,8.2z M0.9,9.4L0.6,9.1l0.9-0.8l0.3,0.3L0.9,9.4z M9,2.2L1.7,9.4 L0.9,8.6l7.2-7.2L9,2.2z M8.7,1.1L9,1.4L8.1,2.2L7.8,1.9L8.7,1.1z M9.6,1l0,7.9l-1.2,0l0-7.9L9.6,1z M8.9,0.4l0.1,0l0,1.2l-0.1,0 L8.9,0.4z M8.3,1L8.3,1L9.5,1V1H8.3z M8.9,1.6H1.1V0.4h7.8V1.6z M1.7,1v0.4H0.5V1H1.7z M1.1,0.8h7.5V2H1.1V0.8z M8,8.9l0-7.5l1.2,0 l0,7.5L8,8.9z M9,9.5l-0.4,0l0-1.2l0.4,0L9,9.5z"></path> </svg> 