<?xml version="1.0" encoding="UTF-8"?> <!-- Generator: Adobe Illustrator 22.1.0, SVG Export Plug-In . SVG Version: 6.00 Build 0) --> <svg xmlns="http://www.w3.org/2000/svg" xmlns:xlink="http://www.w3.org/1999/xlink" id="Слой_1" x="0px" y="0px" viewBox="0 0 48 48" style="enable-background:new 0 0 48 48;" xml:space="preserve"> <path d="M43.6,44.7L1,2.4L2.4,1l42.3,42L44.6,1.3l2,0l0.2,45.4l-0.5,0v0.1h-45v-2H43.6z"></path> <path d="M1,2.4L0.8,2.2L0.5,2.4l0.2,0.2L1,2.4z M43.6,44.7v0.3h0.8l-0.6-0.6L43.6,44.7z M2.4,1l0.2-0.2L2.4,0.5L2.2,0.8L2.4,1z M44.7,43l-0.2,0.2l0.6,0.6l0-0.8L44.7,43z M44.6,1.3l0-0.3l-0.3,0l0,0.3L44.6,1.3z M46.6,1.3l0.3,0l0-0.3l-0.3,0L46.6,1.3z M46.8,46.6l0,0.3l0.3,0l0-0.3L46.8,46.6z M46.2,46.6l0-0.3l-0.3,0v0.3H46.2z M46.2,46.7v0.3h0.3v-0.3H46.2z M1.2,46.7H0.9v0.3h0.3 V46.7z M1.2,44.7v-0.3H0.9v0.3H1.2z M0.8,2.7L43.4,45l0.5-0.5L1.2,2.2L0.8,2.7z M2.2,0.8L0.8,2.2l0.5,0.5l1.4-1.4L2.2,0.8z M45,42.8 L2.6,0.8L2.2,1.2l42.3,42L45,42.8z M44.2,1.3L44.4,43l0.7,0L44.9,1.3L44.2,1.3z M46.6,0.9l-2,0l0,0.7l2,0L46.6,0.9z M47.1,46.6 L46.9,1.3l-0.7,0l0.2,45.4L47.1,46.6z M46.2,47l0.5,0l0-0.7l-0.5,0L46.2,47z M45.9,46.6L45.9,46.6l0.7,0.1v-0.1H45.9z M46.2,46.4 h-45v0.7h45V46.4z M1.6,46.7v-2H0.9v2H1.6z M1.2,45.1h42.4v-0.7H1.2V45.1z"></path> </svg> 