<?xml version="1.0" encoding="UTF-8"?> <!-- Generator: Adobe Illustrator 22.1.0, SVG Export Plug-In . SVG Version: 6.00 Build 0) --> <svg xmlns="http://www.w3.org/2000/svg" xmlns:xlink="http://www.w3.org/1999/xlink" id="Слой_1" x="0px" y="0px" viewBox="0 0 3764.7 33.3" style="enable-background:new 0 0 3764.7 33.3;" xml:space="preserve"> <style type="text/css"> .st0{fill:#FFCF52;} .st1{opacity:0.16;} </style> <rect class="st0" width="3764.7" height="33.3"></rect> <g> <path d="M519.4,22.3v-9.2h-3v-2.2h8.4v2.2h-3.1v9.2H519.4z"></path> <path d="M523.5,22.3l4.9-11.4h2.1l4.9,11.4H533l-1.1-2.6H527l-1.1,2.6H523.5z M529.4,14l-1.6,3.7h3.1L529.4,14z"></path> <path d="M536.1,22.3V10.9h4.4c1,0,1.9,0.3,2.5,1c0.6,0.6,1,1.4,1,2.4c0,1.5-0.8,2.5-2.3,3l4.1,5h-2.8l-3.9-4.8h-0.6v4.8H536.1z M538.5,15.5h1.8c0.4,0,0.8-0.1,1.1-0.3c0.3-0.2,0.4-0.5,0.4-0.9s-0.1-0.7-0.4-0.9c-0.3-0.2-0.6-0.3-1.1-0.3h-1.8V15.5z"></path> <path d="M551.3,22.5c-1.8,0-3.2-0.6-4.4-1.7c-1.2-1.1-1.8-2.5-1.8-4.2c0-1.6,0.6-3,1.7-4.2c1.1-1.1,2.6-1.7,4.3-1.7 c1.9,0,3.4,0.6,4.6,1.9l-1.6,1.6c-0.8-0.8-1.8-1.2-3-1.2c-1.1,0-1.9,0.4-2.6,1.1s-1,1.6-1,2.6c0,1,0.3,1.9,1,2.6 c0.7,0.7,1.6,1,2.8,1c1.1,0,1.9-0.2,2.4-0.6v-2h-2.4v-2.2h4.7v5.3c-0.5,0.5-1.2,0.9-2,1.2S552.3,22.5,551.3,22.5z"></path> <path d="M557.7,22.3V10.9h7.1v2.2H560v2.3h3.8v2.2H560v2.4h4.8v2.2H557.7z"></path> <path d="M568.5,22.3v-9.2h-3v-2.2h8.4v2.2h-3.1v9.2H568.5z"></path> <path d="M584,20.8c-1.1,1.1-2.5,1.7-4.2,1.7s-3-0.6-4.2-1.7c-1.1-1.1-1.7-2.5-1.7-4.2s0.6-3,1.7-4.2c1.1-1.1,2.5-1.7,4.2-1.7 s3,0.6,4.2,1.7c1.1,1.1,1.7,2.5,1.7,4.2S585.1,19.6,584,20.8z M577.3,19.2c0.7,0.7,1.5,1.1,2.5,1.1s1.8-0.4,2.5-1.1 c0.7-0.7,1-1.6,1-2.6c0-1-0.3-1.9-1-2.6c-0.7-0.7-1.5-1.1-2.5-1.1s-1.8,0.4-2.5,1.1c-0.7,0.7-1,1.6-1,2.6 C576.3,17.6,576.6,18.5,577.3,19.2z"></path> <path d="M587.1,22.3V10.9h4.4c1,0,1.9,0.3,2.5,1c0.6,0.6,1,1.4,1,2.4c0,1.5-0.8,2.5-2.3,3l4.1,5h-2.8l-3.9-4.8h-0.6v4.8H587.1z M589.4,15.5h1.8c0.4,0,0.8-0.1,1.1-0.3c0.3-0.2,0.4-0.5,0.4-0.9s-0.1-0.7-0.4-0.9c-0.3-0.2-0.6-0.3-1.1-0.3h-1.8V15.5z"></path> <path d="M597.2,22.3V10.9h2.3v11.4H597.2z"></path> <path d="M606.2,22.5c-1.4,0-2.5-0.4-3.3-1.3c-0.9-0.9-1.3-2-1.3-3.4v-6.9h2.3v6.9c0,0.7,0.2,1.3,0.6,1.8c0.4,0.4,1,0.6,1.7,0.6 c0.7,0,1.3-0.2,1.7-0.6c0.4-0.4,0.6-1,0.6-1.8v-6.9h2.3v6.9c0,1.4-0.4,2.5-1.3,3.4C608.6,22.1,607.5,22.5,606.2,22.5z"></path> <path d="M612.8,22.3V10.9h2.1l3.7,6l3.7-6h2.1v11.4H622v-6.9l-2.7,4.4h-1.5l-2.7-4.4v6.9H612.8z"></path> </g> <g class="st1"> <path d="M643.6,23.2l6.2-13.1h2l-6.2,13.1H643.6z"></path> <path d="M649.6,23.2l6.2-13.1h2l-6.2,13.1H649.6z"></path> </g> <g> <path d="M679.4,22.3v-9.2h-3v-2.2h8.4v2.2h-3.1v9.2H679.4z"></path> <path d="M683.5,22.3l4.9-11.4h2.1l4.9,11.4H693l-1.1-2.6H687l-1.1,2.6H683.5z M689.4,14l-1.6,3.7h3.1L689.4,14z"></path> <path d="M696.1,22.3V10.9h4.4c1,0,1.9,0.3,2.5,1c0.6,0.6,1,1.4,1,2.4c0,1.5-0.8,2.5-2.3,3l4.1,5h-2.8l-3.9-4.8h-0.6v4.8H696.1z M698.5,15.5h1.8c0.4,0,0.8-0.1,1.1-0.3c0.3-0.2,0.4-0.5,0.4-0.9s-0.1-0.7-0.4-0.9c-0.3-0.2-0.6-0.3-1.1-0.3h-1.8V15.5z"></path> <path d="M711.3,22.5c-1.8,0-3.2-0.6-4.4-1.7c-1.2-1.1-1.8-2.5-1.8-4.2c0-1.6,0.6-3,1.7-4.2c1.1-1.1,2.6-1.7,4.3-1.7 c1.9,0,3.4,0.6,4.6,1.9l-1.6,1.6c-0.8-0.8-1.8-1.2-3-1.2c-1.1,0-1.9,0.4-2.6,1.1s-1,1.6-1,2.6c0,1,0.3,1.9,1,2.6 c0.7,0.7,1.6,1,2.8,1c1.1,0,1.9-0.2,2.4-0.6v-2h-2.4v-2.2h4.7v5.3c-0.5,0.5-1.2,0.9-2,1.2S712.3,22.5,711.3,22.5z"></path> <path d="M717.7,22.3V10.9h7.1v2.2H720v2.3h3.8v2.2H720v2.4h4.8v2.2H717.7z"></path> <path d="M728.5,22.3v-9.2h-3v-2.2h8.4v2.2h-3.1v9.2H728.5z"></path> <path d="M744,20.8c-1.1,1.1-2.5,1.7-4.2,1.7s-3-0.6-4.2-1.7c-1.1-1.1-1.7-2.5-1.7-4.2s0.6-3,1.7-4.2c1.1-1.1,2.5-1.7,4.2-1.7 s3,0.6,4.2,1.7c1.1,1.1,1.7,2.5,1.7,4.2S745.1,19.6,744,20.8z M737.3,19.2c0.7,0.7,1.5,1.1,2.5,1.1s1.8-0.4,2.5-1.1 c0.7-0.7,1-1.6,1-2.6c0-1-0.3-1.9-1-2.6c-0.7-0.7-1.5-1.1-2.5-1.1s-1.8,0.4-2.5,1.1c-0.7,0.7-1,1.6-1,2.6 C736.3,17.6,736.6,18.5,737.3,19.2z"></path> <path d="M747.1,22.3V10.9h4.4c1,0,1.9,0.3,2.5,1c0.6,0.6,1,1.4,1,2.4c0,1.5-0.8,2.5-2.3,3l4.1,5h-2.8l-3.9-4.8h-0.6v4.8H747.1z M749.4,15.5h1.8c0.4,0,0.8-0.1,1.1-0.3c0.3-0.2,0.4-0.5,0.4-0.9s-0.1-0.7-0.4-0.9c-0.3-0.2-0.6-0.3-1.1-0.3h-1.8V15.5z"></path> <path d="M757.2,22.3V10.9h2.3v11.4H757.2z"></path> <path d="M766.2,22.5c-1.4,0-2.5-0.4-3.3-1.3c-0.9-0.9-1.3-2-1.3-3.4v-6.9h2.3v6.9c0,0.7,0.2,1.3,0.6,1.8c0.4,0.4,1,0.6,1.7,0.6 c0.7,0,1.3-0.2,1.7-0.6c0.4-0.4,0.6-1,0.6-1.8v-6.9h2.3v6.9c0,1.4-0.4,2.5-1.3,3.4C768.6,22.1,767.5,22.5,766.2,22.5z"></path> <path d="M772.8,22.3V10.9h2.1l3.7,6l3.7-6h2.1v11.4H782v-6.9l-2.7,4.4h-1.5l-2.7-4.4v6.9H772.8z"></path> </g> <g class="st1"> <path d="M803.6,23.2l6.2-13.1h2l-6.2,13.1H803.6z"></path> <path d="M809.6,23.2l6.2-13.1h2l-6.2,13.1H809.6z"></path> </g> <g> <path d="M838.9,22.3v-9.2h-3v-2.2h8.4v2.2h-3.1v9.2H838.9z"></path> <path d="M843,22.3l4.9-11.4h2.1l4.9,11.4h-2.4l-1.1-2.6h-4.8l-1.1,2.6H843z M848.9,14l-1.6,3.7h3.1L848.9,14z"></path> <path d="M855.6,22.3V10.9h4.4c1,0,1.9,0.3,2.5,1c0.6,0.6,1,1.4,1,2.4c0,1.5-0.8,2.5-2.3,3l4.1,5h-2.8l-3.9-4.8H858v4.8H855.6z M858,15.5h1.8c0.4,0,0.8-0.1,1.1-0.3c0.3-0.2,0.4-0.5,0.4-0.9s-0.1-0.7-0.4-0.9c-0.3-0.2-0.6-0.3-1.1-0.3H858V15.5z"></path> <path d="M870.8,22.5c-1.8,0-3.2-0.6-4.4-1.7c-1.2-1.1-1.8-2.5-1.8-4.2c0-1.6,0.6-3,1.7-4.2c1.1-1.1,2.6-1.7,4.3-1.7 c1.9,0,3.4,0.6,4.6,1.9l-1.6,1.6c-0.8-0.8-1.8-1.2-3-1.2c-1.1,0-1.9,0.4-2.6,1.1s-1,1.6-1,2.6c0,1,0.3,1.9,1,2.6 c0.7,0.7,1.6,1,2.8,1c1.1,0,1.9-0.2,2.4-0.6v-2h-2.4v-2.2h4.7v5.3c-0.5,0.5-1.2,0.9-2,1.2S871.8,22.5,870.8,22.5z"></path> <path d="M877.2,22.3V10.9h7.1v2.2h-4.8v2.3h3.8v2.2h-3.8v2.4h4.8v2.2H877.2z"></path> <path d="M888,22.3v-9.2h-3v-2.2h8.4v2.2h-3.1v9.2H888z"></path> <path d="M903.5,20.8c-1.1,1.1-2.5,1.7-4.2,1.7s-3-0.6-4.2-1.7c-1.1-1.1-1.7-2.5-1.7-4.2s0.6-3,1.7-4.2c1.1-1.1,2.5-1.7,4.2-1.7 s3,0.6,4.2,1.7c1.1,1.1,1.7,2.5,1.7,4.2S904.6,19.6,903.5,20.8z M896.8,19.2c0.7,0.7,1.5,1.1,2.5,1.1s1.8-0.4,2.5-1.1 c0.7-0.7,1-1.6,1-2.6c0-1-0.3-1.9-1-2.6c-0.7-0.7-1.5-1.1-2.5-1.1s-1.8,0.4-2.5,1.1c-0.7,0.7-1,1.6-1,2.6 C895.8,17.6,896.1,18.5,896.8,19.2z"></path> <path d="M906.6,22.3V10.9h4.4c1,0,1.9,0.3,2.5,1c0.6,0.6,1,1.4,1,2.4c0,1.5-0.8,2.5-2.3,3l4.1,5h-2.8l-3.9-4.8h-0.6v4.8H906.6z M908.9,15.5h1.8c0.4,0,0.8-0.1,1.1-0.3c0.3-0.2,0.4-0.5,0.4-0.9s-0.1-0.7-0.4-0.9c-0.3-0.2-0.6-0.3-1.1-0.3h-1.8V15.5z"></path> <path d="M916.7,22.3V10.9h2.3v11.4H916.7z"></path> <path d="M925.7,22.5c-1.4,0-2.5-0.4-3.3-1.3s-1.3-2-1.3-3.4v-6.9h2.3v6.9c0,0.7,0.2,1.3,0.6,1.8c0.4,0.4,1,0.6,1.7,0.6 c0.7,0,1.3-0.2,1.7-0.6c0.4-0.4,0.6-1,0.6-1.8v-6.9h2.3v6.9c0,1.4-0.4,2.5-1.3,3.4C928.1,22.1,927,22.5,925.7,22.5z"></path> <path d="M932.3,22.3V10.9h2.1l3.7,6l3.7-6h2.1v11.4h-2.3v-6.9l-2.7,4.4h-1.5l-2.7-4.4v6.9H932.3z"></path> </g> <g class="st1"> <path d="M963.1,23.2l6.2-13.1h2l-6.2,13.1H963.1z"></path> <path d="M969.1,23.2l6.2-13.1h2l-6.2,13.1H969.1z"></path> </g> <g> <path d="M997.4,22.3v-9.2h-3v-2.2h8.4v2.2h-3.1v9.2H997.4z"></path> <path d="M1001.5,22.3l4.9-11.4h2.1l4.9,11.4h-2.4l-1.1-2.6h-4.8l-1.1,2.6H1001.5z M1007.5,14l-1.6,3.7h3.1L1007.5,14z"></path> <path d="M1014.2,22.3V10.9h4.4c1,0,1.9,0.3,2.5,1c0.6,0.6,1,1.4,1,2.4c0,1.5-0.8,2.5-2.3,3l4.1,5h-2.8l-3.9-4.8h-0.6v4.8H1014.2z M1016.5,15.5h1.8c0.4,0,0.8-0.1,1.1-0.3c0.3-0.2,0.4-0.5,0.4-0.9s-0.1-0.7-0.4-0.9c-0.3-0.2-0.6-0.3-1.1-0.3h-1.8V15.5z"></path> <path d="M1029.4,22.5c-1.8,0-3.2-0.6-4.4-1.7c-1.2-1.1-1.8-2.5-1.8-4.2c0-1.6,0.6-3,1.7-4.2c1.1-1.1,2.6-1.7,4.3-1.7 c1.9,0,3.4,0.6,4.6,1.9l-1.6,1.6c-0.8-0.8-1.8-1.2-3-1.2c-1.1,0-1.9,0.4-2.6,1.1s-1,1.6-1,2.6c0,1,0.3,1.9,1,2.6 c0.7,0.7,1.6,1,2.8,1c1.1,0,1.9-0.2,2.4-0.6v-2h-2.4v-2.2h4.7v5.3c-0.5,0.5-1.2,0.9-2,1.2S1030.3,22.5,1029.4,22.5z"></path> <path d="M1035.7,22.3V10.9h7.1v2.2h-4.8v2.3h3.8v2.2h-3.8v2.4h4.8v2.2H1035.7z"></path> <path d="M1046.5,22.3v-9.2h-3v-2.2h8.4v2.2h-3.1v9.2H1046.5z"></path> <path d="M1062,20.8c-1.1,1.1-2.5,1.7-4.2,1.7s-3-0.6-4.2-1.7c-1.1-1.1-1.7-2.5-1.7-4.2s0.6-3,1.7-4.2c1.1-1.1,2.5-1.7,4.2-1.7 s3,0.6,4.2,1.7c1.1,1.1,1.7,2.5,1.7,4.2S1063.2,19.6,1062,20.8z M1055.4,19.2c0.7,0.7,1.5,1.1,2.5,1.1s1.8-0.4,2.5-1.1 c0.7-0.7,1-1.6,1-2.6c0-1-0.3-1.9-1-2.6c-0.7-0.7-1.5-1.1-2.5-1.1s-1.8,0.4-2.5,1.1c-0.7,0.7-1,1.6-1,2.6 C1054.3,17.6,1054.7,18.5,1055.4,19.2z"></path> <path d="M1065.1,22.3V10.9h4.4c1,0,1.9,0.3,2.5,1c0.6,0.6,1,1.4,1,2.4c0,1.5-0.8,2.5-2.3,3l4.1,5h-2.8l-3.9-4.8h-0.6v4.8H1065.1z M1067.4,15.5h1.8c0.4,0,0.8-0.1,1.1-0.3c0.3-0.2,0.4-0.5,0.4-0.9s-0.1-0.7-0.4-0.9c-0.3-0.2-0.6-0.3-1.1-0.3h-1.8V15.5z"></path> <path d="M1075.3,22.3V10.9h2.3v11.4H1075.3z"></path> <path d="M1084.2,22.5c-1.4,0-2.5-0.4-3.3-1.3c-0.9-0.9-1.3-2-1.3-3.4v-6.9h2.3v6.9c0,0.7,0.2,1.3,0.6,1.8c0.4,0.4,1,0.6,1.7,0.6 c0.7,0,1.3-0.2,1.7-0.6c0.4-0.4,0.6-1,0.6-1.8v-6.9h2.3v6.9c0,1.4-0.4,2.5-1.3,3.4C1086.7,22.1,1085.5,22.5,1084.2,22.5z"></path> <path d="M1090.8,22.3V10.9h2.1l3.7,6l3.7-6h2.1v11.4h-2.3v-6.9l-2.7,4.4h-1.5l-2.7-4.4v6.9H1090.8z"></path> </g> <g class="st1"> <path d="M1121.6,23.2l6.2-13.1h2l-6.2,13.1H1121.6z"></path> <path d="M1127.7,23.2l6.2-13.1h2l-6.2,13.1H1127.7z"></path> </g> <g> <path d="M1157.4,22.3v-9.2h-3v-2.2h8.4v2.2h-3.1v9.2H1157.4z"></path> <path d="M1161.5,22.3l4.9-11.4h2.1l4.9,11.4h-2.4l-1.1-2.6h-4.8l-1.1,2.6H1161.5z M1167.5,14l-1.6,3.7h3.1L1167.5,14z"></path> <path d="M1174.2,22.3V10.9h4.4c1,0,1.9,0.3,2.5,1c0.6,0.6,1,1.4,1,2.4c0,1.5-0.8,2.5-2.3,3l4.1,5h-2.8l-3.9-4.8h-0.6v4.8H1174.2z M1176.5,15.5h1.8c0.4,0,0.8-0.1,1.1-0.3c0.3-0.2,0.4-0.5,0.4-0.9s-0.1-0.7-0.4-0.9c-0.3-0.2-0.6-0.3-1.1-0.3h-1.8V15.5z"></path> <path d="M1189.4,22.5c-1.8,0-3.2-0.6-4.4-1.7c-1.2-1.1-1.8-2.5-1.8-4.2c0-1.6,0.6-3,1.7-4.2c1.1-1.1,2.6-1.7,4.3-1.7 c1.9,0,3.4,0.6,4.6,1.9l-1.6,1.6c-0.8-0.8-1.8-1.2-3-1.2c-1.1,0-1.9,0.4-2.6,1.1s-1,1.6-1,2.6c0,1,0.3,1.9,1,2.6 c0.7,0.7,1.6,1,2.8,1c1.1,0,1.9-0.2,2.4-0.6v-2h-2.4v-2.2h4.7v5.3c-0.5,0.5-1.2,0.9-2,1.2S1190.3,22.5,1189.4,22.5z"></path> <path d="M1195.7,22.3V10.9h7.1v2.2h-4.8v2.3h3.8v2.2h-3.8v2.4h4.8v2.2H1195.7z"></path> <path d="M1206.5,22.3v-9.2h-3v-2.2h8.4v2.2h-3.1v9.2H1206.5z"></path> <path d="M1222,20.8c-1.1,1.1-2.5,1.7-4.2,1.7s-3-0.6-4.2-1.7c-1.1-1.1-1.7-2.5-1.7-4.2s0.6-3,1.7-4.2c1.1-1.1,2.5-1.7,4.2-1.7 s3,0.6,4.2,1.7c1.1,1.1,1.7,2.5,1.7,4.2S1223.2,19.6,1222,20.8z M1215.4,19.2c0.7,0.7,1.5,1.1,2.5,1.1s1.8-0.4,2.5-1.1 c0.7-0.7,1-1.6,1-2.6c0-1-0.3-1.9-1-2.6c-0.7-0.7-1.5-1.1-2.5-1.1s-1.8,0.4-2.5,1.1c-0.7,0.7-1,1.6-1,2.6 C1214.3,17.6,1214.7,18.5,1215.4,19.2z"></path> <path d="M1225.1,22.3V10.9h4.4c1,0,1.9,0.3,2.5,1c0.6,0.6,1,1.4,1,2.4c0,1.5-0.8,2.5-2.3,3l4.1,5h-2.8l-3.9-4.8h-0.6v4.8H1225.1z M1227.4,15.5h1.8c0.4,0,0.8-0.1,1.1-0.3c0.3-0.2,0.4-0.5,0.4-0.9s-0.1-0.7-0.4-0.9c-0.3-0.2-0.6-0.3-1.1-0.3h-1.8V15.5z"></path> <path d="M1235.3,22.3V10.9h2.3v11.4H1235.3z"></path> <path d="M1244.2,22.5c-1.4,0-2.5-0.4-3.3-1.3c-0.9-0.9-1.3-2-1.3-3.4v-6.9h2.3v6.9c0,0.7,0.2,1.3,0.6,1.8c0.4,0.4,1,0.6,1.7,0.6 c0.7,0,1.3-0.2,1.7-0.6c0.4-0.4,0.6-1,0.6-1.8v-6.9h2.3v6.9c0,1.4-0.4,2.5-1.3,3.4C1246.7,22.1,1245.5,22.5,1244.2,22.5z"></path> <path d="M1250.8,22.3V10.9h2.1l3.7,6l3.7-6h2.1v11.4h-2.3v-6.9l-2.7,4.4h-1.5l-2.7-4.4v6.9H1250.8z"></path> </g> <g class="st1"> <path d="M1281.6,23.2l6.2-13.1h2l-6.2,13.1H1281.6z"></path> <path d="M1287.7,23.2l6.2-13.1h2l-6.2,13.1H1287.7z"></path> </g> <g> <path d="M1316.9,22.3v-9.2h-3v-2.2h8.4v2.2h-3.1v9.2H1316.9z"></path> <path d="M1321,22.3l4.9-11.4h2.1l4.9,11.4h-2.4l-1.1-2.6h-4.8l-1.1,2.6H1321z M1327,14l-1.6,3.7h3.1L1327,14z"></path> <path d="M1333.7,22.3V10.9h4.4c1,0,1.9,0.3,2.5,1c0.6,0.6,1,1.4,1,2.4c0,1.5-0.8,2.5-2.3,3l4.1,5h-2.8l-3.9-4.8h-0.6v4.8H1333.7z M1336,15.5h1.8c0.4,0,0.8-0.1,1.1-0.3c0.3-0.2,0.4-0.5,0.4-0.9s-0.1-0.7-0.4-0.9c-0.3-0.2-0.6-0.3-1.1-0.3h-1.8V15.5z"></path> <path d="M1348.9,22.5c-1.8,0-3.2-0.6-4.4-1.7c-1.2-1.1-1.8-2.5-1.8-4.2c0-1.6,0.6-3,1.7-4.2c1.1-1.1,2.6-1.7,4.3-1.7 c1.9,0,3.4,0.6,4.6,1.9l-1.6,1.6c-0.8-0.8-1.8-1.2-3-1.2c-1.1,0-1.9,0.4-2.6,1.1s-1,1.6-1,2.6c0,1,0.3,1.9,1,2.6 c0.7,0.7,1.6,1,2.8,1c1.1,0,1.9-0.2,2.4-0.6v-2h-2.4v-2.2h4.7v5.3c-0.5,0.5-1.2,0.9-2,1.2S1349.8,22.5,1348.9,22.5z"></path> <path d="M1355.2,22.3V10.9h7.1v2.2h-4.8v2.3h3.8v2.2h-3.8v2.4h4.8v2.2H1355.2z"></path> <path d="M1366,22.3v-9.2h-3v-2.2h8.4v2.2h-3.1v9.2H1366z"></path> <path d="M1381.5,20.8c-1.1,1.1-2.5,1.7-4.2,1.7s-3-0.6-4.2-1.7c-1.1-1.1-1.7-2.5-1.7-4.2s0.6-3,1.7-4.2c1.1-1.1,2.5-1.7,4.2-1.7 s3,0.6,4.2,1.7c1.1,1.1,1.7,2.5,1.7,4.2S1382.7,19.6,1381.5,20.8z M1374.9,19.2c0.7,0.7,1.5,1.1,2.5,1.1s1.8-0.4,2.5-1.1 c0.7-0.7,1-1.6,1-2.6c0-1-0.3-1.9-1-2.6c-0.7-0.7-1.5-1.1-2.5-1.1s-1.8,0.4-2.5,1.1c-0.7,0.7-1,1.6-1,2.6 C1373.8,17.6,1374.2,18.5,1374.9,19.2z"></path> <path d="M1384.6,22.3V10.9h4.4c1,0,1.9,0.3,2.5,1c0.6,0.6,1,1.4,1,2.4c0,1.5-0.8,2.5-2.3,3l4.1,5h-2.8l-3.9-4.8h-0.6v4.8H1384.6z M1386.9,15.5h1.8c0.4,0,0.8-0.1,1.1-0.3c0.3-0.2,0.4-0.5,0.4-0.9s-0.1-0.7-0.4-0.9c-0.3-0.2-0.6-0.3-1.1-0.3h-1.8V15.5z"></path> <path d="M1394.8,22.3V10.9h2.3v11.4H1394.8z"></path> <path d="M1403.7,22.5c-1.4,0-2.5-0.4-3.3-1.3s-1.3-2-1.3-3.4v-6.9h2.3v6.9c0,0.7,0.2,1.3,0.6,1.8c0.4,0.4,1,0.6,1.7,0.6 c0.7,0,1.3-0.2,1.7-0.6c0.4-0.4,0.6-1,0.6-1.8v-6.9h2.3v6.9c0,1.4-0.4,2.5-1.3,3.4C1406.2,22.1,1405,22.5,1403.7,22.5z"></path> <path d="M1410.3,22.3V10.9h2.1l3.7,6l3.7-6h2.1v11.4h-2.3v-6.9l-2.7,4.4h-1.5l-2.7-4.4v6.9H1410.3z"></path> </g> <g class="st1"> <path d="M1441.1,23.2l6.2-13.1h2l-6.2,13.1H1441.1z"></path> <path d="M1447.2,23.2l6.2-13.1h2l-6.2,13.1H1447.2z"></path> </g> <g> <path d="M1474,22.3v-9.2h-3v-2.2h8.4v2.2h-3.1v9.2H1474z"></path> <path d="M1478.1,22.3l4.9-11.4h2.1l4.9,11.4h-2.4l-1.1-2.6h-4.8l-1.1,2.6H1478.1z M1484.1,14l-1.6,3.7h3.1L1484.1,14z"></path> <path d="M1490.8,22.3V10.9h4.4c1,0,1.9,0.3,2.5,1c0.6,0.6,1,1.4,1,2.4c0,1.5-0.8,2.5-2.3,3l4.1,5h-2.8l-3.9-4.8h-0.6v4.8H1490.8z M1493.1,15.5h1.8c0.4,0,0.8-0.1,1.1-0.3c0.3-0.2,0.4-0.5,0.4-0.9s-0.1-0.7-0.4-0.9c-0.3-0.2-0.6-0.3-1.1-0.3h-1.8V15.5z"></path> <path d="M1506,22.5c-1.8,0-3.2-0.6-4.4-1.7c-1.2-1.1-1.8-2.5-1.8-4.2c0-1.6,0.6-3,1.7-4.2c1.1-1.1,2.6-1.7,4.3-1.7 c1.9,0,3.4,0.6,4.6,1.9l-1.6,1.6c-0.8-0.8-1.8-1.2-3-1.2c-1.1,0-1.9,0.4-2.6,1.1s-1,1.6-1,2.6c0,1,0.3,1.9,1,2.6 c0.7,0.7,1.6,1,2.8,1c1.1,0,1.9-0.2,2.4-0.6v-2h-2.4v-2.2h4.7v5.3c-0.5,0.5-1.2,0.9-2,1.2S1506.9,22.5,1506,22.5z"></path> <path d="M1512.3,22.3V10.9h7.1v2.2h-4.8v2.3h3.8v2.2h-3.8v2.4h4.8v2.2H1512.3z"></path> <path d="M1523.1,22.3v-9.2h-3v-2.2h8.4v2.2h-3.1v9.2H1523.1z"></path> <path d="M1538.6,20.8c-1.1,1.1-2.5,1.7-4.2,1.7s-3-0.6-4.2-1.7c-1.1-1.1-1.7-2.5-1.7-4.2s0.6-3,1.7-4.2c1.1-1.1,2.5-1.7,4.2-1.7 s3,0.6,4.2,1.7c1.1,1.1,1.7,2.5,1.7,4.2S1539.7,19.6,1538.6,20.8z M1531.9,19.2c0.7,0.7,1.5,1.1,2.5,1.1s1.8-0.4,2.5-1.1 c0.7-0.7,1-1.6,1-2.6c0-1-0.3-1.9-1-2.6c-0.7-0.7-1.5-1.1-2.5-1.1s-1.8,0.4-2.5,1.1c-0.7,0.7-1,1.6-1,2.6 C1530.9,17.6,1531.3,18.5,1531.9,19.2z"></path> <path d="M1541.7,22.3V10.9h4.4c1,0,1.9,0.3,2.5,1c0.6,0.6,1,1.4,1,2.4c0,1.5-0.8,2.5-2.3,3l4.1,5h-2.8l-3.9-4.8h-0.6v4.8H1541.7z M1544,15.5h1.8c0.4,0,0.8-0.1,1.1-0.3c0.3-0.2,0.4-0.5,0.4-0.9s-0.1-0.7-0.4-0.9c-0.3-0.2-0.6-0.3-1.1-0.3h-1.8V15.5z"></path> <path d="M1551.9,22.3V10.9h2.3v11.4H1551.9z"></path> <path d="M1560.8,22.5c-1.4,0-2.5-0.4-3.3-1.3c-0.9-0.9-1.3-2-1.3-3.4v-6.9h2.3v6.9c0,0.7,0.2,1.3,0.6,1.8c0.4,0.4,1,0.6,1.7,0.6 c0.7,0,1.3-0.2,1.7-0.6c0.4-0.4,0.6-1,0.6-1.8v-6.9h2.3v6.9c0,1.4-0.4,2.5-1.3,3.4C1563.3,22.1,1562.1,22.5,1560.8,22.5z"></path> <path d="M1567.4,22.3V10.9h2.1l3.7,6l3.7-6h2.1v11.4h-2.3v-6.9l-2.7,4.4h-1.5l-2.7-4.4v6.9H1567.4z"></path> </g> <g class="st1"> <path d="M1598.2,23.2l6.2-13.1h2l-6.2,13.1H1598.2z"></path> <path d="M1604.3,23.2l6.2-13.1h2l-6.2,13.1H1604.3z"></path> </g> <g> <path d="M1634,22.3v-9.2h-3v-2.2h8.4v2.2h-3.1v9.2H1634z"></path> <path d="M1638.1,22.3l4.9-11.4h2.1l4.9,11.4h-2.4l-1.1-2.6h-4.8l-1.1,2.6H1638.1z M1644.1,14l-1.6,3.7h3.1L1644.1,14z"></path> <path d="M1650.8,22.3V10.9h4.4c1,0,1.9,0.3,2.5,1c0.6,0.6,1,1.4,1,2.4c0,1.5-0.8,2.5-2.3,3l4.1,5h-2.8l-3.9-4.8h-0.6v4.8H1650.8z M1653.1,15.5h1.8c0.4,0,0.8-0.1,1.1-0.3c0.3-0.2,0.4-0.5,0.4-0.9s-0.1-0.7-0.4-0.9c-0.3-0.2-0.6-0.3-1.1-0.3h-1.8V15.5z"></path> <path d="M1666,22.5c-1.8,0-3.2-0.6-4.4-1.7c-1.2-1.1-1.8-2.5-1.8-4.2c0-1.6,0.6-3,1.7-4.2c1.1-1.1,2.6-1.7,4.3-1.7 c1.9,0,3.4,0.6,4.6,1.9l-1.6,1.6c-0.8-0.8-1.8-1.2-3-1.2c-1.1,0-1.9,0.4-2.6,1.1s-1,1.6-1,2.6c0,1,0.3,1.9,1,2.6 c0.7,0.7,1.6,1,2.8,1c1.1,0,1.9-0.2,2.4-0.6v-2h-2.4v-2.2h4.7v5.3c-0.5,0.5-1.2,0.9-2,1.2S1666.9,22.5,1666,22.5z"></path> <path d="M1672.3,22.3V10.9h7.1v2.2h-4.8v2.3h3.8v2.2h-3.8v2.4h4.8v2.2H1672.3z"></path> <path d="M1683.1,22.3v-9.2h-3v-2.2h8.4v2.2h-3.1v9.2H1683.1z"></path> <path d="M1698.6,20.8c-1.1,1.1-2.5,1.7-4.2,1.7s-3-0.6-4.2-1.7c-1.1-1.1-1.7-2.5-1.7-4.2s0.6-3,1.7-4.2c1.1-1.1,2.5-1.7,4.2-1.7 s3,0.6,4.2,1.7c1.1,1.1,1.7,2.5,1.7,4.2S1699.7,19.6,1698.6,20.8z M1691.9,19.2c0.7,0.7,1.5,1.1,2.5,1.1s1.8-0.4,2.5-1.1 c0.7-0.7,1-1.6,1-2.6c0-1-0.3-1.9-1-2.6c-0.7-0.7-1.5-1.1-2.5-1.1s-1.8,0.4-2.5,1.1c-0.7,0.7-1,1.6-1,2.6 C1690.9,17.6,1691.3,18.5,1691.9,19.2z"></path> <path d="M1701.7,22.3V10.9h4.4c1,0,1.9,0.3,2.5,1c0.6,0.6,1,1.4,1,2.4c0,1.5-0.8,2.5-2.3,3l4.1,5h-2.8l-3.9-4.8h-0.6v4.8H1701.7z M1704,15.5h1.8c0.4,0,0.8-0.1,1.1-0.3c0.3-0.2,0.4-0.5,0.4-0.9s-0.1-0.7-0.4-0.9c-0.3-0.2-0.6-0.3-1.1-0.3h-1.8V15.5z"></path> <path d="M1711.9,22.3V10.9h2.3v11.4H1711.9z"></path> <path d="M1720.8,22.5c-1.4,0-2.5-0.4-3.3-1.3c-0.9-0.9-1.3-2-1.3-3.4v-6.9h2.3v6.9c0,0.7,0.2,1.3,0.6,1.8c0.4,0.4,1,0.6,1.7,0.6 c0.7,0,1.3-0.2,1.7-0.6c0.4-0.4,0.6-1,0.6-1.8v-6.9h2.3v6.9c0,1.4-0.4,2.5-1.3,3.4C1723.3,22.1,1722.1,22.5,1720.8,22.5z"></path> <path d="M1727.4,22.3V10.9h2.1l3.7,6l3.7-6h2.1v11.4h-2.3v-6.9l-2.7,4.4h-1.5l-2.7-4.4v6.9H1727.4z"></path> </g> <g class="st1"> <path d="M1758.2,23.2l6.2-13.1h2l-6.2,13.1H1758.2z"></path> <path d="M1764.3,23.2l6.2-13.1h2l-6.2,13.1H1764.3z"></path> </g> <g> <path d="M1793.5,22.3v-9.2h-3v-2.2h8.4v2.2h-3.1v9.2H1793.5z"></path> <path d="M1797.6,22.3l4.9-11.4h2.1l4.9,11.4h-2.4l-1.1-2.6h-4.8l-1.1,2.6H1797.6z M1803.6,14l-1.6,3.7h3.1L1803.6,14z"></path> <path d="M1810.3,22.3V10.9h4.4c1,0,1.9,0.3,2.5,1c0.6,0.6,1,1.4,1,2.4c0,1.5-0.8,2.5-2.3,3l4.1,5h-2.8l-3.9-4.8h-0.6v4.8H1810.3z M1812.6,15.5h1.8c0.4,0,0.8-0.1,1.1-0.3c0.3-0.2,0.4-0.5,0.4-0.9s-0.1-0.7-0.4-0.9c-0.3-0.2-0.6-0.3-1.1-0.3h-1.8V15.5z"></path> <path d="M1825.5,22.5c-1.8,0-3.2-0.6-4.4-1.7c-1.2-1.1-1.8-2.5-1.8-4.2c0-1.6,0.6-3,1.7-4.2c1.1-1.1,2.6-1.7,4.3-1.7 c1.9,0,3.4,0.6,4.6,1.9l-1.6,1.6c-0.8-0.8-1.8-1.2-3-1.2c-1.1,0-1.9,0.4-2.6,1.1s-1,1.6-1,2.6c0,1,0.3,1.9,1,2.6 c0.7,0.7,1.6,1,2.8,1c1.1,0,1.9-0.2,2.4-0.6v-2h-2.4v-2.2h4.7v5.3c-0.5,0.5-1.2,0.9-2,1.2S1826.4,22.5,1825.5,22.5z"></path> <path d="M1831.8,22.3V10.9h7.1v2.2h-4.8v2.3h3.8v2.2h-3.8v2.4h4.8v2.2H1831.8z"></path> <path d="M1842.6,22.3v-9.2h-3v-2.2h8.4v2.2h-3.1v9.2H1842.6z"></path> <path d="M1858.1,20.8c-1.1,1.1-2.5,1.7-4.2,1.7s-3-0.6-4.2-1.7c-1.1-1.1-1.7-2.5-1.7-4.2s0.6-3,1.7-4.2c1.1-1.1,2.5-1.7,4.2-1.7 s3,0.6,4.2,1.7c1.1,1.1,1.7,2.5,1.7,4.2S1859.2,19.6,1858.1,20.8z M1851.4,19.2c0.7,0.7,1.5,1.1,2.5,1.1s1.8-0.4,2.5-1.1 c0.7-0.7,1-1.6,1-2.6c0-1-0.3-1.9-1-2.6c-0.7-0.7-1.5-1.1-2.5-1.1s-1.8,0.4-2.5,1.1c-0.7,0.7-1,1.6-1,2.6 C1850.4,17.6,1850.8,18.5,1851.4,19.2z"></path> <path d="M1861.2,22.3V10.9h4.4c1,0,1.9,0.3,2.5,1c0.6,0.6,1,1.4,1,2.4c0,1.5-0.8,2.5-2.3,3l4.1,5h-2.8l-3.9-4.8h-0.6v4.8H1861.2z M1863.5,15.5h1.8c0.4,0,0.8-0.1,1.1-0.3c0.3-0.2,0.4-0.5,0.4-0.9s-0.1-0.7-0.4-0.9c-0.3-0.2-0.6-0.3-1.1-0.3h-1.8V15.5z"></path> <path d="M1871.4,22.3V10.9h2.3v11.4H1871.4z"></path> <path d="M1880.3,22.5c-1.4,0-2.5-0.4-3.3-1.3s-1.3-2-1.3-3.4v-6.9h2.3v6.9c0,0.7,0.2,1.3,0.6,1.8c0.4,0.4,1,0.6,1.7,0.6 c0.7,0,1.3-0.2,1.7-0.6c0.4-0.4,0.6-1,0.6-1.8v-6.9h2.3v6.9c0,1.4-0.4,2.5-1.3,3.4C1882.8,22.1,1881.6,22.5,1880.3,22.5z"></path> <path d="M1886.9,22.3V10.9h2.1l3.7,6l3.7-6h2.1v11.4h-2.3v-6.9l-2.7,4.4h-1.5l-2.7-4.4v6.9H1886.9z"></path> </g> <g class="st1"> <path d="M1917.7,23.2l6.2-13.1h2l-6.2,13.1H1917.7z"></path> <path d="M1923.8,23.2l6.2-13.1h2l-6.2,13.1H1923.8z"></path> </g> <g> <path d="M43.5,22.3v-9.2h-3v-2.2h8.4v2.2h-3.1v9.2H43.5z"></path> <path d="M47.6,22.3l4.9-11.4h2.1l4.9,11.4h-2.4L56,19.7h-4.8L50,22.3H47.6z M53.5,14L52,17.7h3.1L53.5,14z"></path> <path d="M60.2,22.3V10.9h4.4c1,0,1.9,0.3,2.5,1c0.6,0.6,1,1.4,1,2.4c0,1.5-0.8,2.5-2.3,3l4.1,5H67l-3.9-4.8h-0.6v4.8H60.2z M62.6,15.5h1.8c0.4,0,0.8-0.1,1.1-0.3c0.3-0.2,0.4-0.5,0.4-0.9s-0.1-0.7-0.4-0.9c-0.3-0.2-0.6-0.3-1.1-0.3h-1.8V15.5z"></path> <path d="M75.4,22.5c-1.8,0-3.2-0.6-4.4-1.7c-1.2-1.1-1.8-2.5-1.8-4.2c0-1.6,0.6-3,1.7-4.2c1.1-1.1,2.6-1.7,4.3-1.7 c1.9,0,3.4,0.6,4.6,1.9l-1.6,1.6c-0.8-0.8-1.8-1.2-3-1.2c-1.1,0-1.9,0.4-2.6,1.1s-1,1.6-1,2.6c0,1,0.3,1.9,1,2.6 c0.7,0.7,1.6,1,2.8,1c1.1,0,1.9-0.2,2.4-0.6v-2h-2.4v-2.2h4.7v5.3c-0.5,0.5-1.2,0.9-2,1.2S76.4,22.5,75.4,22.5z"></path> <path d="M81.8,22.3V10.9h7.1v2.2h-4.8v2.3h3.8v2.2h-3.8v2.4h4.8v2.2H81.8z"></path> <path d="M92.6,22.3v-9.2h-3v-2.2H98v2.2h-3.1v9.2H92.6z"></path> <path d="M108.1,20.8c-1.1,1.1-2.5,1.7-4.2,1.7s-3-0.6-4.2-1.7c-1.1-1.1-1.7-2.5-1.7-4.2s0.6-3,1.7-4.2c1.1-1.1,2.5-1.7,4.2-1.7 s3,0.6,4.2,1.7c1.1,1.1,1.7,2.5,1.7,4.2S109.2,19.6,108.1,20.8z M101.4,19.2c0.7,0.7,1.5,1.1,2.5,1.1s1.8-0.4,2.5-1.1 c0.7-0.7,1-1.6,1-2.6c0-1-0.3-1.9-1-2.6c-0.7-0.7-1.5-1.1-2.5-1.1s-1.8,0.4-2.5,1.1c-0.7,0.7-1,1.6-1,2.6 C100.4,17.6,100.7,18.5,101.4,19.2z"></path> <path d="M111.2,22.3V10.9h4.4c1,0,1.9,0.3,2.5,1c0.6,0.6,1,1.4,1,2.4c0,1.5-0.8,2.5-2.3,3l4.1,5H118l-3.9-4.8h-0.6v4.8H111.2z M113.5,15.5h1.8c0.4,0,0.8-0.1,1.1-0.3c0.3-0.2,0.4-0.5,0.4-0.9s-0.1-0.7-0.4-0.9c-0.3-0.2-0.6-0.3-1.1-0.3h-1.8V15.5z"></path> <path d="M121.4,22.3V10.9h2.3v11.4H121.4z"></path> <path d="M130.3,22.5c-1.4,0-2.5-0.4-3.3-1.3c-0.9-0.9-1.3-2-1.3-3.4v-6.9h2.3v6.9c0,0.7,0.2,1.3,0.6,1.8c0.4,0.4,1,0.6,1.7,0.6 c0.7,0,1.3-0.2,1.7-0.6c0.4-0.4,0.6-1,0.6-1.8v-6.9h2.3v6.9c0,1.4-0.4,2.5-1.3,3.4C132.7,22.1,131.6,22.5,130.3,22.5z"></path> <path d="M136.9,22.3V10.9h2.1l3.7,6l3.7-6h2.1v11.4h-2.3v-6.9l-2.7,4.4h-1.5l-2.7-4.4v6.9H136.9z"></path> </g> <g class="st1"> <path d="M167.7,23.2l6.2-13.1h2l-6.2,13.1H167.7z"></path> <path d="M173.7,23.2l6.2-13.1h2l-6.2,13.1H173.7z"></path> </g> <g> <path d="M203.5,22.3v-9.2h-3v-2.2h8.4v2.2h-3.1v9.2H203.5z"></path> <path d="M207.6,22.3l4.9-11.4h2.1l4.9,11.4h-2.4l-1.1-2.6h-4.8l-1.1,2.6H207.6z M213.5,14l-1.6,3.7h3.1L213.5,14z"></path> <path d="M220.2,22.3V10.9h4.4c1,0,1.9,0.3,2.5,1c0.6,0.6,1,1.4,1,2.4c0,1.5-0.8,2.5-2.3,3l4.1,5H227l-3.9-4.8h-0.6v4.8H220.2z M222.6,15.5h1.8c0.4,0,0.8-0.1,1.1-0.3c0.3-0.2,0.4-0.5,0.4-0.9s-0.1-0.7-0.4-0.9c-0.3-0.2-0.6-0.3-1.1-0.3h-1.8V15.5z"></path> <path d="M235.4,22.5c-1.8,0-3.2-0.6-4.4-1.7c-1.2-1.1-1.8-2.5-1.8-4.2c0-1.6,0.6-3,1.7-4.2c1.1-1.1,2.6-1.7,4.3-1.7 c1.9,0,3.4,0.6,4.6,1.9l-1.6,1.6c-0.8-0.8-1.8-1.2-3-1.2c-1.1,0-1.9,0.4-2.6,1.1s-1,1.6-1,2.6c0,1,0.3,1.9,1,2.6 c0.7,0.7,1.6,1,2.8,1c1.1,0,1.9-0.2,2.4-0.6v-2h-2.4v-2.2h4.7v5.3c-0.5,0.5-1.2,0.9-2,1.2S236.4,22.5,235.4,22.5z"></path> <path d="M241.8,22.3V10.9h7.1v2.2h-4.8v2.3h3.8v2.2h-3.8v2.4h4.8v2.2H241.8z"></path> <path d="M252.6,22.3v-9.2h-3v-2.2h8.4v2.2h-3.1v9.2H252.6z"></path> <path d="M268.1,20.8c-1.1,1.1-2.5,1.7-4.2,1.7s-3-0.6-4.2-1.7c-1.1-1.1-1.7-2.5-1.7-4.2s0.6-3,1.7-4.2c1.1-1.1,2.5-1.7,4.2-1.7 s3,0.6,4.2,1.7c1.1,1.1,1.7,2.5,1.7,4.2S269.2,19.6,268.1,20.8z M261.4,19.2c0.7,0.7,1.5,1.1,2.5,1.1s1.8-0.4,2.5-1.1 c0.7-0.7,1-1.6,1-2.6c0-1-0.3-1.9-1-2.6c-0.7-0.7-1.5-1.1-2.5-1.1s-1.8,0.4-2.5,1.1c-0.7,0.7-1,1.6-1,2.6 C260.4,17.6,260.7,18.5,261.4,19.2z"></path> <path d="M271.2,22.3V10.9h4.4c1,0,1.9,0.3,2.5,1c0.6,0.6,1,1.4,1,2.4c0,1.5-0.8,2.5-2.3,3l4.1,5H278l-3.9-4.8h-0.6v4.8H271.2z M273.5,15.5h1.8c0.4,0,0.8-0.1,1.1-0.3c0.3-0.2,0.4-0.5,0.4-0.9s-0.1-0.7-0.4-0.9c-0.3-0.2-0.6-0.3-1.1-0.3h-1.8V15.5z"></path> <path d="M281.4,22.3V10.9h2.3v11.4H281.4z"></path> <path d="M290.3,22.5c-1.4,0-2.5-0.4-3.3-1.3c-0.9-0.9-1.3-2-1.3-3.4v-6.9h2.3v6.9c0,0.7,0.2,1.3,0.6,1.8c0.4,0.4,1,0.6,1.7,0.6 c0.7,0,1.3-0.2,1.7-0.6c0.4-0.4,0.6-1,0.6-1.8v-6.9h2.3v6.9c0,1.4-0.4,2.5-1.3,3.4C292.7,22.1,291.6,22.5,290.3,22.5z"></path> <path d="M296.9,22.3V10.9h2.1l3.7,6l3.7-6h2.1v11.4h-2.3v-6.9l-2.7,4.4h-1.5l-2.7-4.4v6.9H296.9z"></path> </g> <g class="st1"> <path d="M327.7,23.2l6.2-13.1h2l-6.2,13.1H327.7z"></path> <path d="M333.7,23.2l6.2-13.1h2l-6.2,13.1H333.7z"></path> </g> <g> <path d="M363,22.3v-9.2h-3v-2.2h8.4v2.2h-3.1v9.2H363z"></path> <path d="M367.1,22.3l4.9-11.4h2.1l4.9,11.4h-2.4l-1.1-2.6h-4.8l-1.1,2.6H367.1z M373,14l-1.6,3.7h3.1L373,14z"></path> <path d="M379.7,22.3V10.9h4.4c1,0,1.9,0.3,2.5,1c0.6,0.6,1,1.4,1,2.4c0,1.5-0.8,2.5-2.3,3l4.1,5h-2.8l-3.9-4.8h-0.6v4.8H379.7z M382.1,15.5h1.8c0.4,0,0.8-0.1,1.1-0.3c0.3-0.2,0.4-0.5,0.4-0.9s-0.1-0.7-0.4-0.9c-0.3-0.2-0.6-0.3-1.1-0.3h-1.8V15.5z"></path> <path d="M394.9,22.5c-1.8,0-3.2-0.6-4.4-1.7c-1.2-1.1-1.8-2.5-1.8-4.2c0-1.6,0.6-3,1.7-4.2c1.1-1.1,2.6-1.7,4.3-1.7 c1.9,0,3.4,0.6,4.6,1.9l-1.6,1.6c-0.8-0.8-1.8-1.2-3-1.2c-1.1,0-1.9,0.4-2.6,1.1s-1,1.6-1,2.6c0,1,0.3,1.9,1,2.6 c0.7,0.7,1.6,1,2.8,1c1.1,0,1.9-0.2,2.4-0.6v-2h-2.4v-2.2h4.7v5.3c-0.5,0.5-1.2,0.9-2,1.2S395.9,22.5,394.9,22.5z"></path> <path d="M401.3,22.3V10.9h7.1v2.2h-4.8v2.3h3.8v2.2h-3.8v2.4h4.8v2.2H401.3z"></path> <path d="M412.1,22.3v-9.2h-3v-2.2h8.4v2.2h-3.1v9.2H412.1z"></path> <path d="M427.6,20.8c-1.1,1.1-2.5,1.7-4.2,1.7s-3-0.6-4.2-1.7c-1.1-1.1-1.7-2.5-1.7-4.2s0.6-3,1.7-4.2c1.1-1.1,2.5-1.7,4.2-1.7 s3,0.6,4.2,1.7c1.1,1.1,1.7,2.5,1.7,4.2S428.7,19.6,427.6,20.8z M420.9,19.2c0.7,0.7,1.5,1.1,2.5,1.1s1.8-0.4,2.5-1.1 c0.7-0.7,1-1.6,1-2.6c0-1-0.3-1.9-1-2.6c-0.7-0.7-1.5-1.1-2.5-1.1s-1.8,0.4-2.5,1.1c-0.7,0.7-1,1.6-1,2.6 C419.9,17.6,420.2,18.5,420.9,19.2z"></path> <path d="M430.7,22.3V10.9h4.4c1,0,1.9,0.3,2.5,1c0.6,0.6,1,1.4,1,2.4c0,1.5-0.8,2.5-2.3,3l4.1,5h-2.8l-3.9-4.8H433v4.8H430.7z M433,15.5h1.8c0.4,0,0.8-0.1,1.1-0.3c0.3-0.2,0.4-0.5,0.4-0.9s-0.1-0.7-0.4-0.9c-0.3-0.2-0.6-0.3-1.1-0.3H433V15.5z"></path> <path d="M440.9,22.3V10.9h2.3v11.4H440.9z"></path> <path d="M449.8,22.5c-1.4,0-2.5-0.4-3.3-1.3s-1.3-2-1.3-3.4v-6.9h2.3v6.9c0,0.7,0.2,1.3,0.6,1.8c0.4,0.4,1,0.6,1.7,0.6 c0.7,0,1.3-0.2,1.7-0.6c0.4-0.4,0.6-1,0.6-1.8v-6.9h2.3v6.9c0,1.4-0.4,2.5-1.3,3.4C452.2,22.1,451.1,22.5,449.8,22.5z"></path> <path d="M456.4,22.3V10.9h2.1l3.7,6l3.7-6h2.1v11.4h-2.3v-6.9l-2.7,4.4h-1.5l-2.7-4.4v6.9H456.4z"></path> </g> <g class="st1"> <path d="M487.2,23.2l6.2-13.1h2l-6.2,13.1H487.2z"></path> <path d="M493.2,23.2l6.2-13.1h2l-6.2,13.1H493.2z"></path> </g> <g> <path d="M2269.4,22.4v-9.2h-3V11h8.4v2.2h-3.1v9.2H2269.4z"></path> <path d="M2273.6,22.4l4.9-11.4h2.1l4.9,11.4h-2.4l-1.1-2.6h-4.8l-1.1,2.6H2273.6z M2279.5,14.1l-1.6,3.7h3.1L2279.5,14.1z"></path> <path d="M2286.2,22.4V11h4.4c1,0,1.9,0.3,2.5,1c0.6,0.6,1,1.4,1,2.4c0,1.5-0.8,2.5-2.3,3l4.1,5h-2.8l-3.9-4.8h-0.6v4.8H2286.2z M2288.5,15.6h1.8c0.4,0,0.8-0.1,1.1-0.3c0.3-0.2,0.4-0.5,0.4-0.9s-0.1-0.7-0.4-0.9c-0.3-0.2-0.6-0.3-1.1-0.3h-1.8V15.6z"></path> <path d="M2301.4,22.6c-1.8,0-3.2-0.6-4.4-1.7c-1.2-1.1-1.8-2.5-1.8-4.2c0-1.6,0.6-3,1.7-4.2c1.1-1.1,2.6-1.7,4.3-1.7 c1.9,0,3.4,0.6,4.6,1.9l-1.6,1.6c-0.8-0.8-1.8-1.2-3-1.2c-1.1,0-1.9,0.4-2.6,1.1s-1,1.6-1,2.6c0,1,0.3,1.9,1,2.6 c0.7,0.7,1.6,1,2.8,1c1.1,0,1.9-0.2,2.4-0.6v-2h-2.4v-2.2h4.7v5.3c-0.5,0.5-1.2,0.9-2,1.2S2302.3,22.6,2301.4,22.6z"></path> <path d="M2307.8,22.4V11h7.1v2.2h-4.8v2.3h3.8v2.2h-3.8v2.4h4.8v2.2H2307.8z"></path> <path d="M2318.5,22.4v-9.2h-3V11h8.4v2.2h-3.1v9.2H2318.5z"></path> <path d="M2334.1,20.9c-1.1,1.1-2.5,1.7-4.2,1.7s-3-0.6-4.2-1.7c-1.1-1.1-1.7-2.5-1.7-4.2s0.6-3,1.7-4.2c1.1-1.1,2.5-1.7,4.2-1.7 s3,0.6,4.2,1.7c1.1,1.1,1.7,2.5,1.7,4.2S2335.2,19.7,2334.1,20.9z M2327.4,19.3c0.7,0.7,1.5,1.1,2.5,1.1s1.8-0.4,2.5-1.1 c0.7-0.7,1-1.6,1-2.6c0-1-0.3-1.9-1-2.6c-0.7-0.7-1.5-1.1-2.5-1.1s-1.8,0.4-2.5,1.1c-0.7,0.7-1,1.6-1,2.6 C2326.4,17.7,2326.7,18.6,2327.4,19.3z"></path> <path d="M2337.1,22.4V11h4.4c1,0,1.9,0.3,2.5,1c0.6,0.6,1,1.4,1,2.4c0,1.5-0.8,2.5-2.3,3l4.1,5h-2.8l-3.9-4.8h-0.6v4.8H2337.1z M2339.5,15.6h1.8c0.4,0,0.8-0.1,1.1-0.3c0.3-0.2,0.4-0.5,0.4-0.9s-0.1-0.7-0.4-0.9c-0.3-0.2-0.6-0.3-1.1-0.3h-1.8V15.6z"></path> <path d="M2347.3,22.4V11h2.3v11.4H2347.3z"></path> <path d="M2356.2,22.6c-1.4,0-2.5-0.4-3.3-1.3c-0.9-0.9-1.3-2-1.3-3.4V11h2.3V18c0,0.7,0.2,1.3,0.6,1.8c0.4,0.4,1,0.6,1.7,0.6 c0.7,0,1.3-0.2,1.7-0.6c0.4-0.4,0.6-1,0.6-1.8V11h2.3v6.9c0,1.4-0.4,2.5-1.3,3.4C2358.7,22.2,2357.6,22.6,2356.2,22.6z"></path> <path d="M2362.8,22.4V11h2.1l3.7,6l3.7-6h2.1v11.4h-2.3v-6.9l-2.7,4.4h-1.5l-2.7-4.4v6.9H2362.8z"></path> </g> <g class="st1"> <path d="M2393.7,23.3l6.2-13.1h2l-6.2,13.1H2393.7z"></path> <path d="M2399.7,23.3l6.2-13.1h2l-6.2,13.1H2399.7z"></path> </g> <g> <path d="M2429.4,22.4v-9.2h-3V11h8.4v2.2h-3.1v9.2H2429.4z"></path> <path d="M2433.6,22.4l4.9-11.4h2.1l4.9,11.4h-2.4l-1.1-2.6h-4.8l-1.1,2.6H2433.6z M2439.5,14.1l-1.6,3.7h3.1L2439.5,14.1z"></path> <path d="M2446.2,22.4V11h4.4c1,0,1.9,0.3,2.5,1c0.6,0.6,1,1.4,1,2.4c0,1.5-0.8,2.5-2.3,3l4.1,5h-2.8l-3.9-4.8h-0.6v4.8H2446.2z M2448.5,15.6h1.8c0.4,0,0.8-0.1,1.1-0.3c0.3-0.2,0.4-0.5,0.4-0.9s-0.1-0.7-0.4-0.9c-0.3-0.2-0.6-0.3-1.1-0.3h-1.8V15.6z"></path> <path d="M2461.4,22.6c-1.8,0-3.2-0.6-4.4-1.7c-1.2-1.1-1.8-2.5-1.8-4.2c0-1.6,0.6-3,1.7-4.2c1.1-1.1,2.6-1.7,4.3-1.7 c1.9,0,3.4,0.6,4.6,1.9l-1.6,1.6c-0.8-0.8-1.8-1.2-3-1.2c-1.1,0-1.9,0.4-2.6,1.1s-1,1.6-1,2.6c0,1,0.3,1.9,1,2.6 c0.7,0.7,1.6,1,2.8,1c1.1,0,1.9-0.2,2.4-0.6v-2h-2.4v-2.2h4.7v5.3c-0.5,0.5-1.2,0.9-2,1.2S2462.3,22.6,2461.4,22.6z"></path> <path d="M2467.8,22.4V11h7.1v2.2h-4.8v2.3h3.8v2.2h-3.8v2.4h4.8v2.2H2467.8z"></path> <path d="M2478.5,22.4v-9.2h-3V11h8.4v2.2h-3.1v9.2H2478.5z"></path> <path d="M2494.1,20.9c-1.1,1.1-2.5,1.7-4.2,1.7s-3-0.6-4.2-1.7c-1.1-1.1-1.7-2.5-1.7-4.2s0.6-3,1.7-4.2c1.1-1.1,2.5-1.7,4.2-1.7 s3,0.6,4.2,1.7c1.1,1.1,1.7,2.5,1.7,4.2S2495.2,19.7,2494.1,20.9z M2487.4,19.3c0.7,0.7,1.5,1.1,2.5,1.1s1.8-0.4,2.5-1.1 c0.7-0.7,1-1.6,1-2.6c0-1-0.3-1.9-1-2.6c-0.7-0.7-1.5-1.1-2.5-1.1s-1.8,0.4-2.5,1.1c-0.7,0.7-1,1.6-1,2.6 C2486.4,17.7,2486.7,18.6,2487.4,19.3z"></path> <path d="M2497.1,22.4V11h4.4c1,0,1.9,0.3,2.5,1c0.6,0.6,1,1.4,1,2.4c0,1.5-0.8,2.5-2.3,3l4.1,5h-2.8l-3.9-4.8h-0.6v4.8H2497.1z M2499.5,15.6h1.8c0.4,0,0.8-0.1,1.1-0.3c0.3-0.2,0.4-0.5,0.4-0.9s-0.1-0.7-0.4-0.9c-0.3-0.2-0.6-0.3-1.1-0.3h-1.8V15.6z"></path> <path d="M2507.3,22.4V11h2.3v11.4H2507.3z"></path> <path d="M2516.2,22.6c-1.4,0-2.5-0.4-3.3-1.3c-0.9-0.9-1.3-2-1.3-3.4V11h2.3V18c0,0.7,0.2,1.3,0.6,1.8c0.4,0.4,1,0.6,1.7,0.6 c0.7,0,1.3-0.2,1.7-0.6c0.4-0.4,0.6-1,0.6-1.8V11h2.3v6.9c0,1.4-0.4,2.5-1.3,3.4C2518.7,22.2,2517.6,22.6,2516.2,22.6z"></path> <path d="M2522.8,22.4V11h2.1l3.7,6l3.7-6h2.1v11.4h-2.3v-6.9l-2.7,4.4h-1.5l-2.7-4.4v6.9H2522.8z"></path> </g> <g class="st1"> <path d="M2553.7,23.3l6.2-13.1h2l-6.2,13.1H2553.7z"></path> <path d="M2559.7,23.3l6.2-13.1h2l-6.2,13.1H2559.7z"></path> </g> <g> <path d="M2588.9,22.4v-9.2h-3V11h8.4v2.2h-3.1v9.2H2588.9z"></path> <path d="M2593.1,22.4L2598,11h2.1l4.9,11.4h-2.4l-1.1-2.6h-4.8l-1.1,2.6H2593.1z M2599,14.1l-1.6,3.7h3.1L2599,14.1z"></path> <path d="M2605.7,22.4V11h4.4c1,0,1.9,0.3,2.5,1c0.6,0.6,1,1.4,1,2.4c0,1.5-0.8,2.5-2.3,3l4.1,5h-2.8l-3.9-4.8h-0.6v4.8H2605.7z M2608,15.6h1.8c0.4,0,0.8-0.1,1.1-0.3c0.3-0.2,0.4-0.5,0.4-0.9s-0.1-0.7-0.4-0.9c-0.3-0.2-0.6-0.3-1.1-0.3h-1.8V15.6z"></path> <path d="M2620.9,22.6c-1.8,0-3.2-0.6-4.4-1.7c-1.2-1.1-1.8-2.5-1.8-4.2c0-1.6,0.6-3,1.7-4.2c1.1-1.1,2.6-1.7,4.3-1.7 c1.9,0,3.4,0.6,4.6,1.9l-1.6,1.6c-0.8-0.8-1.8-1.2-3-1.2c-1.1,0-1.9,0.4-2.6,1.1s-1,1.6-1,2.6c0,1,0.3,1.9,1,2.6 c0.7,0.7,1.6,1,2.8,1c1.1,0,1.9-0.2,2.4-0.6v-2h-2.4v-2.2h4.7v5.3c-0.5,0.5-1.2,0.9-2,1.2S2621.8,22.6,2620.9,22.6z"></path> <path d="M2627.3,22.4V11h7.1v2.2h-4.8v2.3h3.8v2.2h-3.8v2.4h4.8v2.2H2627.3z"></path> <path d="M2638,22.4v-9.2h-3V11h8.4v2.2h-3.1v9.2H2638z"></path> <path d="M2653.6,20.9c-1.1,1.1-2.5,1.7-4.2,1.7s-3-0.6-4.2-1.7c-1.1-1.1-1.7-2.5-1.7-4.2s0.6-3,1.7-4.2c1.1-1.1,2.5-1.7,4.2-1.7 s3,0.6,4.2,1.7c1.1,1.1,1.7,2.5,1.7,4.2S2654.7,19.7,2653.6,20.9z M2646.9,19.3c0.7,0.7,1.5,1.1,2.5,1.1s1.8-0.4,2.5-1.1 c0.7-0.7,1-1.6,1-2.6c0-1-0.3-1.9-1-2.6c-0.7-0.7-1.5-1.1-2.5-1.1s-1.8,0.4-2.5,1.1c-0.7,0.7-1,1.6-1,2.6 C2645.9,17.7,2646.2,18.6,2646.9,19.3z"></path> <path d="M2656.6,22.4V11h4.4c1,0,1.9,0.3,2.5,1c0.6,0.6,1,1.4,1,2.4c0,1.5-0.8,2.5-2.3,3l4.1,5h-2.8l-3.9-4.8h-0.6v4.8H2656.6z M2659,15.6h1.8c0.4,0,0.8-0.1,1.1-0.3c0.3-0.2,0.4-0.5,0.4-0.9s-0.1-0.7-0.4-0.9c-0.3-0.2-0.6-0.3-1.1-0.3h-1.8V15.6z"></path> <path d="M2666.8,22.4V11h2.3v11.4H2666.8z"></path> <path d="M2675.7,22.6c-1.4,0-2.5-0.4-3.3-1.3s-1.3-2-1.3-3.4V11h2.3V18c0,0.7,0.2,1.3,0.6,1.8c0.4,0.4,1,0.6,1.7,0.6 c0.7,0,1.3-0.2,1.7-0.6c0.4-0.4,0.6-1,0.6-1.8V11h2.3v6.9c0,1.4-0.4,2.5-1.3,3.4C2678.2,22.2,2677.1,22.6,2675.7,22.6z"></path> <path d="M2682.3,22.4V11h2.1l3.7,6l3.7-6h2.1v11.4h-2.3v-6.9l-2.7,4.4h-1.5l-2.7-4.4v6.9H2682.3z"></path> </g> <g class="st1"> <path d="M2713.2,23.3l6.2-13.1h2l-6.2,13.1H2713.2z"></path> <path d="M2719.2,23.3l6.2-13.1h2l-6.2,13.1H2719.2z"></path> </g> <g> <path d="M2747.5,22.4v-9.2h-3V11h8.4v2.2h-3.1v9.2H2747.5z"></path> <path d="M2751.6,22.4l4.9-11.4h2.1l4.9,11.4h-2.4l-1.1-2.6h-4.8l-1.1,2.6H2751.6z M2757.5,14.1l-1.6,3.7h3.1L2757.5,14.1z"></path> <path d="M2764.2,22.4V11h4.4c1,0,1.9,0.3,2.5,1c0.6,0.6,1,1.4,1,2.4c0,1.5-0.8,2.5-2.3,3l4.1,5h-2.8l-3.9-4.8h-0.6v4.8H2764.2z M2766.6,15.6h1.8c0.4,0,0.8-0.1,1.1-0.3c0.3-0.2,0.4-0.5,0.4-0.9s-0.1-0.7-0.4-0.9c-0.3-0.2-0.6-0.3-1.1-0.3h-1.8V15.6z"></path> <path d="M2779.4,22.6c-1.8,0-3.2-0.6-4.4-1.7c-1.2-1.1-1.8-2.5-1.8-4.2c0-1.6,0.6-3,1.7-4.2c1.1-1.1,2.6-1.7,4.3-1.7 c1.9,0,3.4,0.6,4.6,1.9l-1.6,1.6c-0.8-0.8-1.8-1.2-3-1.2c-1.1,0-1.9,0.4-2.6,1.1s-1,1.6-1,2.6c0,1,0.3,1.9,1,2.6 c0.7,0.7,1.6,1,2.8,1c1.1,0,1.9-0.2,2.4-0.6v-2h-2.4v-2.2h4.7v5.3c-0.5,0.5-1.2,0.9-2,1.2S2780.4,22.6,2779.4,22.6z"></path> <path d="M2785.8,22.4V11h7.1v2.2h-4.8v2.3h3.8v2.2h-3.8v2.4h4.8v2.2H2785.8z"></path> <path d="M2796.6,22.4v-9.2h-3V11h8.4v2.2h-3.1v9.2H2796.6z"></path> <path d="M2812.1,20.9c-1.1,1.1-2.5,1.7-4.2,1.7s-3-0.6-4.2-1.7c-1.1-1.1-1.7-2.5-1.7-4.2s0.6-3,1.7-4.2c1.1-1.1,2.5-1.7,4.2-1.7 s3,0.6,4.2,1.7c1.1,1.1,1.7,2.5,1.7,4.2S2813.2,19.7,2812.1,20.9z M2805.4,19.3c0.7,0.7,1.5,1.1,2.5,1.1s1.8-0.4,2.5-1.1 c0.7-0.7,1-1.6,1-2.6c0-1-0.3-1.9-1-2.6c-0.7-0.7-1.5-1.1-2.5-1.1s-1.8,0.4-2.5,1.1c-0.7,0.7-1,1.6-1,2.6 C2804.4,17.7,2804.7,18.6,2805.4,19.3z"></path> <path d="M2815.2,22.4V11h4.4c1,0,1.9,0.3,2.5,1c0.6,0.6,1,1.4,1,2.4c0,1.5-0.8,2.5-2.3,3l4.1,5h-2.8l-3.9-4.8h-0.6v4.8H2815.2z M2817.5,15.6h1.8c0.4,0,0.8-0.1,1.1-0.3c0.3-0.2,0.4-0.5,0.4-0.9s-0.1-0.7-0.4-0.9c-0.3-0.2-0.6-0.3-1.1-0.3h-1.8V15.6z"></path> <path d="M2825.3,22.4V11h2.3v11.4H2825.3z"></path> <path d="M2834.3,22.6c-1.4,0-2.5-0.4-3.3-1.3c-0.9-0.9-1.3-2-1.3-3.4V11h2.3V18c0,0.7,0.2,1.3,0.6,1.8c0.4,0.4,1,0.6,1.7,0.6 c0.7,0,1.3-0.2,1.7-0.6c0.4-0.4,0.6-1,0.6-1.8V11h2.3v6.9c0,1.4-0.4,2.5-1.3,3.4C2836.7,22.2,2835.6,22.6,2834.3,22.6z"></path> <path d="M2840.9,22.4V11h2.1l3.7,6l3.7-6h2.1v11.4h-2.3v-6.9l-2.7,4.4h-1.5l-2.7-4.4v6.9H2840.9z"></path> </g> <g class="st1"> <path d="M2871.7,23.3l6.2-13.1h2l-6.2,13.1H2871.7z"></path> <path d="M2877.7,23.3l6.2-13.1h2l-6.2,13.1H2877.7z"></path> </g> <g> <path d="M2907.5,22.4v-9.2h-3V11h8.4v2.2h-3.1v9.2H2907.5z"></path> <path d="M2911.6,22.4l4.9-11.4h2.1l4.9,11.4h-2.4l-1.1-2.6h-4.8l-1.1,2.6H2911.6z M2917.5,14.1l-1.6,3.7h3.1L2917.5,14.1z"></path> <path d="M2924.2,22.4V11h4.4c1,0,1.9,0.3,2.5,1c0.6,0.6,1,1.4,1,2.4c0,1.5-0.8,2.5-2.3,3l4.1,5h-2.8l-3.9-4.8h-0.6v4.8H2924.2z M2926.6,15.6h1.8c0.4,0,0.8-0.1,1.1-0.3c0.3-0.2,0.4-0.5,0.4-0.9s-0.1-0.7-0.4-0.9c-0.3-0.2-0.6-0.3-1.1-0.3h-1.8V15.6z"></path> <path d="M2939.4,22.6c-1.8,0-3.2-0.6-4.4-1.7c-1.2-1.1-1.8-2.5-1.8-4.2c0-1.6,0.6-3,1.7-4.2c1.1-1.1,2.6-1.7,4.3-1.7 c1.9,0,3.4,0.6,4.6,1.9l-1.6,1.6c-0.8-0.8-1.8-1.2-3-1.2c-1.1,0-1.9,0.4-2.6,1.1s-1,1.6-1,2.6c0,1,0.3,1.9,1,2.6 c0.7,0.7,1.6,1,2.8,1c1.1,0,1.9-0.2,2.4-0.6v-2h-2.4v-2.2h4.7v5.3c-0.5,0.5-1.2,0.9-2,1.2S2940.4,22.6,2939.4,22.6z"></path> <path d="M2945.8,22.4V11h7.1v2.2h-4.8v2.3h3.8v2.2h-3.8v2.4h4.8v2.2H2945.8z"></path> <path d="M2956.6,22.4v-9.2h-3V11h8.4v2.2h-3.1v9.2H2956.6z"></path> <path d="M2972.1,20.9c-1.1,1.1-2.5,1.7-4.2,1.7s-3-0.6-4.2-1.7c-1.1-1.1-1.7-2.5-1.7-4.2s0.6-3,1.7-4.2c1.1-1.1,2.5-1.7,4.2-1.7 s3,0.6,4.2,1.7c1.1,1.1,1.7,2.5,1.7,4.2S2973.2,19.7,2972.1,20.9z M2965.4,19.3c0.7,0.7,1.5,1.1,2.5,1.1s1.8-0.4,2.5-1.1 c0.7-0.7,1-1.6,1-2.6c0-1-0.3-1.9-1-2.6c-0.7-0.7-1.5-1.1-2.5-1.1s-1.8,0.4-2.5,1.1c-0.7,0.7-1,1.6-1,2.6 C2964.4,17.7,2964.7,18.6,2965.4,19.3z"></path> <path d="M2975.2,22.4V11h4.4c1,0,1.9,0.3,2.5,1c0.6,0.6,1,1.4,1,2.4c0,1.5-0.8,2.5-2.3,3l4.1,5h-2.8l-3.9-4.8h-0.6v4.8H2975.2z M2977.5,15.6h1.8c0.4,0,0.8-0.1,1.1-0.3c0.3-0.2,0.4-0.5,0.4-0.9s-0.1-0.7-0.4-0.9c-0.3-0.2-0.6-0.3-1.1-0.3h-1.8V15.6z"></path> <path d="M2985.3,22.4V11h2.3v11.4H2985.3z"></path> <path d="M2994.3,22.6c-1.4,0-2.5-0.4-3.3-1.3c-0.9-0.9-1.3-2-1.3-3.4V11h2.3V18c0,0.7,0.2,1.3,0.6,1.8c0.4,0.4,1,0.6,1.7,0.6 c0.7,0,1.3-0.2,1.7-0.6c0.4-0.4,0.6-1,0.6-1.8V11h2.3v6.9c0,1.4-0.4,2.5-1.3,3.4C2996.7,22.2,2995.6,22.6,2994.3,22.6z"></path> <path d="M3000.9,22.4V11h2.1l3.7,6l3.7-6h2.1v11.4h-2.3v-6.9l-2.7,4.4h-1.5l-2.7-4.4v6.9H3000.9z"></path> </g> <g class="st1"> <path d="M3031.7,23.3l6.2-13.1h2l-6.2,13.1H3031.7z"></path> <path d="M3037.7,23.3l6.2-13.1h2l-6.2,13.1H3037.7z"></path> </g> <g> <path d="M3067,22.4v-9.2h-3V11h8.4v2.2h-3.1v9.2H3067z"></path> <path d="M3071.1,22.4L3076,11h2.1l4.9,11.4h-2.4l-1.1-2.6h-4.8l-1.1,2.6H3071.1z M3077,14.1l-1.6,3.7h3.1L3077,14.1z"></path> <path d="M3083.7,22.4V11h4.4c1,0,1.9,0.3,2.5,1c0.6,0.6,1,1.4,1,2.4c0,1.5-0.8,2.5-2.3,3l4.1,5h-2.8l-3.9-4.8h-0.6v4.8H3083.7z M3086.1,15.6h1.8c0.4,0,0.8-0.1,1.1-0.3c0.3-0.2,0.4-0.5,0.4-0.9s-0.1-0.7-0.4-0.9c-0.3-0.2-0.6-0.3-1.1-0.3h-1.8V15.6z"></path> <path d="M3098.9,22.6c-1.8,0-3.2-0.6-4.4-1.7c-1.2-1.1-1.8-2.5-1.8-4.2c0-1.6,0.6-3,1.7-4.2c1.1-1.1,2.6-1.7,4.3-1.7 c1.9,0,3.4,0.6,4.6,1.9l-1.6,1.6c-0.8-0.8-1.8-1.2-3-1.2c-1.1,0-1.9,0.4-2.6,1.1s-1,1.6-1,2.6c0,1,0.3,1.9,1,2.6 c0.7,0.7,1.6,1,2.8,1c1.1,0,1.9-0.2,2.4-0.6v-2h-2.4v-2.2h4.7v5.3c-0.5,0.5-1.2,0.9-2,1.2S3099.9,22.6,3098.9,22.6z"></path> <path d="M3105.3,22.4V11h7.1v2.2h-4.8v2.3h3.8v2.2h-3.8v2.4h4.8v2.2H3105.3z"></path> <path d="M3116.1,22.4v-9.2h-3V11h8.4v2.2h-3.1v9.2H3116.1z"></path> <path d="M3131.6,20.9c-1.1,1.1-2.5,1.7-4.2,1.7s-3-0.6-4.2-1.7c-1.1-1.1-1.7-2.5-1.7-4.2s0.6-3,1.7-4.2c1.1-1.1,2.5-1.7,4.2-1.7 s3,0.6,4.2,1.7c1.1,1.1,1.7,2.5,1.7,4.2S3132.7,19.7,3131.6,20.9z M3124.9,19.3c0.7,0.7,1.5,1.1,2.5,1.1s1.8-0.4,2.5-1.1 c0.7-0.7,1-1.6,1-2.6c0-1-0.3-1.9-1-2.6c-0.7-0.7-1.5-1.1-2.5-1.1s-1.8,0.4-2.5,1.1c-0.7,0.7-1,1.6-1,2.6 C3123.9,17.7,3124.2,18.6,3124.9,19.3z"></path> <path d="M3134.7,22.4V11h4.4c1,0,1.9,0.3,2.5,1c0.6,0.6,1,1.4,1,2.4c0,1.5-0.8,2.5-2.3,3l4.1,5h-2.8l-3.9-4.8h-0.6v4.8H3134.7z M3137,15.6h1.8c0.4,0,0.8-0.1,1.1-0.3c0.3-0.2,0.4-0.5,0.4-0.9s-0.1-0.7-0.4-0.9c-0.3-0.2-0.6-0.3-1.1-0.3h-1.8V15.6z"></path> <path d="M3144.8,22.4V11h2.3v11.4H3144.8z"></path> <path d="M3153.8,22.6c-1.4,0-2.5-0.4-3.3-1.3s-1.3-2-1.3-3.4V11h2.3V18c0,0.7,0.2,1.3,0.6,1.8c0.4,0.4,1,0.6,1.7,0.6 c0.7,0,1.3-0.2,1.7-0.6c0.4-0.4,0.6-1,0.6-1.8V11h2.3v6.9c0,1.4-0.4,2.5-1.3,3.4C3156.2,22.2,3155.1,22.6,3153.8,22.6z"></path> <path d="M3160.4,22.4V11h2.1l3.7,6l3.7-6h2.1v11.4h-2.3v-6.9l-2.7,4.4h-1.5l-2.7-4.4v6.9H3160.4z"></path> </g> <g class="st1"> <path d="M3191.2,23.3l6.2-13.1h2l-6.2,13.1H3191.2z"></path> <path d="M3197.2,23.3l6.2-13.1h2l-6.2,13.1H3197.2z"></path> </g> <g> <path d="M3224,22.4v-9.2h-3V11h8.4v2.2h-3.1v9.2H3224z"></path> <path d="M3228.2,22.4l4.9-11.4h2.1l4.9,11.4h-2.4l-1.1-2.6h-4.8l-1.1,2.6H3228.2z M3234.1,14.1l-1.6,3.7h3.1L3234.1,14.1z"></path> <path d="M3240.8,22.4V11h4.4c1,0,1.9,0.3,2.5,1c0.6,0.6,1,1.4,1,2.4c0,1.5-0.8,2.5-2.3,3l4.1,5h-2.8l-3.9-4.8h-0.6v4.8H3240.8z M3243.2,15.6h1.8c0.4,0,0.8-0.1,1.1-0.3c0.3-0.2,0.4-0.5,0.4-0.9s-0.1-0.7-0.4-0.9c-0.3-0.2-0.6-0.3-1.1-0.3h-1.8V15.6z"></path> <path d="M3256,22.6c-1.8,0-3.2-0.6-4.4-1.7c-1.2-1.1-1.8-2.5-1.8-4.2c0-1.6,0.6-3,1.7-4.2c1.1-1.1,2.6-1.7,4.3-1.7 c1.9,0,3.4,0.6,4.6,1.9l-1.6,1.6c-0.8-0.8-1.8-1.2-3-1.2c-1.1,0-1.9,0.4-2.6,1.1s-1,1.6-1,2.6c0,1,0.3,1.9,1,2.6 c0.7,0.7,1.6,1,2.8,1c1.1,0,1.9-0.2,2.4-0.6v-2h-2.4v-2.2h4.7v5.3c-0.5,0.5-1.2,0.9-2,1.2S3257,22.6,3256,22.6z"></path> <path d="M3262.4,22.4V11h7.1v2.2h-4.8v2.3h3.8v2.2h-3.8v2.4h4.8v2.2H3262.4z"></path> <path d="M3273.2,22.4v-9.2h-3V11h8.4v2.2h-3.1v9.2H3273.2z"></path> <path d="M3288.7,20.9c-1.1,1.1-2.5,1.7-4.2,1.7s-3-0.6-4.2-1.7c-1.1-1.1-1.7-2.5-1.7-4.2s0.6-3,1.7-4.2c1.1-1.1,2.5-1.7,4.2-1.7 s3,0.6,4.2,1.7c1.1,1.1,1.7,2.5,1.7,4.2S3289.8,19.7,3288.7,20.9z M3282,19.3c0.7,0.7,1.5,1.1,2.5,1.1s1.8-0.4,2.5-1.1 c0.7-0.7,1-1.6,1-2.6c0-1-0.3-1.9-1-2.6c-0.7-0.7-1.5-1.1-2.5-1.1s-1.8,0.4-2.5,1.1c-0.7,0.7-1,1.6-1,2.6 C3281,17.7,3281.3,18.6,3282,19.3z"></path> <path d="M3291.8,22.4V11h4.4c1,0,1.9,0.3,2.5,1c0.6,0.6,1,1.4,1,2.4c0,1.5-0.8,2.5-2.3,3l4.1,5h-2.8l-3.9-4.8h-0.6v4.8H3291.8z M3294.1,15.6h1.8c0.4,0,0.8-0.1,1.1-0.3c0.3-0.2,0.4-0.5,0.4-0.9s-0.1-0.7-0.4-0.9c-0.3-0.2-0.6-0.3-1.1-0.3h-1.8V15.6z"></path> <path d="M3301.9,22.4V11h2.3v11.4H3301.9z"></path> <path d="M3310.9,22.6c-1.4,0-2.5-0.4-3.3-1.3c-0.9-0.9-1.3-2-1.3-3.4V11h2.3V18c0,0.7,0.2,1.3,0.6,1.8c0.4,0.4,1,0.6,1.7,0.6 c0.7,0,1.3-0.2,1.7-0.6c0.4-0.4,0.6-1,0.6-1.8V11h2.3v6.9c0,1.4-0.4,2.5-1.3,3.4C3313.3,22.2,3312.2,22.6,3310.9,22.6z"></path> <path d="M3317.4,22.4V11h2.1l3.7,6l3.7-6h2.1v11.4h-2.3v-6.9l-2.7,4.4h-1.5l-2.7-4.4v6.9H3317.4z"></path> </g> <g class="st1"> <path d="M3348.3,23.3l6.2-13.1h2l-6.2,13.1H3348.3z"></path> <path d="M3354.3,23.3l6.2-13.1h2l-6.2,13.1H3354.3z"></path> </g> <g> <path d="M3384,22.4v-9.2h-3V11h8.4v2.2h-3.1v9.2H3384z"></path> <path d="M3388.2,22.4l4.9-11.4h2.1l4.9,11.4h-2.4l-1.1-2.6h-4.8l-1.1,2.6H3388.2z M3394.1,14.1l-1.6,3.7h3.1L3394.1,14.1z"></path> <path d="M3400.8,22.4V11h4.4c1,0,1.9,0.3,2.5,1c0.6,0.6,1,1.4,1,2.4c0,1.5-0.8,2.5-2.3,3l4.1,5h-2.8l-3.9-4.8h-0.6v4.8H3400.8z M3403.2,15.6h1.8c0.4,0,0.8-0.1,1.1-0.3c0.3-0.2,0.4-0.5,0.4-0.9s-0.1-0.7-0.4-0.9c-0.3-0.2-0.6-0.3-1.1-0.3h-1.8V15.6z"></path> <path d="M3416,22.6c-1.8,0-3.2-0.6-4.4-1.7c-1.2-1.1-1.8-2.5-1.8-4.2c0-1.6,0.6-3,1.7-4.2c1.1-1.1,2.6-1.7,4.3-1.7 c1.9,0,3.4,0.6,4.6,1.9l-1.6,1.6c-0.8-0.8-1.8-1.2-3-1.2c-1.1,0-1.9,0.4-2.6,1.1s-1,1.6-1,2.6c0,1,0.3,1.9,1,2.6 c0.7,0.7,1.6,1,2.8,1c1.1,0,1.9-0.2,2.4-0.6v-2h-2.4v-2.2h4.7v5.3c-0.5,0.5-1.2,0.9-2,1.2S3417,22.6,3416,22.6z"></path> <path d="M3422.4,22.4V11h7.1v2.2h-4.8v2.3h3.8v2.2h-3.8v2.4h4.8v2.2H3422.4z"></path> <path d="M3433.2,22.4v-9.2h-3V11h8.4v2.2h-3.1v9.2H3433.2z"></path> <path d="M3448.7,20.9c-1.1,1.1-2.5,1.7-4.2,1.7s-3-0.6-4.2-1.7c-1.1-1.1-1.7-2.5-1.7-4.2s0.6-3,1.7-4.2c1.1-1.1,2.5-1.7,4.2-1.7 s3,0.6,4.2,1.7c1.1,1.1,1.7,2.5,1.7,4.2S3449.8,19.7,3448.7,20.9z M3442,19.3c0.7,0.7,1.5,1.1,2.5,1.1s1.8-0.4,2.5-1.1 c0.7-0.7,1-1.6,1-2.6c0-1-0.3-1.9-1-2.6c-0.7-0.7-1.5-1.1-2.5-1.1s-1.8,0.4-2.5,1.1c-0.7,0.7-1,1.6-1,2.6 C3441,17.7,3441.3,18.6,3442,19.3z"></path> <path d="M3451.8,22.4V11h4.4c1,0,1.9,0.3,2.5,1c0.6,0.6,1,1.4,1,2.4c0,1.5-0.8,2.5-2.3,3l4.1,5h-2.8l-3.9-4.8h-0.6v4.8H3451.8z M3454.1,15.6h1.8c0.4,0,0.8-0.1,1.1-0.3c0.3-0.2,0.4-0.5,0.4-0.9s-0.1-0.7-0.4-0.9c-0.3-0.2-0.6-0.3-1.1-0.3h-1.8V15.6z"></path> <path d="M3461.9,22.4V11h2.3v11.4H3461.9z"></path> <path d="M3470.9,22.6c-1.4,0-2.5-0.4-3.3-1.3c-0.9-0.9-1.3-2-1.3-3.4V11h2.3V18c0,0.7,0.2,1.3,0.6,1.8c0.4,0.4,1,0.6,1.7,0.6 c0.7,0,1.3-0.2,1.7-0.6c0.4-0.4,0.6-1,0.6-1.8V11h2.3v6.9c0,1.4-0.4,2.5-1.3,3.4C3473.3,22.2,3472.2,22.6,3470.9,22.6z"></path> <path d="M3477.4,22.4V11h2.1l3.7,6l3.7-6h2.1v11.4h-2.3v-6.9l-2.7,4.4h-1.5l-2.7-4.4v6.9H3477.4z"></path> </g> <g class="st1"> <path d="M3508.3,23.3l6.2-13.1h2l-6.2,13.1H3508.3z"></path> <path d="M3514.3,23.3l6.2-13.1h2l-6.2,13.1H3514.3z"></path> </g> <g> <path d="M3543.5,22.4v-9.2h-3V11h8.4v2.2h-3.1v9.2H3543.5z"></path> <path d="M3547.7,22.4l4.9-11.4h2.1l4.9,11.4h-2.4l-1.1-2.6h-4.8l-1.1,2.6H3547.7z M3553.6,14.1l-1.6,3.7h3.1L3553.6,14.1z"></path> <path d="M3560.3,22.4V11h4.4c1,0,1.9,0.3,2.5,1c0.6,0.6,1,1.4,1,2.4c0,1.5-0.8,2.5-2.3,3l4.1,5h-2.8l-3.9-4.8h-0.6v4.8H3560.3z M3562.7,15.6h1.8c0.4,0,0.8-0.1,1.1-0.3c0.3-0.2,0.4-0.5,0.4-0.9s-0.1-0.7-0.4-0.9c-0.3-0.2-0.6-0.3-1.1-0.3h-1.8V15.6z"></path> <path d="M3575.5,22.6c-1.8,0-3.2-0.6-4.4-1.7c-1.2-1.1-1.8-2.5-1.8-4.2c0-1.6,0.6-3,1.7-4.2c1.1-1.1,2.6-1.7,4.3-1.7 c1.9,0,3.4,0.6,4.6,1.9l-1.6,1.6c-0.8-0.8-1.8-1.2-3-1.2c-1.1,0-1.9,0.4-2.6,1.1s-1,1.6-1,2.6c0,1,0.3,1.9,1,2.6 c0.7,0.7,1.6,1,2.8,1c1.1,0,1.9-0.2,2.4-0.6v-2h-2.4v-2.2h4.7v5.3c-0.5,0.5-1.2,0.9-2,1.2S3576.5,22.6,3575.5,22.6z"></path> <path d="M3581.9,22.4V11h7.1v2.2h-4.8v2.3h3.8v2.2h-3.8v2.4h4.8v2.2H3581.9z"></path> <path d="M3592.7,22.4v-9.2h-3V11h8.4v2.2h-3.1v9.2H3592.7z"></path> <path d="M3608.2,20.9c-1.1,1.1-2.5,1.7-4.2,1.7s-3-0.6-4.2-1.7c-1.1-1.1-1.7-2.5-1.7-4.2s0.6-3,1.7-4.2c1.1-1.1,2.5-1.7,4.2-1.7 s3,0.6,4.2,1.7c1.1,1.1,1.7,2.5,1.7,4.2S3609.3,19.7,3608.2,20.9z M3601.5,19.3c0.7,0.7,1.5,1.1,2.5,1.1s1.8-0.4,2.5-1.1 c0.7-0.7,1-1.6,1-2.6c0-1-0.3-1.9-1-2.6c-0.7-0.7-1.5-1.1-2.5-1.1s-1.8,0.4-2.5,1.1c-0.7,0.7-1,1.6-1,2.6 C3600.5,17.7,3600.8,18.6,3601.5,19.3z"></path> <path d="M3611.3,22.4V11h4.4c1,0,1.9,0.3,2.5,1c0.6,0.6,1,1.4,1,2.4c0,1.5-0.8,2.5-2.3,3l4.1,5h-2.8l-3.9-4.8h-0.6v4.8H3611.3z M3613.6,15.6h1.8c0.4,0,0.8-0.1,1.1-0.3c0.3-0.2,0.4-0.5,0.4-0.9s-0.1-0.7-0.4-0.9c-0.3-0.2-0.6-0.3-1.1-0.3h-1.8V15.6z"></path> <path d="M3621.4,22.4V11h2.3v11.4H3621.4z"></path> <path d="M3630.4,22.6c-1.4,0-2.5-0.4-3.3-1.3s-1.3-2-1.3-3.4V11h2.3V18c0,0.7,0.2,1.3,0.6,1.8c0.4,0.4,1,0.6,1.7,0.6 c0.7,0,1.3-0.2,1.7-0.6c0.4-0.4,0.6-1,0.6-1.8V11h2.3v6.9c0,1.4-0.4,2.5-1.3,3.4C3632.8,22.2,3631.7,22.6,3630.4,22.6z"></path> <path d="M3636.9,22.4V11h2.1l3.7,6l3.7-6h2.1v11.4h-2.3v-6.9l-2.7,4.4h-1.5l-2.7-4.4v6.9H3636.9z"></path> </g> <g class="st1"> <path d="M3667.8,23.3l6.2-13.1h2l-6.2,13.1H3667.8z"></path> <path d="M3673.8,23.3l6.2-13.1h2l-6.2,13.1H3673.8z"></path> </g> <g> <path d="M1953.5,22.4v-9.2h-3V11h8.4v2.2h-3.1v9.2H1953.5z"></path> <path d="M1957.7,22.4l4.9-11.4h2.1l4.9,11.4h-2.4l-1.1-2.6h-4.8l-1.1,2.6H1957.7z M1963.6,14.1l-1.6,3.7h3.1L1963.6,14.1z"></path> <path d="M1970.3,22.4V11h4.4c1,0,1.9,0.3,2.5,1c0.6,0.6,1,1.4,1,2.4c0,1.5-0.8,2.5-2.3,3l4.1,5h-2.8l-3.9-4.8h-0.6v4.8H1970.3z M1972.6,15.6h1.8c0.4,0,0.8-0.1,1.1-0.3c0.3-0.2,0.4-0.5,0.4-0.9s-0.1-0.7-0.4-0.9c-0.3-0.2-0.6-0.3-1.1-0.3h-1.8V15.6z"></path> <path d="M1985.5,22.6c-1.8,0-3.2-0.6-4.4-1.7c-1.2-1.1-1.8-2.5-1.8-4.2c0-1.6,0.6-3,1.7-4.2c1.1-1.1,2.6-1.7,4.3-1.7 c1.9,0,3.4,0.6,4.6,1.9l-1.6,1.6c-0.8-0.8-1.8-1.2-3-1.2c-1.1,0-1.9,0.4-2.6,1.1s-1,1.6-1,2.6c0,1,0.3,1.9,1,2.6 c0.7,0.7,1.6,1,2.8,1c1.1,0,1.9-0.2,2.4-0.6v-2h-2.4v-2.2h4.7v5.3c-0.5,0.5-1.2,0.9-2,1.2S1986.4,22.6,1985.5,22.6z"></path> <path d="M1991.9,22.4V11h7.1v2.2h-4.8v2.3h3.8v2.2h-3.8v2.4h4.8v2.2H1991.9z"></path> <path d="M2002.6,22.4v-9.2h-3V11h8.4v2.2h-3.1v9.2H2002.6z"></path> <path d="M2018.2,20.9c-1.1,1.1-2.5,1.7-4.2,1.7s-3-0.6-4.2-1.7c-1.1-1.1-1.7-2.5-1.7-4.2s0.6-3,1.7-4.2c1.1-1.1,2.5-1.7,4.2-1.7 s3,0.6,4.2,1.7c1.1,1.1,1.7,2.5,1.7,4.2S2019.3,19.7,2018.2,20.9z M2011.5,19.3c0.7,0.7,1.5,1.1,2.5,1.1s1.8-0.4,2.5-1.1 c0.7-0.7,1-1.6,1-2.6c0-1-0.3-1.9-1-2.6c-0.7-0.7-1.5-1.1-2.5-1.1s-1.8,0.4-2.5,1.1c-0.7,0.7-1,1.6-1,2.6 C2010.5,17.7,2010.8,18.6,2011.5,19.3z"></path> <path d="M2021.2,22.4V11h4.4c1,0,1.9,0.3,2.5,1c0.6,0.6,1,1.4,1,2.4c0,1.5-0.8,2.5-2.3,3l4.1,5h-2.8l-3.9-4.8h-0.6v4.8H2021.2z M2023.6,15.6h1.8c0.4,0,0.8-0.1,1.1-0.3c0.3-0.2,0.4-0.5,0.4-0.9s-0.1-0.7-0.4-0.9c-0.3-0.2-0.6-0.3-1.1-0.3h-1.8V15.6z"></path> <path d="M2031.4,22.4V11h2.3v11.4H2031.4z"></path> <path d="M2040.3,22.6c-1.4,0-2.5-0.4-3.3-1.3c-0.9-0.9-1.3-2-1.3-3.4V11h2.3V18c0,0.7,0.2,1.3,0.6,1.8c0.4,0.4,1,0.6,1.7,0.6 c0.7,0,1.3-0.2,1.7-0.6c0.4-0.4,0.6-1,0.6-1.8V11h2.3v6.9c0,1.4-0.4,2.5-1.3,3.4C2042.8,22.2,2041.7,22.6,2040.3,22.6z"></path> <path d="M2046.9,22.4V11h2.1l3.7,6l3.7-6h2.1v11.4h-2.3v-6.9l-2.7,4.4h-1.5l-2.7-4.4v6.9H2046.9z"></path> </g> <g class="st1"> <path d="M2077.8,23.3l6.2-13.1h2l-6.2,13.1H2077.8z"></path> <path d="M2083.8,23.3l6.2-13.1h2l-6.2,13.1H2083.8z"></path> </g> <g> <path d="M2113,22.4v-9.2h-3V11h8.4v2.2h-3.1v9.2H2113z"></path> <path d="M2117.2,22.4l4.9-11.4h2.1l4.9,11.4h-2.4l-1.1-2.6h-4.8l-1.1,2.6H2117.2z M2123.1,14.1l-1.6,3.7h3.1L2123.1,14.1z"></path> <path d="M2129.8,22.4V11h4.4c1,0,1.9,0.3,2.5,1c0.6,0.6,1,1.4,1,2.4c0,1.5-0.8,2.5-2.3,3l4.1,5h-2.8l-3.9-4.8h-0.6v4.8H2129.8z M2132.1,15.6h1.8c0.4,0,0.8-0.1,1.1-0.3c0.3-0.2,0.4-0.5,0.4-0.9s-0.1-0.7-0.4-0.9c-0.3-0.2-0.6-0.3-1.1-0.3h-1.8V15.6z"></path> <path d="M2145,22.6c-1.8,0-3.2-0.6-4.4-1.7c-1.2-1.1-1.8-2.5-1.8-4.2c0-1.6,0.6-3,1.7-4.2c1.1-1.1,2.6-1.7,4.3-1.7 c1.9,0,3.4,0.6,4.6,1.9l-1.6,1.6c-0.8-0.8-1.8-1.2-3-1.2c-1.1,0-1.9,0.4-2.6,1.1s-1,1.6-1,2.6c0,1,0.3,1.9,1,2.6 c0.7,0.7,1.6,1,2.8,1c1.1,0,1.9-0.2,2.4-0.6v-2h-2.4v-2.2h4.7v5.3c-0.5,0.5-1.2,0.9-2,1.2S2145.9,22.6,2145,22.6z"></path> <path d="M2151.4,22.4V11h7.1v2.2h-4.8v2.3h3.8v2.2h-3.8v2.4h4.8v2.2H2151.4z"></path> <path d="M2162.1,22.4v-9.2h-3V11h8.4v2.2h-3.1v9.2H2162.1z"></path> <path d="M2177.7,20.9c-1.1,1.1-2.5,1.7-4.2,1.7s-3-0.6-4.2-1.7c-1.1-1.1-1.7-2.5-1.7-4.2s0.6-3,1.7-4.2c1.1-1.1,2.5-1.7,4.2-1.7 s3,0.6,4.2,1.7c1.1,1.1,1.7,2.5,1.7,4.2S2178.8,19.7,2177.7,20.9z M2171,19.3c0.7,0.7,1.5,1.1,2.5,1.1s1.8-0.4,2.5-1.1 c0.7-0.7,1-1.6,1-2.6c0-1-0.3-1.9-1-2.6c-0.7-0.7-1.5-1.1-2.5-1.1s-1.8,0.4-2.5,1.1c-0.7,0.7-1,1.6-1,2.6 C2170,17.7,2170.3,18.6,2171,19.3z"></path> <path d="M2180.7,22.4V11h4.4c1,0,1.9,0.3,2.5,1c0.6,0.6,1,1.4,1,2.4c0,1.5-0.8,2.5-2.3,3l4.1,5h-2.8l-3.9-4.8h-0.6v4.8H2180.7z M2183.1,15.6h1.8c0.4,0,0.8-0.1,1.1-0.3c0.3-0.2,0.4-0.5,0.4-0.9s-0.1-0.7-0.4-0.9c-0.3-0.2-0.6-0.3-1.1-0.3h-1.8V15.6z"></path> <path d="M2190.9,22.4V11h2.3v11.4H2190.9z"></path> <path d="M2199.8,22.6c-1.4,0-2.5-0.4-3.3-1.3s-1.3-2-1.3-3.4V11h2.3V18c0,0.7,0.2,1.3,0.6,1.8c0.4,0.4,1,0.6,1.7,0.6 c0.7,0,1.3-0.2,1.7-0.6c0.4-0.4,0.6-1,0.6-1.8V11h2.3v6.9c0,1.4-0.4,2.5-1.3,3.4C2202.3,22.2,2201.2,22.6,2199.8,22.6z"></path> <path d="M2206.4,22.4V11h2.1l3.7,6l3.7-6h2.1v11.4h-2.3v-6.9l-2.7,4.4h-1.5l-2.7-4.4v6.9H2206.4z"></path> </g> <g class="st1"> <path d="M2237.3,23.3l6.2-13.1h2l-6.2,13.1H2237.3z"></path> <path d="M2243.3,23.3l6.2-13.1h2l-6.2,13.1H2243.3z"></path> </g> </svg> 