<?xml version="1.0" encoding="UTF-8"?> <svg xmlns="http://www.w3.org/2000/svg" width="48" height="48" viewBox="0 0 48 48" fill="none"> <path fill-rule="evenodd" clip-rule="evenodd" d="M43.6284 44.7432L1 2.43898L2.38942 1L44.7367 43.0253L44.5703 1.27008L46.5703 1.26212L46.7512 46.6464L46.2305 46.6485V46.7432H1.24413V44.7432H43.6284Z" fill="#FFCF52"></path> <path d="M1 2.43898L0.762603 2.20976L0.536501 2.44393L0.767547 2.67322L1 2.43898ZM43.6284 44.7432V45.0732H44.4294L43.8608 44.5089L43.6284 44.7432ZM2.38942 1L2.62188 0.765766L2.38441 0.530106L2.15203 0.770779L2.38942 1ZM44.7367 43.0253L44.5043 43.2595L45.0699 43.8208L45.0667 43.0239L44.7367 43.0253ZM44.5703 1.27008L44.569 0.940087L44.239 0.941402L44.2403 1.2714L44.5703 1.27008ZM46.5703 1.26212L46.9003 1.2608L46.899 0.930803L46.569 0.932118L46.5703 1.26212ZM46.7512 46.6464L46.7525 46.9764L47.0825 46.9751L47.0812 46.6451L46.7512 46.6464ZM46.2305 46.6485L46.2292 46.3185L45.9005 46.3198V46.6485H46.2305ZM46.2305 46.7432V47.0732H46.5605V46.7432H46.2305ZM1.24413 46.7432H0.914125V47.0732H1.24413V46.7432ZM1.24413 44.7432V44.4132H0.914125V44.7432H1.24413ZM0.767547 2.67322L43.3959 44.9774L43.8608 44.5089L1.23245 2.20475L0.767547 2.67322ZM2.15203 0.770779L0.762603 2.20976L1.2374 2.6682L2.62682 1.22922L2.15203 0.770779ZM44.9692 42.791L2.62188 0.765766L2.15697 1.23423L44.5043 43.2595L44.9692 42.791ZM44.2403 1.2714L44.4067 43.0266L45.0667 43.0239L44.9003 1.26877L44.2403 1.2714ZM46.569 0.932118L44.569 0.940087L44.5716 1.60008L46.5716 1.59211L46.569 0.932118ZM47.0812 46.6451L46.9003 1.2608L46.2403 1.26343L46.4212 46.6477L47.0812 46.6451ZM46.2318 46.9785L46.7525 46.9764L46.7499 46.3164L46.2292 46.3185L46.2318 46.9785ZM45.9005 46.6485V46.7432H46.5605V46.6485H45.9005ZM46.2305 46.4132H1.24413V47.0732H46.2305V46.4132ZM1.57413 46.7432V44.7432H0.914125V46.7432H1.57413ZM1.24413 45.0732H43.6284V44.4132H1.24413V45.0732Z" fill="#FFCF52"></path> </svg> 