<?xml version="1.0" encoding="UTF-8"?> <!-- Generator: Adobe Illustrator 22.1.0, SVG Export Plug-In . SVG Version: 6.00 Build 0) --> <svg xmlns="http://www.w3.org/2000/svg" xmlns:xlink="http://www.w3.org/1999/xlink" id="Слой_1" x="0px" y="0px" viewBox="0 0 3781.7 33.3" style="enable-background:new 0 0 3781.7 33.3;" xml:space="preserve"> <style type="text/css"> .st0{fill:#1E1E1E;} .st1{fill:#414141;} .st2{opacity:0.99;} </style> <rect class="st0" width="3781.7" height="33.3"></rect> <g> <path class="st1" d="M926.3,22.3V10.9h4.2c0.9,0,1.7,0.3,2.4,1c0.7,0.6,1,1.4,1,2.3c0,0.8-0.3,1.5-0.9,2c1.1,0.6,1.7,1.5,1.7,2.7 c0,0.9-0.3,1.7-1,2.4c-0.7,0.6-1.5,1-2.5,1H926.3z M928.6,15.6h1.6c0.4,0,0.7-0.1,1-0.4c0.2-0.2,0.4-0.5,0.4-0.9 c0-0.4-0.1-0.7-0.4-0.9c-0.3-0.3-0.6-0.4-1-0.4h-1.6V15.6z M928.6,20.2h2.3c0.4,0,0.8-0.1,1-0.4c0.3-0.2,0.4-0.6,0.4-0.9 s-0.1-0.7-0.4-0.9c-0.3-0.2-0.6-0.4-1-0.4h-2.3V20.2z"></path> <path class="st1" d="M936.5,22.3V10.9h2.3v9.2h4.9v2.2H936.5z"></path> <path class="st1" d="M944.6,22.3l4.9-11.4h2.1l4.9,11.4h-2.4l-1.1-2.6h-4.8l-1.1,2.6H944.6z M950.6,14l-1.6,3.7h3.1L950.6,14z"></path> <path class="st1" d="M962.5,22.5c-1.6,0-3-0.6-4.2-1.7c-1.1-1.1-1.7-2.5-1.7-4.2s0.6-3,1.7-4.2c1.1-1.1,2.5-1.7,4.2-1.7 c1.1,0,2.2,0.3,3.1,0.8c0.9,0.5,1.7,1.3,2.1,2.2l-2,1.1c-0.7-1.3-1.8-1.9-3.2-1.9c-1,0-1.8,0.4-2.5,1.1c-0.7,0.7-1,1.6-1,2.6 c0,1,0.3,1.9,1,2.6c0.7,0.7,1.5,1.1,2.5,1.1c1.4,0,2.5-0.6,3.2-1.9l2,1.1c-0.5,0.9-1.2,1.7-2.1,2.2S963.7,22.5,962.5,22.5z"></path> <path class="st1" d="M976.7,22.3l-4.9-5.2v5.2h-2.3V10.9h2.3v4.8l4.1-4.8h2.9l-4.7,5.5l5.6,5.9H976.7z"></path> <path class="st1" d="M984.5,22.3V10.9h6.9v2.2h-4.6v2.4h3.6v2.2h-3.6v4.6H984.5z"></path> <path class="st1" d="M993.1,22.3V10.9h4.4c1,0,1.9,0.3,2.5,1c0.6,0.6,1,1.4,1,2.4c0,1.5-0.8,2.5-2.3,3l4.1,5h-2.8l-3.9-4.8h-0.6 v4.8H993.1z M995.4,15.5h1.8c0.4,0,0.8-0.1,1.1-0.3c0.3-0.2,0.4-0.5,0.4-0.9s-0.1-0.7-0.4-0.9c-0.3-0.2-0.6-0.3-1.1-0.3h-1.8V15.5z "></path> <path class="st1" d="M1003.9,22.3V10.9h2.3v11.4H1003.9z"></path> <path class="st1" d="M1008.8,22.3V10.9h3.7c1.6,0,3,0.5,4.1,1.6c1.1,1.1,1.7,2.4,1.7,4c0,1.6-0.6,2.9-1.7,4 c-1.1,1.1-2.5,1.6-4.1,1.6H1008.8z M1011.1,20.2h1.4c1,0,1.9-0.3,2.5-1c0.7-0.7,1-1.5,1-2.5c0-1-0.3-1.8-1-2.5 c-0.7-0.7-1.5-1-2.5-1h-1.4V20.2z"></path> <path class="st1" d="M1018.6,22.3l4.9-11.4h2.1l4.9,11.4h-2.4l-1.1-2.6h-4.8l-1.1,2.6H1018.6z M1024.5,14l-1.6,3.7h3.1L1024.5,14z"></path> <path class="st1" d="M1033.5,22.3v-4.8l-4.2-6.6h2.7l2.7,4.3l2.7-4.3h2.7l-4.2,6.6v4.8H1033.5z"></path> <path class="st1" d="M1048.7,22.5c-0.9,0-1.7-0.2-2.4-0.5s-1.3-0.9-1.7-1.5l1.8-1.5c0.3,0.4,0.6,0.7,1.1,1s0.9,0.4,1.4,0.4 c0.5,0,0.8-0.1,1.1-0.3c0.3-0.2,0.4-0.5,0.4-0.8c0-0.3-0.1-0.6-0.4-0.8s-0.7-0.4-1.2-0.6l-1-0.3c-1.9-0.7-2.8-1.7-2.8-3.2 c0-1,0.4-1.9,1.1-2.5c0.7-0.6,1.6-0.9,2.8-0.9c1.4,0,2.6,0.5,3.6,1.6l-1.6,1.6c-0.5-0.7-1.2-1-2-1c-0.4,0-0.8,0.1-1.1,0.3 c-0.3,0.2-0.4,0.4-0.4,0.7c0,0.3,0.1,0.6,0.4,0.8c0.3,0.2,0.7,0.4,1.4,0.6l0.9,0.3c1.8,0.7,2.7,1.8,2.7,3.4c0,1-0.4,1.8-1.1,2.5 S1049.8,22.5,1048.7,22.5z"></path> <path class="st1" d="M1053.2,22.3l4.9-11.4h2.1l4.9,11.4h-2.4l-1.1-2.6h-4.8l-1.1,2.6H1053.2z M1059.1,14l-1.6,3.7h3.1L1059.1,14z"></path> <path class="st1" d="M1066.4,22.3V10.9h2.3v9.2h4.9v2.2H1066.4z"></path> <path class="st1" d="M1075.1,22.3V10.9h7.1v2.2h-4.8v2.3h3.8v2.2h-3.8v2.4h4.8v2.2H1075.1z"></path> <path class="st1" d="M1087.7,22.5c-0.9,0-1.7-0.2-2.4-0.5s-1.3-0.9-1.7-1.5l1.8-1.5c0.3,0.4,0.6,0.7,1.1,1s0.9,0.4,1.4,0.4 c0.5,0,0.8-0.1,1.1-0.3c0.3-0.2,0.4-0.5,0.4-0.8c0-0.3-0.1-0.6-0.4-0.8s-0.7-0.4-1.2-0.6l-1-0.3c-1.9-0.7-2.8-1.7-2.8-3.2 c0-1,0.4-1.9,1.1-2.5c0.7-0.6,1.6-0.9,2.8-0.9c1.4,0,2.6,0.5,3.6,1.6l-1.6,1.6c-0.5-0.7-1.2-1-2-1c-0.4,0-0.8,0.1-1.1,0.3 c-0.3,0.2-0.4,0.4-0.4,0.7c0,0.3,0.1,0.6,0.4,0.8c0.3,0.2,0.7,0.4,1.4,0.6l0.9,0.3c1.8,0.7,2.7,1.8,2.7,3.4c0,1-0.4,1.8-1.1,2.5 S1088.8,22.5,1087.7,22.5z"></path> </g> <g class="st2"> <path class="st1" d="M1113.3,23.2l6.2-13.1h2l-6.2,13.1H1113.3z"></path> <path class="st1" d="M1119.3,23.2l6.2-13.1h2l-6.2,13.1H1119.3z"></path> </g> <g> <path class="st1" d="M1148.9,22.3V10.9h4.2c0.9,0,1.7,0.3,2.4,1c0.7,0.6,1,1.4,1,2.3c0,0.8-0.3,1.5-0.9,2c1.1,0.6,1.7,1.5,1.7,2.7 c0,0.9-0.3,1.7-1,2.4c-0.7,0.6-1.5,1-2.5,1H1148.9z M1151.3,15.6h1.6c0.4,0,0.7-0.1,1-0.4c0.2-0.2,0.4-0.5,0.4-0.9 c0-0.4-0.1-0.7-0.4-0.9c-0.3-0.3-0.6-0.4-1-0.4h-1.6V15.6z M1151.3,20.2h2.3c0.4,0,0.8-0.1,1-0.4c0.3-0.2,0.4-0.6,0.4-0.9 s-0.1-0.7-0.4-0.9c-0.3-0.2-0.6-0.4-1-0.4h-2.3V20.2z"></path> <path class="st1" d="M1159.2,22.3V10.9h2.3v9.2h4.9v2.2H1159.2z"></path> <path class="st1" d="M1167.3,22.3l4.9-11.4h2.1l4.9,11.4h-2.4l-1.1-2.6h-4.8l-1.1,2.6H1167.3z M1173.2,14l-1.6,3.7h3.1L1173.2,14z"></path> <path class="st1" d="M1185.2,22.5c-1.6,0-3-0.6-4.2-1.7c-1.1-1.1-1.7-2.5-1.7-4.2s0.6-3,1.7-4.2c1.1-1.1,2.5-1.7,4.2-1.7 c1.1,0,2.2,0.3,3.1,0.8c0.9,0.5,1.7,1.3,2.1,2.2l-2,1.1c-0.7-1.3-1.8-1.9-3.2-1.9c-1,0-1.8,0.4-2.5,1.1c-0.7,0.7-1,1.6-1,2.6 c0,1,0.3,1.9,1,2.6c0.7,0.7,1.5,1.1,2.5,1.1c1.4,0,2.5-0.6,3.2-1.9l2,1.1c-0.5,0.9-1.2,1.7-2.1,2.2S1186.3,22.5,1185.2,22.5z"></path> <path class="st1" d="M1199.3,22.3l-4.9-5.2v5.2h-2.3V10.9h2.3v4.8l4.1-4.8h2.9l-4.7,5.5l5.6,5.9H1199.3z"></path> <path class="st1" d="M1207.2,22.3V10.9h6.9v2.2h-4.6v2.4h3.6v2.2h-3.6v4.6H1207.2z"></path> <path class="st1" d="M1215.8,22.3V10.9h4.4c1,0,1.9,0.3,2.5,1c0.6,0.6,1,1.4,1,2.4c0,1.5-0.8,2.5-2.3,3l4.1,5h-2.8l-3.9-4.8h-0.6 v4.8H1215.8z M1218.1,15.5h1.8c0.4,0,0.8-0.1,1.1-0.3c0.3-0.2,0.4-0.5,0.4-0.9s-0.1-0.7-0.4-0.9c-0.3-0.2-0.6-0.3-1.1-0.3h-1.8 V15.5z"></path> <path class="st1" d="M1226.5,22.3V10.9h2.3v11.4H1226.5z"></path> <path class="st1" d="M1231.5,22.3V10.9h3.7c1.6,0,3,0.5,4.1,1.6c1.1,1.1,1.7,2.4,1.7,4c0,1.6-0.6,2.9-1.7,4 c-1.1,1.1-2.5,1.6-4.1,1.6H1231.5z M1233.8,20.2h1.4c1,0,1.9-0.3,2.5-1c0.7-0.7,1-1.5,1-2.5c0-1-0.3-1.8-1-2.5 c-0.7-0.7-1.5-1-2.5-1h-1.4V20.2z"></path> <path class="st1" d="M1241.2,22.3l4.9-11.4h2.1l4.9,11.4h-2.4l-1.1-2.6h-4.8l-1.1,2.6H1241.2z M1247.1,14l-1.6,3.7h3.1L1247.1,14z"></path> <path class="st1" d="M1256.1,22.3v-4.8l-4.2-6.6h2.7l2.7,4.3l2.7-4.3h2.7l-4.2,6.6v4.8H1256.1z"></path> <path class="st1" d="M1271.3,22.5c-0.9,0-1.7-0.2-2.4-0.5s-1.3-0.9-1.7-1.5l1.8-1.5c0.3,0.4,0.6,0.7,1.1,1s0.9,0.4,1.4,0.4 c0.5,0,0.8-0.1,1.1-0.3c0.3-0.2,0.4-0.5,0.4-0.8c0-0.3-0.1-0.6-0.4-0.8s-0.7-0.4-1.2-0.6l-1-0.3c-1.9-0.7-2.8-1.7-2.8-3.2 c0-1,0.4-1.9,1.1-2.5c0.7-0.6,1.6-0.9,2.8-0.9c1.4,0,2.6,0.5,3.6,1.6l-1.6,1.6c-0.5-0.7-1.2-1-2-1c-0.4,0-0.8,0.1-1.1,0.3 c-0.3,0.2-0.4,0.4-0.4,0.7c0,0.3,0.1,0.6,0.4,0.8c0.3,0.2,0.7,0.4,1.4,0.6l0.9,0.3c1.8,0.7,2.7,1.8,2.7,3.4c0,1-0.4,1.8-1.1,2.5 S1272.5,22.5,1271.3,22.5z"></path> <path class="st1" d="M1275.9,22.3l4.9-11.4h2.1l4.9,11.4h-2.4l-1.1-2.6h-4.8l-1.1,2.6H1275.9z M1281.8,14l-1.6,3.7h3.1L1281.8,14z"></path> <path class="st1" d="M1289.1,22.3V10.9h2.3v9.2h4.9v2.2H1289.1z"></path> <path class="st1" d="M1297.8,22.3V10.9h7.1v2.2h-4.8v2.3h3.8v2.2h-3.8v2.4h4.8v2.2H1297.8z"></path> <path class="st1" d="M1310.3,22.5c-0.9,0-1.7-0.2-2.4-0.5s-1.3-0.9-1.7-1.5l1.8-1.5c0.3,0.4,0.6,0.7,1.1,1s0.9,0.4,1.4,0.4 c0.5,0,0.8-0.1,1.1-0.3c0.3-0.2,0.4-0.5,0.4-0.8c0-0.3-0.1-0.6-0.4-0.8s-0.7-0.4-1.2-0.6l-1-0.3c-1.9-0.7-2.8-1.7-2.8-3.2 c0-1,0.4-1.9,1.1-2.5c0.7-0.6,1.6-0.9,2.8-0.9c1.4,0,2.6,0.5,3.6,1.6l-1.6,1.6c-0.5-0.7-1.2-1-2-1c-0.4,0-0.8,0.1-1.1,0.3 c-0.3,0.2-0.4,0.4-0.4,0.7c0,0.3,0.1,0.6,0.4,0.8c0.3,0.2,0.7,0.4,1.4,0.6l0.9,0.3c1.8,0.7,2.7,1.8,2.7,3.4c0,1-0.4,1.8-1.1,2.5 S1311.5,22.5,1310.3,22.5z"></path> </g> <g class="st2"> <path class="st1" d="M1335.9,23.2l6.2-13.1h2l-6.2,13.1H1335.9z"></path> <path class="st1" d="M1342,23.2l6.2-13.1h2l-6.2,13.1H1342z"></path> </g> <g> <path class="st1" d="M1370.9,22.3V10.9h4.2c0.9,0,1.7,0.3,2.4,1c0.7,0.6,1,1.4,1,2.3c0,0.8-0.3,1.5-0.9,2c1.1,0.6,1.7,1.5,1.7,2.7 c0,0.9-0.3,1.7-1,2.4c-0.7,0.6-1.5,1-2.5,1H1370.9z M1373.3,15.6h1.6c0.4,0,0.7-0.1,1-0.4c0.2-0.2,0.4-0.5,0.4-0.9 c0-0.4-0.1-0.7-0.4-0.9c-0.3-0.3-0.6-0.4-1-0.4h-1.6V15.6z M1373.3,20.2h2.3c0.4,0,0.8-0.1,1-0.4c0.3-0.2,0.4-0.6,0.4-0.9 s-0.1-0.7-0.4-0.9c-0.3-0.2-0.6-0.4-1-0.4h-2.3V20.2z"></path> <path class="st1" d="M1381.2,22.3V10.9h2.3v9.2h4.9v2.2H1381.2z"></path> <path class="st1" d="M1389.3,22.3l4.9-11.4h2.1l4.9,11.4h-2.4l-1.1-2.6h-4.8l-1.1,2.6H1389.3z M1395.2,14l-1.6,3.7h3.1L1395.2,14z"></path> <path class="st1" d="M1407.2,22.5c-1.6,0-3-0.6-4.2-1.7c-1.1-1.1-1.7-2.5-1.7-4.2s0.6-3,1.7-4.2s2.5-1.7,4.2-1.7 c1.1,0,2.2,0.3,3.1,0.8c0.9,0.5,1.7,1.3,2.1,2.2l-2,1.1c-0.7-1.3-1.8-1.9-3.2-1.9c-1,0-1.8,0.4-2.5,1.1c-0.7,0.7-1,1.6-1,2.6 c0,1,0.3,1.9,1,2.6c0.7,0.7,1.5,1.1,2.5,1.1c1.4,0,2.5-0.6,3.2-1.9l2,1.1c-0.5,0.9-1.2,1.7-2.1,2.2 C1409.4,22.2,1408.3,22.5,1407.2,22.5z"></path> <path class="st1" d="M1421.3,22.3l-4.9-5.2v5.2h-2.3V10.9h2.3v4.8l4.1-4.8h2.9l-4.7,5.5l5.6,5.9H1421.3z"></path> <path class="st1" d="M1429.2,22.3V10.9h6.9v2.2h-4.6v2.4h3.6v2.2h-3.6v4.6H1429.2z"></path> <path class="st1" d="M1437.8,22.3V10.9h4.4c1,0,1.9,0.3,2.5,1c0.6,0.6,1,1.4,1,2.4c0,1.5-0.8,2.5-2.3,3l4.1,5h-2.8l-3.9-4.8h-0.6 v4.8H1437.8z M1440.1,15.5h1.8c0.4,0,0.8-0.1,1.1-0.3s0.4-0.5,0.4-0.9s-0.1-0.7-0.4-0.9c-0.3-0.2-0.6-0.3-1.1-0.3h-1.8V15.5z"></path> <path class="st1" d="M1448.5,22.3V10.9h2.3v11.4H1448.5z"></path> <path class="st1" d="M1453.5,22.3V10.9h3.7c1.6,0,3,0.5,4.1,1.6c1.1,1.1,1.7,2.4,1.7,4c0,1.6-0.6,2.9-1.7,4 c-1.1,1.1-2.5,1.6-4.1,1.6H1453.5z M1455.8,20.2h1.4c1,0,1.9-0.3,2.5-1c0.7-0.7,1-1.5,1-2.5c0-1-0.3-1.8-1-2.5 c-0.7-0.7-1.5-1-2.5-1h-1.4V20.2z"></path> <path class="st1" d="M1463.2,22.3l4.9-11.4h2.1l4.9,11.4h-2.4l-1.1-2.6h-4.8l-1.1,2.6H1463.2z M1469.1,14l-1.6,3.7h3.1L1469.1,14z"></path> <path class="st1" d="M1478.1,22.3v-4.8l-4.2-6.6h2.7l2.7,4.3l2.7-4.3h2.7l-4.2,6.6v4.8H1478.1z"></path> <path class="st1" d="M1493.3,22.5c-0.9,0-1.7-0.2-2.4-0.5c-0.7-0.4-1.3-0.9-1.7-1.5l1.8-1.5c0.3,0.4,0.6,0.7,1.1,1s0.9,0.4,1.4,0.4 c0.5,0,0.8-0.1,1.1-0.3c0.3-0.2,0.4-0.5,0.4-0.8c0-0.3-0.1-0.6-0.4-0.8c-0.3-0.2-0.7-0.4-1.2-0.6l-1-0.3c-1.9-0.7-2.8-1.7-2.8-3.2 c0-1,0.4-1.9,1.1-2.5c0.7-0.6,1.6-0.9,2.8-0.9c1.4,0,2.6,0.5,3.6,1.6l-1.6,1.6c-0.5-0.7-1.2-1-2-1c-0.4,0-0.8,0.1-1.1,0.3 c-0.3,0.2-0.4,0.4-0.4,0.7c0,0.3,0.1,0.6,0.4,0.8c0.3,0.2,0.7,0.4,1.4,0.6l0.9,0.3c1.8,0.7,2.7,1.8,2.7,3.4c0,1-0.4,1.8-1.1,2.5 C1495.5,22.2,1494.5,22.5,1493.3,22.5z"></path> <path class="st1" d="M1497.9,22.3l4.9-11.4h2.1l4.9,11.4h-2.4l-1.1-2.6h-4.8l-1.1,2.6H1497.9z M1503.8,14l-1.6,3.7h3.1L1503.8,14z"></path> <path class="st1" d="M1511.1,22.3V10.9h2.3v9.2h4.9v2.2H1511.1z"></path> <path class="st1" d="M1519.8,22.3V10.9h7.1v2.2h-4.8v2.3h3.8v2.2h-3.8v2.4h4.8v2.2H1519.8z"></path> <path class="st1" d="M1532.3,22.5c-0.9,0-1.7-0.2-2.4-0.5c-0.7-0.4-1.3-0.9-1.7-1.5l1.8-1.5c0.3,0.4,0.6,0.7,1.1,1s0.9,0.4,1.4,0.4 c0.5,0,0.8-0.1,1.1-0.3c0.3-0.2,0.4-0.5,0.4-0.8c0-0.3-0.1-0.6-0.4-0.8c-0.3-0.2-0.7-0.4-1.2-0.6l-1-0.3c-1.9-0.7-2.8-1.7-2.8-3.2 c0-1,0.4-1.9,1.1-2.5c0.7-0.6,1.6-0.9,2.8-0.9c1.4,0,2.6,0.5,3.6,1.6l-1.6,1.6c-0.5-0.7-1.2-1-2-1c-0.4,0-0.8,0.1-1.1,0.3 c-0.3,0.2-0.4,0.4-0.4,0.7c0,0.3,0.1,0.6,0.4,0.8c0.3,0.2,0.7,0.4,1.4,0.6l0.9,0.3c1.8,0.7,2.7,1.8,2.7,3.4c0,1-0.4,1.8-1.1,2.5 C1534.5,22.2,1533.5,22.5,1532.3,22.5z"></path> </g> <g class="st2"> <path class="st1" d="M1557.9,23.2l6.2-13.1h2l-6.2,13.1H1557.9z"></path> <path class="st1" d="M1564,23.2l6.2-13.1h2l-6.2,13.1H1564z"></path> </g> <g> <path class="st1" d="M1593.3,22.3V10.9h4.2c0.9,0,1.8,0.3,2.4,1s1,1.4,1,2.3c0,0.8-0.3,1.5-0.9,2c1.1,0.6,1.7,1.5,1.7,2.7 c0,0.9-0.3,1.7-1,2.4s-1.5,1-2.5,1H1593.3z M1595.6,15.6h1.6c0.4,0,0.7-0.1,1-0.4c0.2-0.2,0.4-0.5,0.4-0.9c0-0.4-0.1-0.7-0.4-0.9 c-0.3-0.3-0.6-0.4-1-0.4h-1.6V15.6z M1595.6,20.2h2.3c0.4,0,0.8-0.1,1-0.4c0.3-0.2,0.4-0.6,0.4-0.9s-0.1-0.7-0.4-0.9 c-0.3-0.2-0.6-0.4-1-0.4h-2.3V20.2z"></path> <path class="st1" d="M1603.5,22.3V10.9h2.3v9.2h4.9v2.2H1603.5z"></path> <path class="st1" d="M1611.6,22.3l4.9-11.4h2.1l4.9,11.4h-2.4l-1.1-2.6h-4.8l-1.1,2.6H1611.6z M1617.6,14l-1.6,3.7h3.1L1617.6,14z"></path> <path class="st1" d="M1629.5,22.5c-1.6,0-3-0.6-4.2-1.7c-1.1-1.1-1.7-2.5-1.7-4.2s0.6-3,1.7-4.2c1.1-1.1,2.5-1.7,4.2-1.7 c1.1,0,2.2,0.3,3.1,0.8c0.9,0.5,1.7,1.3,2.1,2.2l-2,1.1c-0.7-1.3-1.8-1.9-3.2-1.9c-1,0-1.8,0.4-2.5,1.1c-0.7,0.7-1,1.6-1,2.6 c0,1,0.3,1.9,1,2.6c0.7,0.7,1.5,1.1,2.5,1.1c1.4,0,2.5-0.6,3.2-1.9l2,1.1c-0.5,0.9-1.2,1.7-2.1,2.2S1630.7,22.5,1629.5,22.5z"></path> <path class="st1" d="M1643.7,22.3l-4.9-5.2v5.2h-2.3V10.9h2.3v4.8l4.1-4.8h2.9l-4.7,5.5l5.6,5.9H1643.7z"></path> <path class="st1" d="M1651.5,22.3V10.9h6.9v2.2h-4.6v2.4h3.6v2.2h-3.6v4.6H1651.5z"></path> <path class="st1" d="M1660.1,22.3V10.9h4.4c1,0,1.9,0.3,2.5,1c0.6,0.6,1,1.4,1,2.4c0,1.5-0.8,2.5-2.3,3l4.1,5h-2.8l-3.9-4.8h-0.6 v4.8H1660.1z M1662.4,15.5h1.8c0.4,0,0.8-0.1,1.1-0.3c0.3-0.2,0.4-0.5,0.4-0.9s-0.1-0.7-0.4-0.9c-0.3-0.2-0.6-0.3-1.1-0.3h-1.8 V15.5z"></path> <path class="st1" d="M1670.9,22.3V10.9h2.3v11.4H1670.9z"></path> <path class="st1" d="M1675.8,22.3V10.9h3.7c1.6,0,3,0.5,4.1,1.6s1.7,2.4,1.7,4c0,1.6-0.6,2.9-1.7,4c-1.1,1.1-2.5,1.6-4.1,1.6 H1675.8z M1678.1,20.2h1.4c1,0,1.9-0.3,2.5-1c0.7-0.7,1-1.5,1-2.5c0-1-0.3-1.8-1-2.5c-0.7-0.7-1.5-1-2.5-1h-1.4V20.2z"></path> <path class="st1" d="M1685.6,22.3l4.9-11.4h2.1l4.9,11.4h-2.4l-1.1-2.6h-4.8l-1.1,2.6H1685.6z M1691.5,14l-1.6,3.7h3.1L1691.5,14z"></path> <path class="st1" d="M1700.5,22.3v-4.8l-4.2-6.6h2.7l2.7,4.3l2.7-4.3h2.7l-4.2,6.6v4.8H1700.5z"></path> <path class="st1" d="M1715.7,22.5c-0.9,0-1.7-0.2-2.4-0.5s-1.3-0.9-1.7-1.5l1.8-1.5c0.3,0.4,0.6,0.7,1.1,1s0.9,0.4,1.4,0.4 c0.5,0,0.8-0.1,1.1-0.3c0.3-0.2,0.4-0.5,0.4-0.8c0-0.3-0.1-0.6-0.4-0.8c-0.3-0.2-0.7-0.4-1.2-0.6l-1-0.3c-1.9-0.7-2.8-1.7-2.8-3.2 c0-1,0.4-1.9,1.1-2.5s1.6-0.9,2.8-0.9c1.4,0,2.6,0.5,3.6,1.6l-1.6,1.6c-0.5-0.7-1.2-1-2-1c-0.4,0-0.8,0.1-1.1,0.3 c-0.3,0.2-0.4,0.4-0.4,0.7c0,0.3,0.1,0.6,0.4,0.8s0.7,0.4,1.4,0.6l0.9,0.3c1.8,0.7,2.7,1.8,2.7,3.4c0,1-0.4,1.8-1.1,2.5 C1717.8,22.2,1716.8,22.5,1715.7,22.5z"></path> <path class="st1" d="M1720.2,22.3l4.9-11.4h2.1l4.9,11.4h-2.4l-1.1-2.6h-4.8l-1.1,2.6H1720.2z M1726.1,14l-1.6,3.7h3.1L1726.1,14z"></path> <path class="st1" d="M1733.4,22.3V10.9h2.3v9.2h4.9v2.2H1733.4z"></path> <path class="st1" d="M1742.1,22.3V10.9h7.1v2.2h-4.8v2.3h3.8v2.2h-3.8v2.4h4.8v2.2H1742.1z"></path> <path class="st1" d="M1754.7,22.5c-0.9,0-1.7-0.2-2.4-0.5s-1.3-0.9-1.7-1.5l1.8-1.5c0.3,0.4,0.6,0.7,1.1,1s0.9,0.4,1.4,0.4 c0.5,0,0.8-0.1,1.1-0.3c0.3-0.2,0.4-0.5,0.4-0.8c0-0.3-0.1-0.6-0.4-0.8c-0.3-0.2-0.7-0.4-1.2-0.6l-1-0.3c-1.9-0.7-2.8-1.7-2.8-3.2 c0-1,0.4-1.9,1.1-2.5c0.7-0.6,1.6-0.9,2.8-0.9c1.4,0,2.6,0.5,3.6,1.6l-1.6,1.6c-0.5-0.7-1.2-1-2-1c-0.4,0-0.8,0.1-1.1,0.3 c-0.3,0.2-0.4,0.4-0.4,0.7c0,0.3,0.1,0.6,0.4,0.8c0.3,0.2,0.7,0.4,1.4,0.6l0.9,0.3c1.8,0.7,2.7,1.8,2.7,3.4c0,1-0.4,1.8-1.1,2.5 C1756.8,22.2,1755.8,22.5,1754.7,22.5z"></path> </g> <g class="st2"> <path class="st1" d="M1780.3,23.2l6.2-13.1h2l-6.2,13.1H1780.3z"></path> <path class="st1" d="M1786.3,23.2l6.2-13.1h2l-6.2,13.1H1786.3z"></path> </g> <g> <path class="st1" d="M1815.5,22.3V10.9h4.2c0.9,0,1.7,0.3,2.4,1c0.7,0.6,1,1.4,1,2.3c0,0.8-0.3,1.5-0.9,2c1.1,0.6,1.7,1.5,1.7,2.7 c0,0.9-0.3,1.7-1,2.4c-0.7,0.6-1.5,1-2.5,1H1815.5z M1817.8,15.6h1.6c0.4,0,0.7-0.1,1-0.4c0.2-0.2,0.4-0.5,0.4-0.9 c0-0.4-0.1-0.7-0.4-0.9c-0.3-0.3-0.6-0.4-1-0.4h-1.6V15.6z M1817.8,20.2h2.3c0.4,0,0.8-0.1,1-0.4c0.3-0.2,0.4-0.6,0.4-0.9 s-0.1-0.7-0.4-0.9c-0.3-0.2-0.6-0.4-1-0.4h-2.3V20.2z"></path> <path class="st1" d="M1825.7,22.3V10.9h2.3v9.2h4.9v2.2H1825.7z"></path> <path class="st1" d="M1833.8,22.3l4.9-11.4h2.1l4.9,11.4h-2.4l-1.1-2.6h-4.8l-1.1,2.6H1833.8z M1839.8,14l-1.6,3.7h3.1L1839.8,14z"></path> <path class="st1" d="M1851.7,22.5c-1.6,0-3-0.6-4.2-1.7c-1.1-1.1-1.7-2.5-1.7-4.2s0.6-3,1.7-4.2s2.5-1.7,4.2-1.7 c1.1,0,2.2,0.3,3.1,0.8c0.9,0.5,1.7,1.3,2.1,2.2l-2,1.1c-0.7-1.3-1.8-1.9-3.2-1.9c-1,0-1.8,0.4-2.5,1.1c-0.7,0.7-1,1.6-1,2.6 c0,1,0.3,1.9,1,2.6c0.7,0.7,1.5,1.1,2.5,1.1c1.4,0,2.5-0.6,3.2-1.9l2,1.1c-0.5,0.9-1.2,1.7-2.1,2.2 C1853.9,22.2,1852.9,22.5,1851.7,22.5z"></path> <path class="st1" d="M1865.9,22.3l-4.9-5.2v5.2h-2.3V10.9h2.3v4.8l4.1-4.8h2.9l-4.7,5.5l5.6,5.9H1865.9z"></path> <path class="st1" d="M1873.7,22.3V10.9h6.9v2.2h-4.6v2.4h3.6v2.2h-3.6v4.6H1873.7z"></path> <path class="st1" d="M1882.3,22.3V10.9h4.4c1,0,1.9,0.3,2.5,1c0.6,0.6,1,1.4,1,2.4c0,1.5-0.8,2.5-2.3,3l4.1,5h-2.8l-3.9-4.8h-0.6 v4.8H1882.3z M1884.6,15.5h1.8c0.4,0,0.8-0.1,1.1-0.3s0.4-0.5,0.4-0.9s-0.1-0.7-0.4-0.9c-0.3-0.2-0.6-0.3-1.1-0.3h-1.8V15.5z"></path> <path class="st1" d="M1893.1,22.3V10.9h2.3v11.4H1893.1z"></path> <path class="st1" d="M1898,22.3V10.9h3.7c1.6,0,3,0.5,4.1,1.6c1.1,1.1,1.7,2.4,1.7,4c0,1.6-0.6,2.9-1.7,4c-1.1,1.1-2.5,1.6-4.1,1.6 H1898z M1900.3,20.2h1.4c1,0,1.9-0.3,2.5-1c0.7-0.7,1-1.5,1-2.5c0-1-0.3-1.8-1-2.5c-0.7-0.7-1.5-1-2.5-1h-1.4V20.2z"></path> <path class="st1" d="M1907.8,22.3l4.9-11.4h2.1l4.9,11.4h-2.4l-1.1-2.6h-4.8l-1.1,2.6H1907.8z M1913.7,14l-1.6,3.7h3.1L1913.7,14z"></path> <path class="st1" d="M1922.7,22.3v-4.8l-4.2-6.6h2.7l2.7,4.3l2.7-4.3h2.7l-4.2,6.6v4.8H1922.7z"></path> <path class="st1" d="M1937.9,22.5c-0.9,0-1.7-0.2-2.4-0.5c-0.7-0.4-1.3-0.9-1.7-1.5l1.8-1.5c0.3,0.4,0.6,0.7,1.1,1s0.9,0.4,1.4,0.4 c0.5,0,0.8-0.1,1.1-0.3c0.3-0.2,0.4-0.5,0.4-0.8c0-0.3-0.1-0.6-0.4-0.8c-0.3-0.2-0.7-0.4-1.2-0.6l-1-0.3c-1.9-0.7-2.8-1.7-2.8-3.2 c0-1,0.4-1.9,1.1-2.5c0.7-0.6,1.6-0.9,2.8-0.9c1.4,0,2.6,0.5,3.6,1.6l-1.6,1.6c-0.5-0.7-1.2-1-2-1c-0.4,0-0.8,0.1-1.1,0.3 c-0.3,0.2-0.4,0.4-0.4,0.7c0,0.3,0.1,0.6,0.4,0.8c0.3,0.2,0.7,0.4,1.4,0.6l0.9,0.3c1.8,0.7,2.7,1.8,2.7,3.4c0,1-0.4,1.8-1.1,2.5 C1940,22.2,1939,22.5,1937.9,22.5z"></path> <path class="st1" d="M1942.4,22.3l4.9-11.4h2.1l4.9,11.4h-2.4l-1.1-2.6h-4.8l-1.1,2.6H1942.4z M1948.3,14l-1.6,3.7h3.1L1948.3,14z"></path> <path class="st1" d="M1955.6,22.3V10.9h2.3v9.2h4.9v2.2H1955.6z"></path> <path class="st1" d="M1964.3,22.3V10.9h7.1v2.2h-4.8v2.3h3.8v2.2h-3.8v2.4h4.8v2.2H1964.3z"></path> <path class="st1" d="M1976.9,22.5c-0.9,0-1.7-0.2-2.4-0.5c-0.7-0.4-1.3-0.9-1.7-1.5l1.8-1.5c0.3,0.4,0.6,0.7,1.1,1s0.9,0.4,1.4,0.4 c0.5,0,0.8-0.1,1.1-0.3c0.3-0.2,0.4-0.5,0.4-0.8c0-0.3-0.1-0.6-0.4-0.8c-0.3-0.2-0.7-0.4-1.2-0.6l-1-0.3c-1.9-0.7-2.8-1.7-2.8-3.2 c0-1,0.4-1.9,1.1-2.5c0.7-0.6,1.6-0.9,2.8-0.9c1.4,0,2.6,0.5,3.6,1.6l-1.6,1.6c-0.5-0.7-1.2-1-2-1c-0.4,0-0.8,0.1-1.1,0.3 c-0.3,0.2-0.4,0.4-0.4,0.7c0,0.3,0.1,0.6,0.4,0.8c0.3,0.2,0.7,0.4,1.4,0.6l0.9,0.3c1.8,0.7,2.7,1.8,2.7,3.4c0,1-0.4,1.8-1.1,2.5 C1979,22.2,1978,22.5,1976.9,22.5z"></path> </g> <g class="st2"> <path class="st1" d="M2002.5,23.2l6.2-13.1h2l-6.2,13.1H2002.5z"></path> <path class="st1" d="M2008.5,23.2l6.2-13.1h2l-6.2,13.1H2008.5z"></path> </g> <g> <path class="st1" d="M2038.1,22.3V10.9h4.2c0.9,0,1.7,0.3,2.4,1c0.7,0.6,1,1.4,1,2.3c0,0.8-0.3,1.5-0.9,2c1.1,0.6,1.7,1.5,1.7,2.7 c0,0.9-0.3,1.7-1,2.4c-0.7,0.6-1.5,1-2.5,1H2038.1z M2040.5,15.6h1.6c0.4,0,0.7-0.1,1-0.4c0.2-0.2,0.4-0.5,0.4-0.9 c0-0.4-0.1-0.7-0.4-0.9c-0.3-0.3-0.6-0.4-1-0.4h-1.6V15.6z M2040.5,20.2h2.3c0.4,0,0.8-0.1,1-0.4c0.3-0.2,0.4-0.6,0.4-0.9 s-0.1-0.7-0.4-0.9c-0.3-0.2-0.6-0.4-1-0.4h-2.3V20.2z"></path> <path class="st1" d="M2048.4,22.3V10.9h2.3v9.2h4.9v2.2H2048.4z"></path> <path class="st1" d="M2056.5,22.3l4.9-11.4h2.1l4.9,11.4h-2.4l-1.1-2.6h-4.8l-1.1,2.6H2056.5z M2062.4,14l-1.6,3.7h3.1L2062.4,14z"></path> <path class="st1" d="M2074.4,22.5c-1.6,0-3-0.6-4.2-1.7c-1.1-1.1-1.7-2.5-1.7-4.2s0.6-3,1.7-4.2s2.5-1.7,4.2-1.7 c1.1,0,2.2,0.3,3.1,0.8c0.9,0.5,1.7,1.3,2.1,2.2l-2,1.1c-0.7-1.3-1.8-1.9-3.2-1.9c-1,0-1.8,0.4-2.5,1.1c-0.7,0.7-1,1.6-1,2.6 c0,1,0.3,1.9,1,2.6c0.7,0.7,1.5,1.1,2.5,1.1c1.4,0,2.5-0.6,3.2-1.9l2,1.1c-0.5,0.9-1.2,1.7-2.1,2.2 C2076.6,22.2,2075.5,22.5,2074.4,22.5z"></path> <path class="st1" d="M2088.6,22.3l-4.9-5.2v5.2h-2.3V10.9h2.3v4.8l4.1-4.8h2.9l-4.7,5.5l5.6,5.9H2088.6z"></path> <path class="st1" d="M2096.4,22.3V10.9h6.9v2.2h-4.6v2.4h3.6v2.2h-3.6v4.6H2096.4z"></path> <path class="st1" d="M2105,22.3V10.9h4.4c1,0,1.9,0.3,2.5,1c0.6,0.6,1,1.4,1,2.4c0,1.5-0.8,2.5-2.3,3l4.1,5h-2.8l-3.9-4.8h-0.6v4.8 H2105z M2107.3,15.5h1.8c0.4,0,0.8-0.1,1.1-0.3s0.4-0.5,0.4-0.9s-0.1-0.7-0.4-0.9c-0.3-0.2-0.6-0.3-1.1-0.3h-1.8V15.5z"></path> <path class="st1" d="M2115.7,22.3V10.9h2.3v11.4H2115.7z"></path> <path class="st1" d="M2120.7,22.3V10.9h3.7c1.6,0,3,0.5,4.1,1.6c1.1,1.1,1.7,2.4,1.7,4c0,1.6-0.6,2.9-1.7,4 c-1.1,1.1-2.5,1.6-4.1,1.6H2120.7z M2123,20.2h1.4c1,0,1.9-0.3,2.5-1c0.7-0.7,1-1.5,1-2.5c0-1-0.3-1.8-1-2.5c-0.7-0.7-1.5-1-2.5-1 h-1.4V20.2z"></path> <path class="st1" d="M2130.4,22.3l4.9-11.4h2.1l4.9,11.4h-2.4l-1.1-2.6h-4.8l-1.1,2.6H2130.4z M2136.3,14l-1.6,3.7h3.1L2136.3,14z"></path> <path class="st1" d="M2145.3,22.3v-4.8l-4.2-6.6h2.7l2.7,4.3l2.7-4.3h2.7l-4.2,6.6v4.8H2145.3z"></path> <path class="st1" d="M2160.5,22.5c-0.9,0-1.7-0.2-2.4-0.5c-0.7-0.4-1.3-0.9-1.7-1.5l1.8-1.5c0.3,0.4,0.6,0.7,1.1,1s0.9,0.4,1.4,0.4 c0.5,0,0.8-0.1,1.1-0.3c0.3-0.2,0.4-0.5,0.4-0.8c0-0.3-0.1-0.6-0.4-0.8c-0.3-0.2-0.7-0.4-1.2-0.6l-1-0.3c-1.9-0.7-2.8-1.7-2.8-3.2 c0-1,0.4-1.9,1.1-2.5c0.7-0.6,1.6-0.9,2.8-0.9c1.4,0,2.6,0.5,3.6,1.6l-1.6,1.6c-0.5-0.7-1.2-1-2-1c-0.4,0-0.8,0.1-1.1,0.3 c-0.3,0.2-0.4,0.4-0.4,0.7c0,0.3,0.1,0.6,0.4,0.8c0.3,0.2,0.7,0.4,1.4,0.6l0.9,0.3c1.8,0.7,2.7,1.8,2.7,3.4c0,1-0.4,1.8-1.1,2.5 C2162.7,22.2,2161.7,22.5,2160.5,22.5z"></path> <path class="st1" d="M2165.1,22.3l4.9-11.4h2.1l4.9,11.4h-2.4l-1.1-2.6h-4.8l-1.1,2.6H2165.1z M2171,14l-1.6,3.7h3.1L2171,14z"></path> <path class="st1" d="M2178.3,22.3V10.9h2.3v9.2h4.9v2.2H2178.3z"></path> <path class="st1" d="M2187,22.3V10.9h7.1v2.2h-4.8v2.3h3.8v2.2h-3.8v2.4h4.8v2.2H2187z"></path> <path class="st1" d="M2199.5,22.5c-0.9,0-1.7-0.2-2.4-0.5c-0.7-0.4-1.3-0.9-1.7-1.5l1.8-1.5c0.3,0.4,0.6,0.7,1.1,1s0.9,0.4,1.4,0.4 c0.5,0,0.8-0.1,1.1-0.3c0.3-0.2,0.4-0.5,0.4-0.8c0-0.3-0.1-0.6-0.4-0.8c-0.3-0.2-0.7-0.4-1.2-0.6l-1-0.3c-1.9-0.7-2.8-1.7-2.8-3.2 c0-1,0.4-1.9,1.1-2.5c0.7-0.6,1.6-0.9,2.8-0.9c1.4,0,2.6,0.5,3.6,1.6l-1.6,1.6c-0.5-0.7-1.2-1-2-1c-0.4,0-0.8,0.1-1.1,0.3 c-0.3,0.2-0.4,0.4-0.4,0.7c0,0.3,0.1,0.6,0.4,0.8c0.3,0.2,0.7,0.4,1.4,0.6l0.9,0.3c1.8,0.7,2.7,1.8,2.7,3.4c0,1-0.4,1.8-1.1,2.5 C2201.7,22.2,2200.7,22.5,2199.5,22.5z"></path> </g> <g class="st2"> <path class="st1" d="M2225.1,23.2l6.2-13.1h2l-6.2,13.1H2225.1z"></path> <path class="st1" d="M2231.2,23.2l6.2-13.1h2l-6.2,13.1H2231.2z"></path> </g> <g> <path class="st1" d="M2260.1,22.3V10.9h4.2c0.9,0,1.7,0.3,2.4,1c0.7,0.6,1,1.4,1,2.3c0,0.8-0.3,1.5-0.9,2c1.1,0.6,1.7,1.5,1.7,2.7 c0,0.9-0.3,1.7-1,2.4c-0.7,0.6-1.5,1-2.5,1H2260.1z M2262.5,15.6h1.6c0.4,0,0.7-0.1,1-0.4c0.2-0.2,0.4-0.5,0.4-0.9 c0-0.4-0.1-0.7-0.4-0.9c-0.3-0.3-0.6-0.4-1-0.4h-1.6V15.6z M2262.5,20.2h2.3c0.4,0,0.8-0.1,1-0.4c0.3-0.2,0.4-0.6,0.4-0.9 s-0.1-0.7-0.4-0.9c-0.3-0.2-0.6-0.4-1-0.4h-2.3V20.2z"></path> <path class="st1" d="M2270.4,22.3V10.9h2.3v9.2h4.9v2.2H2270.4z"></path> <path class="st1" d="M2278.5,22.3l4.9-11.4h2.1l4.9,11.4h-2.4l-1.1-2.6h-4.8l-1.1,2.6H2278.5z M2284.4,14l-1.6,3.7h3.1L2284.4,14z"></path> <path class="st1" d="M2296.4,22.5c-1.6,0-3-0.6-4.2-1.7c-1.1-1.1-1.7-2.5-1.7-4.2s0.6-3,1.7-4.2s2.5-1.7,4.2-1.7 c1.1,0,2.2,0.3,3.1,0.8c0.9,0.5,1.7,1.3,2.1,2.2l-2,1.1c-0.7-1.3-1.8-1.9-3.2-1.9c-1,0-1.8,0.4-2.5,1.1c-0.7,0.7-1,1.6-1,2.6 c0,1,0.3,1.9,1,2.6c0.7,0.7,1.5,1.1,2.5,1.1c1.4,0,2.5-0.6,3.2-1.9l2,1.1c-0.5,0.9-1.2,1.7-2.1,2.2 C2298.6,22.2,2297.5,22.5,2296.4,22.5z"></path> <path class="st1" d="M2310.6,22.3l-4.9-5.2v5.2h-2.3V10.9h2.3v4.8l4.1-4.8h2.9l-4.7,5.5l5.6,5.9H2310.6z"></path> <path class="st1" d="M2318.4,22.3V10.9h6.9v2.2h-4.6v2.4h3.6v2.2h-3.6v4.6H2318.4z"></path> <path class="st1" d="M2327,22.3V10.9h4.4c1,0,1.9,0.3,2.5,1c0.6,0.6,1,1.4,1,2.4c0,1.5-0.8,2.5-2.3,3l4.1,5h-2.8l-3.9-4.8h-0.6v4.8 H2327z M2329.3,15.5h1.8c0.4,0,0.8-0.1,1.1-0.3s0.4-0.5,0.4-0.9s-0.1-0.7-0.4-0.9c-0.3-0.2-0.6-0.3-1.1-0.3h-1.8V15.5z"></path> <path class="st1" d="M2337.7,22.3V10.9h2.3v11.4H2337.7z"></path> <path class="st1" d="M2342.7,22.3V10.9h3.7c1.6,0,3,0.5,4.1,1.6c1.1,1.1,1.7,2.4,1.7,4c0,1.6-0.6,2.9-1.7,4 c-1.1,1.1-2.5,1.6-4.1,1.6H2342.7z M2345,20.2h1.4c1,0,1.9-0.3,2.5-1c0.7-0.7,1-1.5,1-2.5c0-1-0.3-1.8-1-2.5c-0.7-0.7-1.5-1-2.5-1 h-1.4V20.2z"></path> <path class="st1" d="M2352.4,22.3l4.9-11.4h2.1l4.9,11.4h-2.4l-1.1-2.6h-4.8l-1.1,2.6H2352.4z M2358.3,14l-1.6,3.7h3.1L2358.3,14z"></path> <path class="st1" d="M2367.3,22.3v-4.8l-4.2-6.6h2.7l2.7,4.3l2.7-4.3h2.7l-4.2,6.6v4.8H2367.3z"></path> <path class="st1" d="M2382.5,22.5c-0.9,0-1.7-0.2-2.4-0.5c-0.7-0.4-1.3-0.9-1.7-1.5l1.8-1.5c0.3,0.4,0.6,0.7,1.1,1s0.9,0.4,1.4,0.4 c0.5,0,0.8-0.1,1.1-0.3c0.3-0.2,0.4-0.5,0.4-0.8c0-0.3-0.1-0.6-0.4-0.8c-0.3-0.2-0.7-0.4-1.2-0.6l-1-0.3c-1.9-0.7-2.8-1.7-2.8-3.2 c0-1,0.4-1.9,1.1-2.5c0.7-0.6,1.6-0.9,2.8-0.9c1.4,0,2.6,0.5,3.6,1.6l-1.6,1.6c-0.5-0.7-1.2-1-2-1c-0.4,0-0.8,0.1-1.1,0.3 c-0.3,0.2-0.4,0.4-0.4,0.7c0,0.3,0.1,0.6,0.4,0.8c0.3,0.2,0.7,0.4,1.4,0.6l0.9,0.3c1.8,0.7,2.7,1.8,2.7,3.4c0,1-0.4,1.8-1.1,2.5 C2384.7,22.2,2383.7,22.5,2382.5,22.5z"></path> <path class="st1" d="M2387.1,22.3l4.9-11.4h2.1l4.9,11.4h-2.4l-1.1-2.6h-4.8l-1.1,2.6H2387.1z M2393,14l-1.6,3.7h3.1L2393,14z"></path> <path class="st1" d="M2400.3,22.3V10.9h2.3v9.2h4.9v2.2H2400.3z"></path> <path class="st1" d="M2409,22.3V10.9h7.1v2.2h-4.8v2.3h3.8v2.2h-3.8v2.4h4.8v2.2H2409z"></path> <path class="st1" d="M2421.5,22.5c-0.9,0-1.7-0.2-2.4-0.5c-0.7-0.4-1.3-0.9-1.7-1.5l1.8-1.5c0.3,0.4,0.6,0.7,1.1,1s0.9,0.4,1.4,0.4 c0.5,0,0.8-0.1,1.1-0.3c0.3-0.2,0.4-0.5,0.4-0.8c0-0.3-0.1-0.6-0.4-0.8c-0.3-0.2-0.7-0.4-1.2-0.6l-1-0.3c-1.9-0.7-2.8-1.7-2.8-3.2 c0-1,0.4-1.9,1.1-2.5c0.7-0.6,1.6-0.9,2.8-0.9c1.4,0,2.6,0.5,3.6,1.6l-1.6,1.6c-0.5-0.7-1.2-1-2-1c-0.4,0-0.8,0.1-1.1,0.3 c-0.3,0.2-0.4,0.4-0.4,0.7c0,0.3,0.1,0.6,0.4,0.8c0.3,0.2,0.7,0.4,1.4,0.6l0.9,0.3c1.8,0.7,2.7,1.8,2.7,3.4c0,1-0.4,1.8-1.1,2.5 C2423.7,22.2,2422.7,22.5,2421.5,22.5z"></path> </g> <g class="st2"> <path class="st1" d="M2447.1,23.2l6.2-13.1h2l-6.2,13.1H2447.1z"></path> <path class="st1" d="M2453.2,23.2l6.2-13.1h2l-6.2,13.1H2453.2z"></path> </g> <g> <path class="st1" d="M2482.5,22.3V10.9h4.2c0.9,0,1.7,0.3,2.4,1c0.7,0.6,1,1.4,1,2.3c0,0.8-0.3,1.5-0.9,2c1.1,0.6,1.7,1.5,1.7,2.7 c0,0.9-0.3,1.7-1,2.4c-0.7,0.6-1.5,1-2.5,1H2482.5z M2484.8,15.6h1.6c0.4,0,0.7-0.1,1-0.4c0.2-0.2,0.4-0.5,0.4-0.9 c0-0.4-0.1-0.7-0.4-0.9c-0.3-0.3-0.6-0.4-1-0.4h-1.6V15.6z M2484.8,20.2h2.3c0.4,0,0.8-0.1,1-0.4c0.3-0.2,0.4-0.6,0.4-0.9 s-0.1-0.7-0.4-0.9c-0.3-0.2-0.6-0.4-1-0.4h-2.3V20.2z"></path> <path class="st1" d="M2492.7,22.3V10.9h2.3v9.2h4.9v2.2H2492.7z"></path> <path class="st1" d="M2500.8,22.3l4.9-11.4h2.1l4.9,11.4h-2.4l-1.1-2.6h-4.8l-1.1,2.6H2500.8z M2506.8,14l-1.6,3.7h3.1L2506.8,14z"></path> <path class="st1" d="M2518.7,22.5c-1.6,0-3-0.6-4.2-1.7c-1.1-1.1-1.7-2.5-1.7-4.2s0.6-3,1.7-4.2s2.5-1.7,4.2-1.7 c1.1,0,2.2,0.3,3.1,0.8c0.9,0.5,1.7,1.3,2.1,2.2l-2,1.1c-0.7-1.3-1.8-1.9-3.2-1.9c-1,0-1.8,0.4-2.5,1.1c-0.7,0.7-1,1.6-1,2.6 c0,1,0.3,1.9,1,2.6c0.7,0.7,1.5,1.1,2.5,1.1c1.4,0,2.5-0.6,3.2-1.9l2,1.1c-0.5,0.9-1.2,1.7-2.1,2.2 C2520.9,22.2,2519.9,22.5,2518.7,22.5z"></path> <path class="st1" d="M2532.9,22.3l-4.9-5.2v5.2h-2.3V10.9h2.3v4.8l4.1-4.8h2.9l-4.7,5.5l5.6,5.9H2532.9z"></path> <path class="st1" d="M2540.7,22.3V10.9h6.9v2.2h-4.6v2.4h3.6v2.2h-3.6v4.6H2540.7z"></path> <path class="st1" d="M2549.3,22.3V10.9h4.4c1,0,1.9,0.3,2.5,1c0.6,0.6,1,1.4,1,2.4c0,1.5-0.8,2.5-2.3,3l4.1,5h-2.8l-3.9-4.8h-0.6 v4.8H2549.3z M2551.6,15.5h1.8c0.4,0,0.8-0.1,1.1-0.3s0.4-0.5,0.4-0.9s-0.1-0.7-0.4-0.9c-0.3-0.2-0.6-0.3-1.1-0.3h-1.8V15.5z"></path> <path class="st1" d="M2560.1,22.3V10.9h2.3v11.4H2560.1z"></path> <path class="st1" d="M2565,22.3V10.9h3.7c1.6,0,3,0.5,4.1,1.6c1.1,1.1,1.7,2.4,1.7,4c0,1.6-0.6,2.9-1.7,4c-1.1,1.1-2.5,1.6-4.1,1.6 H2565z M2567.3,20.2h1.4c1,0,1.9-0.3,2.5-1c0.7-0.7,1-1.5,1-2.5c0-1-0.3-1.8-1-2.5c-0.7-0.7-1.5-1-2.5-1h-1.4V20.2z"></path> <path class="st1" d="M2574.8,22.3l4.9-11.4h2.1l4.9,11.4h-2.4l-1.1-2.6h-4.8l-1.1,2.6H2574.8z M2580.7,14l-1.6,3.7h3.1L2580.7,14z"></path> <path class="st1" d="M2589.7,22.3v-4.8l-4.2-6.6h2.7l2.7,4.3l2.7-4.3h2.7l-4.2,6.6v4.8H2589.7z"></path> <path class="st1" d="M2604.9,22.5c-0.9,0-1.7-0.2-2.4-0.5c-0.7-0.4-1.3-0.9-1.7-1.5l1.8-1.5c0.3,0.4,0.6,0.7,1.1,1s0.9,0.4,1.4,0.4 c0.5,0,0.8-0.1,1.1-0.3c0.3-0.2,0.4-0.5,0.4-0.8c0-0.3-0.1-0.6-0.4-0.8c-0.3-0.2-0.7-0.4-1.2-0.6l-1-0.3c-1.9-0.7-2.8-1.7-2.8-3.2 c0-1,0.4-1.9,1.1-2.5c0.7-0.6,1.6-0.9,2.8-0.9c1.4,0,2.6,0.5,3.6,1.6l-1.6,1.6c-0.5-0.7-1.2-1-2-1c-0.4,0-0.8,0.1-1.1,0.3 c-0.3,0.2-0.4,0.4-0.4,0.7c0,0.3,0.1,0.6,0.4,0.8c0.3,0.2,0.7,0.4,1.4,0.6l0.9,0.3c1.8,0.7,2.7,1.8,2.7,3.4c0,1-0.4,1.8-1.1,2.5 C2607,22.2,2606,22.5,2604.9,22.5z"></path> <path class="st1" d="M2609.4,22.3l4.9-11.4h2.1l4.9,11.4h-2.4l-1.1-2.6h-4.8l-1.1,2.6H2609.4z M2615.3,14l-1.6,3.7h3.1L2615.3,14z"></path> <path class="st1" d="M2622.6,22.3V10.9h2.3v9.2h4.9v2.2H2622.6z"></path> <path class="st1" d="M2631.3,22.3V10.9h7.1v2.2h-4.8v2.3h3.8v2.2h-3.8v2.4h4.8v2.2H2631.3z"></path> <path class="st1" d="M2643.9,22.5c-0.9,0-1.7-0.2-2.4-0.5c-0.7-0.4-1.3-0.9-1.7-1.5l1.8-1.5c0.3,0.4,0.6,0.7,1.1,1s0.9,0.4,1.4,0.4 c0.5,0,0.8-0.1,1.1-0.3c0.3-0.2,0.4-0.5,0.4-0.8c0-0.3-0.1-0.6-0.4-0.8c-0.3-0.2-0.7-0.4-1.2-0.6l-1-0.3c-1.9-0.7-2.8-1.7-2.8-3.2 c0-1,0.4-1.9,1.1-2.5c0.7-0.6,1.6-0.9,2.8-0.9c1.4,0,2.6,0.5,3.6,1.6l-1.6,1.6c-0.5-0.7-1.2-1-2-1c-0.4,0-0.8,0.1-1.1,0.3 c-0.3,0.2-0.4,0.4-0.4,0.7c0,0.3,0.1,0.6,0.4,0.8c0.3,0.2,0.7,0.4,1.4,0.6l0.9,0.3c1.8,0.7,2.7,1.8,2.7,3.4c0,1-0.4,1.8-1.1,2.5 C2646,22.2,2645,22.5,2643.9,22.5z"></path> </g> <g class="st2"> <path class="st1" d="M2669.5,23.2l6.2-13.1h2l-6.2,13.1H2669.5z"></path> <path class="st1" d="M2675.5,23.2l6.2-13.1h2l-6.2,13.1H2675.5z"></path> </g> <g> <path class="st1" d="M36.7,22.3V10.9h4.2c0.9,0,1.7,0.3,2.4,1c0.7,0.6,1,1.4,1,2.3c0,0.8-0.3,1.5-0.9,2c1.1,0.6,1.7,1.5,1.7,2.7 c0,0.9-0.3,1.7-1,2.4c-0.7,0.6-1.5,1-2.5,1H36.7z M39,15.6h1.6c0.4,0,0.7-0.1,1-0.4c0.2-0.2,0.4-0.5,0.4-0.9c0-0.4-0.1-0.7-0.4-0.9 c-0.3-0.3-0.6-0.4-1-0.4H39V15.6z M39,20.2h2.3c0.4,0,0.8-0.1,1-0.4c0.3-0.2,0.4-0.6,0.4-0.9s-0.1-0.7-0.4-0.9 c-0.3-0.2-0.6-0.4-1-0.4H39V20.2z"></path> <path class="st1" d="M47,22.3V10.9h2.3v9.2h4.9v2.2H47z"></path> <path class="st1" d="M55.1,22.3L60,10.9h2.1L67,22.3h-2.4l-1.1-2.6h-4.8l-1.1,2.6H55.1z M61,14l-1.6,3.7h3.1L61,14z"></path> <path class="st1" d="M73,22.5c-1.6,0-3-0.6-4.2-1.7c-1.1-1.1-1.7-2.5-1.7-4.2s0.6-3,1.7-4.2c1.1-1.1,2.5-1.7,4.2-1.7 c1.1,0,2.2,0.3,3.1,0.8c0.9,0.5,1.7,1.3,2.1,2.2l-2,1.1C75.5,13.6,74.4,13,73,13c-1,0-1.8,0.4-2.5,1.1c-0.7,0.7-1,1.6-1,2.6 c0,1,0.3,1.9,1,2.6c0.7,0.7,1.5,1.1,2.5,1.1c1.4,0,2.5-0.6,3.2-1.9l2,1.1c-0.5,0.9-1.2,1.7-2.1,2.2S74.1,22.5,73,22.5z"></path> <path class="st1" d="M87.1,22.3l-4.9-5.2v5.2h-2.3V10.9h2.3v4.8l4.1-4.8h2.9l-4.7,5.5l5.6,5.9H87.1z"></path> <path class="st1" d="M95,22.3V10.9h6.9v2.2h-4.6v2.4h3.6v2.2h-3.6v4.6H95z"></path> <path class="st1" d="M103.6,22.3V10.9h4.4c1,0,1.9,0.3,2.5,1c0.6,0.6,1,1.4,1,2.4c0,1.5-0.8,2.5-2.3,3l4.1,5h-2.8l-3.9-4.8h-0.6 v4.8H103.6z M105.9,15.5h1.8c0.4,0,0.8-0.1,1.1-0.3c0.3-0.2,0.4-0.5,0.4-0.9s-0.1-0.7-0.4-0.9c-0.3-0.2-0.6-0.3-1.1-0.3h-1.8V15.5z "></path> <path class="st1" d="M114.3,22.3V10.9h2.3v11.4H114.3z"></path> <path class="st1" d="M119.3,22.3V10.9h3.7c1.6,0,3,0.5,4.1,1.6c1.1,1.1,1.7,2.4,1.7,4c0,1.6-0.6,2.9-1.7,4 c-1.1,1.1-2.5,1.6-4.1,1.6H119.3z M121.6,20.2h1.4c1,0,1.9-0.3,2.5-1c0.7-0.7,1-1.5,1-2.5c0-1-0.3-1.8-1-2.5c-0.7-0.7-1.5-1-2.5-1 h-1.4V20.2z"></path> <path class="st1" d="M129,22.3l4.9-11.4h2.1l4.9,11.4h-2.4l-1.1-2.6h-4.8l-1.1,2.6H129z M134.9,14l-1.6,3.7h3.1L134.9,14z"></path> <path class="st1" d="M143.9,22.3v-4.8l-4.2-6.6h2.7l2.7,4.3l2.7-4.3h2.7l-4.2,6.6v4.8H143.9z"></path> <path class="st1" d="M159.1,22.5c-0.9,0-1.7-0.2-2.4-0.5s-1.3-0.9-1.7-1.5l1.8-1.5c0.3,0.4,0.6,0.7,1.1,1s0.9,0.4,1.4,0.4 c0.5,0,0.8-0.1,1.1-0.3c0.3-0.2,0.4-0.5,0.4-0.8c0-0.3-0.1-0.6-0.4-0.8s-0.7-0.4-1.2-0.6l-1-0.3c-1.9-0.7-2.8-1.7-2.8-3.2 c0-1,0.4-1.9,1.1-2.5c0.7-0.6,1.6-0.9,2.8-0.9c1.4,0,2.6,0.5,3.6,1.6l-1.6,1.6c-0.5-0.7-1.2-1-2-1c-0.4,0-0.8,0.1-1.1,0.3 c-0.3,0.2-0.4,0.4-0.4,0.7c0,0.3,0.1,0.6,0.4,0.8c0.3,0.2,0.7,0.4,1.4,0.6l0.9,0.3c1.8,0.7,2.7,1.8,2.7,3.4c0,1-0.4,1.8-1.1,2.5 S160.3,22.5,159.1,22.5z"></path> <path class="st1" d="M163.7,22.3l4.9-11.4h2.1l4.9,11.4h-2.4l-1.1-2.6h-4.8l-1.1,2.6H163.7z M169.6,14l-1.6,3.7h3.1L169.6,14z"></path> <path class="st1" d="M176.9,22.3V10.9h2.3v9.2h4.9v2.2H176.9z"></path> <path class="st1" d="M185.6,22.3V10.9h7.1v2.2h-4.8v2.3h3.8v2.2h-3.8v2.4h4.8v2.2H185.6z"></path> <path class="st1" d="M198.1,22.5c-0.9,0-1.7-0.2-2.4-0.5s-1.3-0.9-1.7-1.5l1.8-1.5c0.3,0.4,0.6,0.7,1.1,1s0.9,0.4,1.4,0.4 c0.5,0,0.8-0.1,1.1-0.3c0.3-0.2,0.4-0.5,0.4-0.8c0-0.3-0.1-0.6-0.4-0.8s-0.7-0.4-1.2-0.6l-1-0.3c-1.9-0.7-2.8-1.7-2.8-3.2 c0-1,0.4-1.9,1.1-2.5c0.7-0.6,1.6-0.9,2.8-0.9c1.4,0,2.6,0.5,3.6,1.6l-1.6,1.6c-0.5-0.7-1.2-1-2-1c-0.4,0-0.8,0.1-1.1,0.3 c-0.3,0.2-0.4,0.4-0.4,0.7c0,0.3,0.1,0.6,0.4,0.8c0.3,0.2,0.7,0.4,1.4,0.6l0.9,0.3c1.8,0.7,2.7,1.8,2.7,3.4c0,1-0.4,1.8-1.1,2.5 S199.3,22.5,198.1,22.5z"></path> </g> <g class="st2"> <path class="st1" d="M223.7,23.2l6.2-13.1h2l-6.2,13.1H223.7z"></path> <path class="st1" d="M229.8,23.2l6.2-13.1h2l-6.2,13.1H229.8z"></path> </g> <g> <path class="st1" d="M259.4,22.3V10.9h4.2c0.9,0,1.7,0.3,2.4,1c0.7,0.6,1,1.4,1,2.3c0,0.8-0.3,1.5-0.9,2c1.1,0.6,1.7,1.5,1.7,2.7 c0,0.9-0.3,1.7-1,2.4c-0.7,0.6-1.5,1-2.5,1H259.4z M261.7,15.6h1.6c0.4,0,0.7-0.1,1-0.4c0.2-0.2,0.4-0.5,0.4-0.9 c0-0.4-0.1-0.7-0.4-0.9c-0.3-0.3-0.6-0.4-1-0.4h-1.6V15.6z M261.7,20.2h2.3c0.4,0,0.8-0.1,1-0.4c0.3-0.2,0.4-0.6,0.4-0.9 s-0.1-0.7-0.4-0.9c-0.3-0.2-0.6-0.4-1-0.4h-2.3V20.2z"></path> <path class="st1" d="M269.7,22.3V10.9h2.3v9.2h4.9v2.2H269.7z"></path> <path class="st1" d="M277.8,22.3l4.9-11.4h2.1l4.9,11.4h-2.4l-1.1-2.6h-4.8l-1.1,2.6H277.8z M283.7,14l-1.6,3.7h3.1L283.7,14z"></path> <path class="st1" d="M295.6,22.5c-1.6,0-3-0.6-4.2-1.7c-1.1-1.1-1.7-2.5-1.7-4.2s0.6-3,1.7-4.2c1.1-1.1,2.5-1.7,4.2-1.7 c1.1,0,2.2,0.3,3.1,0.8c0.9,0.5,1.7,1.3,2.1,2.2l-2,1.1c-0.7-1.3-1.8-1.9-3.2-1.9c-1,0-1.8,0.4-2.5,1.1c-0.7,0.7-1,1.6-1,2.6 c0,1,0.3,1.9,1,2.6c0.7,0.7,1.5,1.1,2.5,1.1c1.4,0,2.5-0.6,3.2-1.9l2,1.1c-0.5,0.9-1.2,1.7-2.1,2.2S296.8,22.5,295.6,22.5z"></path> <path class="st1" d="M309.8,22.3l-4.9-5.2v5.2h-2.3V10.9h2.3v4.8l4.1-4.8h2.9l-4.7,5.5l5.6,5.9H309.8z"></path> <path class="st1" d="M317.6,22.3V10.9h6.9v2.2h-4.6v2.4h3.6v2.2h-3.6v4.6H317.6z"></path> <path class="st1" d="M326.2,22.3V10.9h4.4c1,0,1.9,0.3,2.5,1c0.6,0.6,1,1.4,1,2.4c0,1.5-0.8,2.5-2.3,3l4.1,5H333l-3.9-4.8h-0.6v4.8 H326.2z M328.5,15.5h1.8c0.4,0,0.8-0.1,1.1-0.3c0.3-0.2,0.4-0.5,0.4-0.9s-0.1-0.7-0.4-0.9c-0.3-0.2-0.6-0.3-1.1-0.3h-1.8V15.5z"></path> <path class="st1" d="M337,22.3V10.9h2.3v11.4H337z"></path> <path class="st1" d="M342,22.3V10.9h3.7c1.6,0,3,0.5,4.1,1.6c1.1,1.1,1.7,2.4,1.7,4c0,1.6-0.6,2.9-1.7,4c-1.1,1.1-2.5,1.6-4.1,1.6 H342z M344.3,20.2h1.4c1,0,1.9-0.3,2.5-1c0.7-0.7,1-1.5,1-2.5c0-1-0.3-1.8-1-2.5c-0.7-0.7-1.5-1-2.5-1h-1.4V20.2z"></path> <path class="st1" d="M351.7,22.3l4.9-11.4h2.1l4.9,11.4h-2.4l-1.1-2.6h-4.8l-1.1,2.6H351.7z M357.6,14l-1.6,3.7h3.1L357.6,14z"></path> <path class="st1" d="M366.6,22.3v-4.8l-4.2-6.6h2.7l2.7,4.3l2.7-4.3h2.7l-4.2,6.6v4.8H366.6z"></path> <path class="st1" d="M381.8,22.5c-0.9,0-1.7-0.2-2.4-0.5s-1.3-0.9-1.7-1.5l1.8-1.5c0.3,0.4,0.6,0.7,1.1,1s0.9,0.4,1.4,0.4 c0.5,0,0.8-0.1,1.1-0.3c0.3-0.2,0.4-0.5,0.4-0.8c0-0.3-0.1-0.6-0.4-0.8s-0.7-0.4-1.2-0.6l-1-0.3c-1.9-0.7-2.8-1.7-2.8-3.2 c0-1,0.4-1.9,1.1-2.5c0.7-0.6,1.6-0.9,2.8-0.9c1.4,0,2.6,0.5,3.6,1.6l-1.6,1.6c-0.5-0.7-1.2-1-2-1c-0.4,0-0.8,0.1-1.1,0.3 c-0.3,0.2-0.4,0.4-0.4,0.7c0,0.3,0.1,0.6,0.4,0.8c0.3,0.2,0.7,0.4,1.4,0.6l0.9,0.3c1.8,0.7,2.7,1.8,2.7,3.4c0,1-0.4,1.8-1.1,2.5 S383,22.5,381.8,22.5z"></path> <path class="st1" d="M386.3,22.3l4.9-11.4h2.1l4.9,11.4h-2.4l-1.1-2.6h-4.8l-1.1,2.6H386.3z M392.2,14l-1.6,3.7h3.1L392.2,14z"></path> <path class="st1" d="M399.5,22.3V10.9h2.3v9.2h4.9v2.2H399.5z"></path> <path class="st1" d="M408.3,22.3V10.9h7.1v2.2h-4.8v2.3h3.8v2.2h-3.8v2.4h4.8v2.2H408.3z"></path> <path class="st1" d="M420.8,22.5c-0.9,0-1.7-0.2-2.4-0.5s-1.3-0.9-1.7-1.5l1.8-1.5c0.3,0.4,0.6,0.7,1.1,1s0.9,0.4,1.4,0.4 c0.5,0,0.8-0.1,1.1-0.3c0.3-0.2,0.4-0.5,0.4-0.8c0-0.3-0.1-0.6-0.4-0.8s-0.7-0.4-1.2-0.6l-1-0.3c-1.9-0.7-2.8-1.7-2.8-3.2 c0-1,0.4-1.9,1.1-2.5c0.7-0.6,1.6-0.9,2.8-0.9c1.4,0,2.6,0.5,3.6,1.6l-1.6,1.6c-0.5-0.7-1.2-1-2-1c-0.4,0-0.8,0.1-1.1,0.3 c-0.3,0.2-0.4,0.4-0.4,0.7c0,0.3,0.1,0.6,0.4,0.8c0.3,0.2,0.7,0.4,1.4,0.6l0.9,0.3c1.8,0.7,2.7,1.8,2.7,3.4c0,1-0.4,1.8-1.1,2.5 S422,22.5,420.8,22.5z"></path> </g> <g class="st2"> <path class="st1" d="M446.4,23.2l6.2-13.1h2l-6.2,13.1H446.4z"></path> <path class="st1" d="M452.4,23.2l6.2-13.1h2l-6.2,13.1H452.4z"></path> </g> <g> <path class="st1" d="M481.4,22.3V10.9h4.2c0.9,0,1.7,0.3,2.4,1c0.7,0.6,1,1.4,1,2.3c0,0.8-0.3,1.5-0.9,2c1.1,0.6,1.7,1.5,1.7,2.7 c0,0.9-0.3,1.7-1,2.4c-0.7,0.6-1.5,1-2.5,1H481.4z M483.7,15.6h1.6c0.4,0,0.7-0.1,1-0.4c0.2-0.2,0.4-0.5,0.4-0.9 c0-0.4-0.1-0.7-0.4-0.9c-0.3-0.3-0.6-0.4-1-0.4h-1.6V15.6z M483.7,20.2h2.3c0.4,0,0.8-0.1,1-0.4c0.3-0.2,0.4-0.6,0.4-0.9 s-0.1-0.7-0.4-0.9c-0.3-0.2-0.6-0.4-1-0.4h-2.3V20.2z"></path> <path class="st1" d="M491.7,22.3V10.9h2.3v9.2h4.9v2.2H491.7z"></path> <path class="st1" d="M499.8,22.3l4.9-11.4h2.1l4.9,11.4h-2.4l-1.1-2.6h-4.8l-1.1,2.6H499.8z M505.7,14l-1.6,3.7h3.1L505.7,14z"></path> <path class="st1" d="M517.6,22.5c-1.6,0-3-0.6-4.2-1.7c-1.1-1.1-1.7-2.5-1.7-4.2s0.6-3,1.7-4.2c1.1-1.1,2.5-1.7,4.2-1.7 c1.1,0,2.2,0.3,3.1,0.8c0.9,0.5,1.7,1.3,2.1,2.2l-2,1.1c-0.7-1.3-1.8-1.9-3.2-1.9c-1,0-1.8,0.4-2.5,1.1c-0.7,0.7-1,1.6-1,2.6 c0,1,0.3,1.9,1,2.6c0.7,0.7,1.5,1.1,2.5,1.1c1.4,0,2.5-0.6,3.2-1.9l2,1.1c-0.5,0.9-1.2,1.7-2.1,2.2S518.8,22.5,517.6,22.5z"></path> <path class="st1" d="M531.8,22.3l-4.9-5.2v5.2h-2.3V10.9h2.3v4.8l4.1-4.8h2.9l-4.7,5.5l5.6,5.9H531.8z"></path> <path class="st1" d="M539.6,22.3V10.9h6.9v2.2h-4.6v2.4h3.6v2.2h-3.6v4.6H539.6z"></path> <path class="st1" d="M548.2,22.3V10.9h4.4c1,0,1.9,0.3,2.5,1c0.6,0.6,1,1.4,1,2.4c0,1.5-0.8,2.5-2.3,3l4.1,5H555l-3.9-4.8h-0.6v4.8 H548.2z M550.5,15.5h1.8c0.4,0,0.8-0.1,1.1-0.3c0.3-0.2,0.4-0.5,0.4-0.9s-0.1-0.7-0.4-0.9c-0.3-0.2-0.6-0.3-1.1-0.3h-1.8V15.5z"></path> <path class="st1" d="M559,22.3V10.9h2.3v11.4H559z"></path> <path class="st1" d="M564,22.3V10.9h3.7c1.6,0,3,0.5,4.1,1.6c1.1,1.1,1.7,2.4,1.7,4c0,1.6-0.6,2.9-1.7,4c-1.1,1.1-2.5,1.6-4.1,1.6 H564z M566.3,20.2h1.4c1,0,1.9-0.3,2.5-1c0.7-0.7,1-1.5,1-2.5c0-1-0.3-1.8-1-2.5c-0.7-0.7-1.5-1-2.5-1h-1.4V20.2z"></path> <path class="st1" d="M573.7,22.3l4.9-11.4h2.1l4.9,11.4h-2.4l-1.1-2.6h-4.8l-1.1,2.6H573.7z M579.6,14l-1.6,3.7h3.1L579.6,14z"></path> <path class="st1" d="M588.6,22.3v-4.8l-4.2-6.6h2.7l2.7,4.3l2.7-4.3h2.7l-4.2,6.6v4.8H588.6z"></path> <path class="st1" d="M603.8,22.5c-0.9,0-1.7-0.2-2.4-0.5s-1.3-0.9-1.7-1.5l1.8-1.5c0.3,0.4,0.6,0.7,1.1,1s0.9,0.4,1.4,0.4 c0.5,0,0.8-0.1,1.1-0.3c0.3-0.2,0.4-0.5,0.4-0.8c0-0.3-0.1-0.6-0.4-0.8s-0.7-0.4-1.2-0.6l-1-0.3c-1.9-0.7-2.8-1.7-2.8-3.2 c0-1,0.4-1.9,1.1-2.5c0.7-0.6,1.6-0.9,2.8-0.9c1.4,0,2.6,0.5,3.6,1.6l-1.6,1.6c-0.5-0.7-1.2-1-2-1c-0.4,0-0.8,0.1-1.1,0.3 c-0.3,0.2-0.4,0.4-0.4,0.7c0,0.3,0.1,0.6,0.4,0.8c0.3,0.2,0.7,0.4,1.4,0.6l0.9,0.3c1.8,0.7,2.7,1.8,2.7,3.4c0,1-0.4,1.8-1.1,2.5 S605,22.5,603.8,22.5z"></path> <path class="st1" d="M608.3,22.3l4.9-11.4h2.1l4.9,11.4h-2.4l-1.1-2.6h-4.8l-1.1,2.6H608.3z M614.2,14l-1.6,3.7h3.1L614.2,14z"></path> <path class="st1" d="M621.5,22.3V10.9h2.3v9.2h4.9v2.2H621.5z"></path> <path class="st1" d="M630.3,22.3V10.9h7.1v2.2h-4.8v2.3h3.8v2.2h-3.8v2.4h4.8v2.2H630.3z"></path> <path class="st1" d="M642.8,22.5c-0.9,0-1.7-0.2-2.4-0.5s-1.3-0.9-1.7-1.5l1.8-1.5c0.3,0.4,0.6,0.7,1.1,1s0.9,0.4,1.4,0.4 c0.5,0,0.8-0.1,1.1-0.3c0.3-0.2,0.4-0.5,0.4-0.8c0-0.3-0.1-0.6-0.4-0.8s-0.7-0.4-1.2-0.6l-1-0.3c-1.9-0.7-2.8-1.7-2.8-3.2 c0-1,0.4-1.9,1.1-2.5c0.7-0.6,1.6-0.9,2.8-0.9c1.4,0,2.6,0.5,3.6,1.6l-1.6,1.6c-0.5-0.7-1.2-1-2-1c-0.4,0-0.8,0.1-1.1,0.3 c-0.3,0.2-0.4,0.4-0.4,0.7c0,0.3,0.1,0.6,0.4,0.8c0.3,0.2,0.7,0.4,1.4,0.6l0.9,0.3c1.8,0.7,2.7,1.8,2.7,3.4c0,1-0.4,1.8-1.1,2.5 S644,22.5,642.8,22.5z"></path> </g> <g class="st2"> <path class="st1" d="M668.4,23.2l6.2-13.1h2l-6.2,13.1H668.4z"></path> <path class="st1" d="M674.4,23.2l6.2-13.1h2l-6.2,13.1H674.4z"></path> </g> <g> <path class="st1" d="M703.7,22.3V10.9h4.2c0.9,0,1.7,0.3,2.4,1c0.7,0.6,1,1.4,1,2.3c0,0.8-0.3,1.5-0.9,2c1.1,0.6,1.7,1.5,1.7,2.7 c0,0.9-0.3,1.7-1,2.4c-0.7,0.6-1.5,1-2.5,1H703.7z M706,15.6h1.6c0.4,0,0.7-0.1,1-0.4c0.2-0.2,0.4-0.5,0.4-0.9 c0-0.4-0.1-0.7-0.4-0.9c-0.3-0.3-0.6-0.4-1-0.4H706V15.6z M706,20.2h2.3c0.4,0,0.8-0.1,1-0.4c0.3-0.2,0.4-0.6,0.4-0.9 s-0.1-0.7-0.4-0.9c-0.3-0.2-0.6-0.4-1-0.4H706V20.2z"></path> <path class="st1" d="M714,22.3V10.9h2.3v9.2h4.9v2.2H714z"></path> <path class="st1" d="M722.1,22.3l4.9-11.4h2.1l4.9,11.4h-2.4l-1.1-2.6h-4.8l-1.1,2.6H722.1z M728,14l-1.6,3.7h3.1L728,14z"></path> <path class="st1" d="M740,22.5c-1.6,0-3-0.6-4.2-1.7c-1.1-1.1-1.7-2.5-1.7-4.2s0.6-3,1.7-4.2c1.1-1.1,2.5-1.7,4.2-1.7 c1.1,0,2.2,0.3,3.1,0.8c0.9,0.5,1.7,1.3,2.1,2.2l-2,1.1c-0.7-1.3-1.8-1.9-3.2-1.9c-1,0-1.8,0.4-2.5,1.1c-0.7,0.7-1,1.6-1,2.6 c0,1,0.3,1.9,1,2.6c0.7,0.7,1.5,1.1,2.5,1.1c1.4,0,2.5-0.6,3.2-1.9l2,1.1c-0.5,0.9-1.2,1.7-2.1,2.2S741.1,22.5,740,22.5z"></path> <path class="st1" d="M754.1,22.3l-4.9-5.2v5.2h-2.3V10.9h2.3v4.8l4.1-4.8h2.9l-4.7,5.5l5.6,5.9H754.1z"></path> <path class="st1" d="M762,22.3V10.9h6.9v2.2h-4.6v2.4h3.6v2.2h-3.6v4.6H762z"></path> <path class="st1" d="M770.6,22.3V10.9h4.4c1,0,1.9,0.3,2.5,1c0.6,0.6,1,1.4,1,2.4c0,1.5-0.8,2.5-2.3,3l4.1,5h-2.8l-3.9-4.8h-0.6 v4.8H770.6z M772.9,15.5h1.8c0.4,0,0.8-0.1,1.1-0.3c0.3-0.2,0.4-0.5,0.4-0.9s-0.1-0.7-0.4-0.9c-0.3-0.2-0.6-0.3-1.1-0.3h-1.8V15.5z "></path> <path class="st1" d="M781.3,22.3V10.9h2.3v11.4H781.3z"></path> <path class="st1" d="M786.3,22.3V10.9h3.7c1.6,0,3,0.5,4.1,1.6c1.1,1.1,1.7,2.4,1.7,4c0,1.6-0.6,2.9-1.7,4 c-1.1,1.1-2.5,1.6-4.1,1.6H786.3z M788.6,20.2h1.4c1,0,1.9-0.3,2.5-1c0.7-0.7,1-1.5,1-2.5c0-1-0.3-1.8-1-2.5c-0.7-0.7-1.5-1-2.5-1 h-1.4V20.2z"></path> <path class="st1" d="M796,22.3l4.9-11.4h2.1l4.9,11.4h-2.4l-1.1-2.6h-4.8l-1.1,2.6H796z M801.9,14l-1.6,3.7h3.1L801.9,14z"></path> <path class="st1" d="M810.9,22.3v-4.8l-4.2-6.6h2.7l2.7,4.3l2.7-4.3h2.7l-4.2,6.6v4.8H810.9z"></path> <path class="st1" d="M826.1,22.5c-0.9,0-1.7-0.2-2.4-0.5s-1.3-0.9-1.7-1.5l1.8-1.5c0.3,0.4,0.6,0.7,1.1,1s0.9,0.4,1.4,0.4 c0.5,0,0.8-0.1,1.1-0.3c0.3-0.2,0.4-0.5,0.4-0.8c0-0.3-0.1-0.6-0.4-0.8s-0.7-0.4-1.2-0.6l-1-0.3c-1.9-0.7-2.8-1.7-2.8-3.2 c0-1,0.4-1.9,1.1-2.5c0.7-0.6,1.6-0.9,2.8-0.9c1.4,0,2.6,0.5,3.6,1.6l-1.6,1.6c-0.5-0.7-1.2-1-2-1c-0.4,0-0.8,0.1-1.1,0.3 c-0.3,0.2-0.4,0.4-0.4,0.7c0,0.3,0.1,0.6,0.4,0.8c0.3,0.2,0.7,0.4,1.4,0.6l0.9,0.3c1.8,0.7,2.7,1.8,2.7,3.4c0,1-0.4,1.8-1.1,2.5 S827.3,22.5,826.1,22.5z"></path> <path class="st1" d="M830.7,22.3l4.9-11.4h2.1l4.9,11.4h-2.4l-1.1-2.6h-4.8l-1.1,2.6H830.7z M836.6,14l-1.6,3.7h3.1L836.6,14z"></path> <path class="st1" d="M843.9,22.3V10.9h2.3v9.2h4.9v2.2H843.9z"></path> <path class="st1" d="M852.6,22.3V10.9h7.1v2.2h-4.8v2.3h3.8v2.2h-3.8v2.4h4.8v2.2H852.6z"></path> <path class="st1" d="M865.1,22.5c-0.9,0-1.7-0.2-2.4-0.5s-1.3-0.9-1.7-1.5l1.8-1.5c0.3,0.4,0.6,0.7,1.1,1s0.9,0.4,1.4,0.4 c0.5,0,0.8-0.1,1.1-0.3c0.3-0.2,0.4-0.5,0.4-0.8c0-0.3-0.1-0.6-0.4-0.8s-0.7-0.4-1.2-0.6l-1-0.3c-1.9-0.7-2.8-1.7-2.8-3.2 c0-1,0.4-1.9,1.1-2.5c0.7-0.6,1.6-0.9,2.8-0.9c1.4,0,2.6,0.5,3.6,1.6l-1.6,1.6c-0.5-0.7-1.2-1-2-1c-0.4,0-0.8,0.1-1.1,0.3 c-0.3,0.2-0.4,0.4-0.4,0.7c0,0.3,0.1,0.6,0.4,0.8c0.3,0.2,0.7,0.4,1.4,0.6l0.9,0.3c1.8,0.7,2.7,1.8,2.7,3.4c0,1-0.4,1.8-1.1,2.5 S866.3,22.5,865.1,22.5z"></path> </g> <g class="st2"> <path class="st1" d="M890.7,23.2l6.2-13.1h2l-6.2,13.1H890.7z"></path> <path class="st1" d="M896.8,23.2l6.2-13.1h2l-6.2,13.1H896.8z"></path> </g> <g> <path class="st1" d="M3372,22.3V10.9h4.2c0.9,0,1.8,0.3,2.4,1s1,1.4,1,2.3c0,0.8-0.3,1.5-0.9,2c1.1,0.6,1.7,1.5,1.7,2.7 c0,0.9-0.3,1.7-1,2.4s-1.5,1-2.5,1H3372z M3374.3,15.6h1.6c0.4,0,0.7-0.1,1-0.4c0.2-0.2,0.4-0.5,0.4-0.9c0-0.4-0.1-0.7-0.4-0.9 c-0.3-0.3-0.6-0.4-1-0.4h-1.6V15.6z M3374.3,20.2h2.3c0.4,0,0.8-0.1,1-0.4c0.3-0.2,0.4-0.6,0.4-0.9s-0.1-0.7-0.4-0.9 c-0.3-0.2-0.6-0.4-1-0.4h-2.3V20.2z"></path> <path class="st1" d="M3382.3,22.3V10.9h2.3v9.2h4.9v2.2H3382.3z"></path> <path class="st1" d="M3390.4,22.3l4.9-11.4h2.1l4.9,11.4h-2.4l-1.1-2.6h-4.8l-1.1,2.6H3390.4z M3396.3,14l-1.6,3.7h3.1L3396.3,14z"></path> <path class="st1" d="M3408.3,22.5c-1.6,0-3-0.6-4.2-1.7c-1.1-1.1-1.7-2.5-1.7-4.2c0-1.6,0.6-3,1.7-4.2s2.5-1.7,4.2-1.7 c1.1,0,2.2,0.3,3.1,0.8c0.9,0.5,1.7,1.3,2.1,2.2l-2,1.1c-0.7-1.3-1.8-1.9-3.2-1.9c-1,0-1.8,0.4-2.5,1.1c-0.7,0.7-1,1.6-1,2.6 c0,1,0.3,1.9,1,2.6c0.7,0.7,1.5,1.1,2.5,1.1c1.4,0,2.5-0.6,3.2-1.9l2,1.1c-0.5,0.9-1.2,1.7-2.1,2.2 C3410.4,22.2,3409.4,22.5,3408.3,22.5z"></path> <path class="st1" d="M3422.4,22.3l-4.9-5.2v5.2h-2.3V10.9h2.3v4.8l4.1-4.8h2.9l-4.7,5.5l5.6,5.9H3422.4z"></path> <path class="st1" d="M3430.2,22.3V10.9h6.9v2.2h-4.6v2.4h3.6v2.2h-3.6v4.6H3430.2z"></path> <path class="st1" d="M3438.8,22.3V10.9h4.4c1,0,1.9,0.3,2.5,1c0.6,0.6,1,1.4,1,2.4c0,1.5-0.8,2.5-2.3,3l4.1,5h-2.8l-3.9-4.8h-0.6 v4.8H3438.8z M3441.2,15.5h1.8c0.4,0,0.8-0.1,1.1-0.3s0.4-0.5,0.4-0.9s-0.1-0.7-0.4-0.9c-0.3-0.2-0.6-0.3-1.1-0.3h-1.8V15.5z"></path> <path class="st1" d="M3449.6,22.3V10.9h2.3v11.4H3449.6z"></path> <path class="st1" d="M3454.6,22.3V10.9h3.7c1.6,0,3,0.5,4.1,1.6s1.7,2.4,1.7,4c0,1.6-0.6,2.9-1.7,4c-1.1,1.1-2.5,1.6-4.1,1.6 H3454.6z M3456.9,20.2h1.4c1,0,1.9-0.3,2.5-1c0.7-0.7,1-1.5,1-2.5c0-1-0.3-1.8-1-2.5c-0.7-0.7-1.5-1-2.5-1h-1.4V20.2z"></path> <path class="st1" d="M3464.3,22.3l4.9-11.4h2.1l4.9,11.4h-2.4l-1.1-2.6h-4.8l-1.1,2.6H3464.3z M3470.2,14l-1.6,3.7h3.1L3470.2,14z"></path> <path class="st1" d="M3479.2,22.3v-4.8l-4.2-6.6h2.7l2.7,4.3l2.7-4.3h2.7l-4.2,6.6v4.8H3479.2z"></path> <path class="st1" d="M3494.4,22.5c-0.9,0-1.7-0.2-2.4-0.5c-0.7-0.4-1.3-0.9-1.7-1.5l1.8-1.5c0.3,0.4,0.6,0.7,1.1,1s0.9,0.4,1.4,0.4 c0.5,0,0.8-0.1,1.1-0.3c0.3-0.2,0.4-0.5,0.4-0.8c0-0.3-0.1-0.6-0.4-0.8s-0.7-0.4-1.2-0.6l-1-0.3c-1.9-0.7-2.8-1.7-2.8-3.2 c0-1,0.4-1.9,1.1-2.5s1.6-0.9,2.8-0.9c1.4,0,2.6,0.5,3.6,1.6l-1.6,1.6c-0.5-0.7-1.2-1-2-1c-0.4,0-0.8,0.1-1.1,0.3 c-0.3,0.2-0.4,0.4-0.4,0.7c0,0.3,0.1,0.6,0.4,0.8s0.7,0.4,1.4,0.6l0.9,0.3c1.8,0.7,2.7,1.8,2.7,3.4c0,1-0.4,1.8-1.1,2.5 S3495.6,22.5,3494.4,22.5z"></path> <path class="st1" d="M3498.9,22.3l4.9-11.4h2.1l4.9,11.4h-2.4l-1.1-2.6h-4.8l-1.1,2.6H3498.9z M3504.9,14l-1.6,3.7h3.1L3504.9,14z"></path> <path class="st1" d="M3512.2,22.3V10.9h2.3v9.2h4.9v2.2H3512.2z"></path> <path class="st1" d="M3520.9,22.3V10.9h7.1v2.2h-4.8v2.3h3.8v2.2h-3.8v2.4h4.8v2.2H3520.9z"></path> <path class="st1" d="M3533.4,22.5c-0.9,0-1.7-0.2-2.4-0.5c-0.7-0.4-1.3-0.9-1.7-1.5l1.8-1.5c0.3,0.4,0.6,0.7,1.1,1s0.9,0.4,1.4,0.4 c0.5,0,0.8-0.1,1.1-0.3c0.3-0.2,0.4-0.5,0.4-0.8c0-0.3-0.1-0.6-0.4-0.8s-0.7-0.4-1.2-0.6l-1-0.3c-1.9-0.7-2.8-1.7-2.8-3.2 c0-1,0.4-1.9,1.1-2.5c0.7-0.6,1.6-0.9,2.8-0.9c1.4,0,2.6,0.5,3.6,1.6l-1.6,1.6c-0.5-0.7-1.2-1-2-1c-0.4,0-0.8,0.1-1.1,0.3 c-0.3,0.2-0.4,0.4-0.4,0.7c0,0.3,0.1,0.6,0.4,0.8c0.3,0.2,0.7,0.4,1.4,0.6l0.9,0.3c1.8,0.7,2.7,1.8,2.7,3.4c0,1-0.4,1.8-1.1,2.5 S3534.6,22.5,3533.4,22.5z"></path> </g> <g class="st2"> <path class="st1" d="M3559,23.2l6.2-13.1h2l-6.2,13.1H3559z"></path> <path class="st1" d="M3565,23.2l6.2-13.1h2l-6.2,13.1H3565z"></path> </g> <g> <path class="st1" d="M3594.7,22.3V10.9h4.2c0.9,0,1.8,0.3,2.4,1s1,1.4,1,2.3c0,0.8-0.3,1.5-0.9,2c1.1,0.6,1.7,1.5,1.7,2.7 c0,0.9-0.3,1.7-1,2.4s-1.5,1-2.5,1H3594.7z M3597,15.6h1.6c0.4,0,0.7-0.1,1-0.4c0.2-0.2,0.4-0.5,0.4-0.9c0-0.4-0.1-0.7-0.4-0.9 c-0.3-0.3-0.6-0.4-1-0.4h-1.6V15.6z M3597,20.2h2.3c0.4,0,0.8-0.1,1-0.4c0.3-0.2,0.4-0.6,0.4-0.9s-0.1-0.7-0.4-0.9 c-0.3-0.2-0.6-0.4-1-0.4h-2.3V20.2z"></path> <path class="st1" d="M3604.9,22.3V10.9h2.3v9.2h4.9v2.2H3604.9z"></path> <path class="st1" d="M3613,22.3l4.9-11.4h2.1l4.9,11.4h-2.4l-1.1-2.6h-4.8l-1.1,2.6H3613z M3619,14l-1.6,3.7h3.1L3619,14z"></path> <path class="st1" d="M3630.9,22.5c-1.6,0-3-0.6-4.2-1.7c-1.1-1.1-1.7-2.5-1.7-4.2c0-1.6,0.6-3,1.7-4.2c1.1-1.1,2.5-1.7,4.2-1.7 c1.1,0,2.2,0.3,3.1,0.8c0.9,0.5,1.7,1.3,2.1,2.2l-2,1.1c-0.7-1.3-1.8-1.9-3.2-1.9c-1,0-1.8,0.4-2.5,1.1c-0.7,0.7-1,1.6-1,2.6 c0,1,0.3,1.9,1,2.6c0.7,0.7,1.5,1.1,2.5,1.1c1.4,0,2.5-0.6,3.2-1.9l2,1.1c-0.5,0.9-1.2,1.7-2.1,2.2 C3633.1,22.2,3632.1,22.5,3630.9,22.5z"></path> <path class="st1" d="M3645.1,22.3l-4.9-5.2v5.2h-2.3V10.9h2.3v4.8l4.1-4.8h2.9l-4.7,5.5l5.6,5.9H3645.1z"></path> <path class="st1" d="M3652.9,22.3V10.9h6.9v2.2h-4.6v2.4h3.6v2.2h-3.6v4.6H3652.9z"></path> <path class="st1" d="M3661.5,22.3V10.9h4.4c1,0,1.9,0.3,2.5,1c0.6,0.6,1,1.4,1,2.4c0,1.5-0.8,2.5-2.3,3l4.1,5h-2.8l-3.9-4.8h-0.6 v4.8H3661.5z M3663.8,15.5h1.8c0.4,0,0.8-0.1,1.1-0.3c0.3-0.2,0.4-0.5,0.4-0.9s-0.1-0.7-0.4-0.9c-0.3-0.2-0.6-0.3-1.1-0.3h-1.8 V15.5z"></path> <path class="st1" d="M3672.3,22.3V10.9h2.3v11.4H3672.3z"></path> <path class="st1" d="M3677.2,22.3V10.9h3.7c1.6,0,3,0.5,4.1,1.6s1.7,2.4,1.7,4c0,1.6-0.6,2.9-1.7,4c-1.1,1.1-2.5,1.6-4.1,1.6 H3677.2z M3679.6,20.2h1.4c1,0,1.9-0.3,2.5-1s1-1.5,1-2.5c0-1-0.3-1.8-1-2.5s-1.5-1-2.5-1h-1.4V20.2z"></path> <path class="st1" d="M3687,22.3l4.9-11.4h2.1l4.9,11.4h-2.4l-1.1-2.6h-4.8l-1.1,2.6H3687z M3692.9,14l-1.6,3.7h3.1L3692.9,14z"></path> <path class="st1" d="M3701.9,22.3v-4.8l-4.2-6.6h2.7l2.7,4.3l2.7-4.3h2.7l-4.2,6.6v4.8H3701.9z"></path> <path class="st1" d="M3717.1,22.5c-0.9,0-1.7-0.2-2.4-0.5c-0.7-0.4-1.3-0.9-1.7-1.5l1.8-1.5c0.3,0.4,0.6,0.7,1.1,1s0.9,0.4,1.4,0.4 c0.5,0,0.8-0.1,1.1-0.3c0.3-0.2,0.4-0.5,0.4-0.8c0-0.3-0.1-0.6-0.4-0.8c-0.3-0.2-0.7-0.4-1.2-0.6l-1-0.3c-1.9-0.7-2.8-1.7-2.8-3.2 c0-1,0.4-1.9,1.1-2.5s1.6-0.9,2.8-0.9c1.4,0,2.6,0.5,3.6,1.6l-1.6,1.6c-0.5-0.7-1.2-1-2-1c-0.4,0-0.8,0.1-1.1,0.3 c-0.3,0.2-0.4,0.4-0.4,0.7c0,0.3,0.1,0.6,0.4,0.8s0.7,0.4,1.4,0.6l0.9,0.3c1.8,0.7,2.7,1.8,2.7,3.4c0,1-0.4,1.8-1.1,2.5 C3719.2,22.2,3718.3,22.5,3717.1,22.5z"></path> <path class="st1" d="M3721.6,22.3l4.9-11.4h2.1l4.9,11.4h-2.4l-1.1-2.6h-4.8l-1.1,2.6H3721.6z M3727.5,14l-1.6,3.7h3.1L3727.5,14z"></path> <path class="st1" d="M3734.8,22.3V10.9h2.3v9.2h4.9v2.2H3734.8z"></path> <path class="st1" d="M3743.5,22.3V10.9h7.1v2.2h-4.8v2.3h3.8v2.2h-3.8v2.4h4.8v2.2H3743.5z"></path> <path class="st1" d="M3756.1,22.5c-0.9,0-1.7-0.2-2.4-0.5c-0.7-0.4-1.3-0.9-1.7-1.5l1.8-1.5c0.3,0.4,0.6,0.7,1.1,1s0.9,0.4,1.4,0.4 c0.5,0,0.8-0.1,1.1-0.3c0.3-0.2,0.4-0.5,0.4-0.8c0-0.3-0.1-0.6-0.4-0.8c-0.3-0.2-0.7-0.4-1.2-0.6l-1-0.3c-1.9-0.7-2.8-1.7-2.8-3.2 c0-1,0.4-1.9,1.1-2.5s1.6-0.9,2.8-0.9c1.4,0,2.6,0.5,3.6,1.6l-1.6,1.6c-0.5-0.7-1.2-1-2-1c-0.4,0-0.8,0.1-1.1,0.3 c-0.3,0.2-0.4,0.4-0.4,0.7c0,0.3,0.1,0.6,0.4,0.8s0.7,0.4,1.4,0.6l0.9,0.3c1.8,0.7,2.7,1.8,2.7,3.4c0,1-0.4,1.8-1.1,2.5 C3758.2,22.2,3757.2,22.5,3756.1,22.5z"></path> </g> <g> <path class="st1" d="M2705.1,22.3V10.9h4.2c0.9,0,1.8,0.3,2.4,1s1,1.4,1,2.3c0,0.8-0.3,1.5-0.9,2c1.1,0.6,1.7,1.5,1.7,2.7 c0,0.9-0.3,1.7-1,2.4s-1.5,1-2.5,1H2705.1z M2707.5,15.6h1.6c0.4,0,0.7-0.1,1-0.4c0.2-0.2,0.4-0.5,0.4-0.9c0-0.4-0.1-0.7-0.4-0.9 c-0.3-0.3-0.6-0.4-1-0.4h-1.6V15.6z M2707.5,20.2h2.3c0.4,0,0.8-0.1,1-0.4c0.3-0.2,0.4-0.6,0.4-0.9s-0.1-0.7-0.4-0.9 c-0.3-0.2-0.6-0.4-1-0.4h-2.3V20.2z"></path> <path class="st1" d="M2715.4,22.3V10.9h2.3v9.2h4.9v2.2H2715.4z"></path> <path class="st1" d="M2723.5,22.3l4.9-11.4h2.1l4.9,11.4h-2.4l-1.1-2.6h-4.8l-1.1,2.6H2723.5z M2729.4,14l-1.6,3.7h3.1L2729.4,14z"></path> <path class="st1" d="M2741.4,22.5c-1.6,0-3-0.6-4.2-1.7c-1.1-1.1-1.7-2.5-1.7-4.2s0.6-3,1.7-4.2c1.1-1.1,2.5-1.7,4.2-1.7 c1.1,0,2.2,0.3,3.1,0.8c0.9,0.5,1.7,1.3,2.1,2.2l-2,1.1c-0.7-1.3-1.8-1.9-3.2-1.9c-1,0-1.8,0.4-2.5,1.1c-0.7,0.7-1,1.6-1,2.6 c0,1,0.3,1.9,1,2.6c0.7,0.7,1.5,1.1,2.5,1.1c1.4,0,2.5-0.6,3.2-1.9l2,1.1c-0.5,0.9-1.2,1.7-2.1,2.2 C2743.6,22.2,2742.5,22.5,2741.4,22.5z"></path> <path class="st1" d="M2755.6,22.3l-4.9-5.2v5.2h-2.3V10.9h2.3v4.8l4.1-4.8h2.9l-4.7,5.5l5.6,5.9H2755.6z"></path> <path class="st1" d="M2763.4,22.3V10.9h6.9v2.2h-4.6v2.4h3.6v2.2h-3.6v4.6H2763.4z"></path> <path class="st1" d="M2772,22.3V10.9h4.4c1,0,1.9,0.3,2.5,1c0.6,0.6,1,1.4,1,2.4c0,1.5-0.8,2.5-2.3,3l4.1,5h-2.8l-3.9-4.8h-0.6v4.8 H2772z M2774.3,15.5h1.8c0.4,0,0.8-0.1,1.1-0.3c0.3-0.2,0.4-0.5,0.4-0.9s-0.1-0.7-0.4-0.9c-0.3-0.2-0.6-0.3-1.1-0.3h-1.8V15.5z"></path> <path class="st1" d="M2782.7,22.3V10.9h2.3v11.4H2782.7z"></path> <path class="st1" d="M2787.7,22.3V10.9h3.7c1.6,0,3,0.5,4.1,1.6s1.7,2.4,1.7,4c0,1.6-0.6,2.9-1.7,4c-1.1,1.1-2.5,1.6-4.1,1.6 H2787.7z M2790,20.2h1.4c1,0,1.9-0.3,2.5-1s1-1.5,1-2.5c0-1-0.3-1.8-1-2.5s-1.5-1-2.5-1h-1.4V20.2z"></path> <path class="st1" d="M2797.4,22.3l4.9-11.4h2.1l4.9,11.4h-2.4l-1.1-2.6h-4.8l-1.1,2.6H2797.4z M2803.3,14l-1.6,3.7h3.1L2803.3,14z"></path> <path class="st1" d="M2812.3,22.3v-4.8l-4.2-6.6h2.7l2.7,4.3l2.7-4.3h2.7l-4.2,6.6v4.8H2812.3z"></path> <path class="st1" d="M2827.5,22.5c-0.9,0-1.7-0.2-2.4-0.5c-0.7-0.4-1.3-0.9-1.7-1.5l1.8-1.5c0.3,0.4,0.6,0.7,1.1,1s0.9,0.4,1.4,0.4 c0.5,0,0.8-0.1,1.1-0.3c0.3-0.2,0.4-0.5,0.4-0.8c0-0.3-0.1-0.6-0.4-0.8c-0.3-0.2-0.7-0.4-1.2-0.6l-1-0.3c-1.9-0.7-2.8-1.7-2.8-3.2 c0-1,0.4-1.9,1.1-2.5s1.6-0.9,2.8-0.9c1.4,0,2.6,0.5,3.6,1.6l-1.6,1.6c-0.5-0.7-1.2-1-2-1c-0.4,0-0.8,0.1-1.1,0.3 c-0.3,0.2-0.4,0.4-0.4,0.7c0,0.3,0.1,0.6,0.4,0.8s0.7,0.4,1.4,0.6l0.9,0.3c1.8,0.7,2.7,1.8,2.7,3.4c0,1-0.4,1.8-1.1,2.5 C2829.7,22.2,2828.7,22.5,2827.5,22.5z"></path> <path class="st1" d="M2832.1,22.3l4.9-11.4h2.1l4.9,11.4h-2.4l-1.1-2.6h-4.8l-1.1,2.6H2832.1z M2838,14l-1.6,3.7h3.1L2838,14z"></path> <path class="st1" d="M2845.3,22.3V10.9h2.3v9.2h4.9v2.2H2845.3z"></path> <path class="st1" d="M2854,22.3V10.9h7.1v2.2h-4.8v2.3h3.8v2.2h-3.8v2.4h4.8v2.2H2854z"></path> <path class="st1" d="M2866.5,22.5c-0.9,0-1.7-0.2-2.4-0.5c-0.7-0.4-1.3-0.9-1.7-1.5l1.8-1.5c0.3,0.4,0.6,0.7,1.1,1s0.9,0.4,1.4,0.4 c0.5,0,0.8-0.1,1.1-0.3c0.3-0.2,0.4-0.5,0.4-0.8c0-0.3-0.1-0.6-0.4-0.8c-0.3-0.2-0.7-0.4-1.2-0.6l-1-0.3c-1.9-0.7-2.8-1.7-2.8-3.2 c0-1,0.4-1.9,1.1-2.5s1.6-0.9,2.8-0.9c1.4,0,2.6,0.5,3.6,1.6l-1.6,1.6c-0.5-0.7-1.2-1-2-1c-0.4,0-0.8,0.1-1.1,0.3 c-0.3,0.2-0.4,0.4-0.4,0.7c0,0.3,0.1,0.6,0.4,0.8s0.7,0.4,1.4,0.6l0.9,0.3c1.8,0.7,2.7,1.8,2.7,3.4c0,1-0.4,1.8-1.1,2.5 C2868.7,22.2,2867.7,22.5,2866.5,22.5z"></path> </g> <g class="st2"> <path class="st1" d="M2892.1,23.2l6.2-13.1h2l-6.2,13.1H2892.1z"></path> <path class="st1" d="M2898.2,23.2l6.2-13.1h2l-6.2,13.1H2898.2z"></path> </g> <g> <path class="st1" d="M2927.1,22.3V10.9h4.2c0.9,0,1.8,0.3,2.4,1s1,1.4,1,2.3c0,0.8-0.3,1.5-0.9,2c1.1,0.6,1.7,1.5,1.7,2.7 c0,0.9-0.3,1.7-1,2.4s-1.5,1-2.5,1H2927.1z M2929.5,15.6h1.6c0.4,0,0.7-0.1,1-0.4c0.2-0.2,0.4-0.5,0.4-0.9c0-0.4-0.1-0.7-0.4-0.9 c-0.3-0.3-0.6-0.4-1-0.4h-1.6V15.6z M2929.5,20.2h2.3c0.4,0,0.8-0.1,1-0.4c0.3-0.2,0.4-0.6,0.4-0.9s-0.1-0.7-0.4-0.9 c-0.3-0.2-0.6-0.4-1-0.4h-2.3V20.2z"></path> <path class="st1" d="M2937.4,22.3V10.9h2.3v9.2h4.9v2.2H2937.4z"></path> <path class="st1" d="M2945.5,22.3l4.9-11.4h2.1l4.9,11.4h-2.4l-1.1-2.6h-4.8l-1.1,2.6H2945.5z M2951.4,14l-1.6,3.7h3.1L2951.4,14z"></path> <path class="st1" d="M2963.4,22.5c-1.6,0-3-0.6-4.2-1.7c-1.1-1.1-1.7-2.5-1.7-4.2s0.6-3,1.7-4.2c1.1-1.1,2.5-1.7,4.2-1.7 c1.1,0,2.2,0.3,3.1,0.8c0.9,0.5,1.7,1.3,2.1,2.2l-2,1.1c-0.7-1.3-1.8-1.9-3.2-1.9c-1,0-1.8,0.4-2.5,1.1c-0.7,0.7-1,1.6-1,2.6 c0,1,0.3,1.9,1,2.6c0.7,0.7,1.5,1.1,2.5,1.1c1.4,0,2.5-0.6,3.2-1.9l2,1.1c-0.5,0.9-1.2,1.7-2.1,2.2 C2965.6,22.2,2964.5,22.5,2963.4,22.5z"></path> <path class="st1" d="M2977.6,22.3l-4.9-5.2v5.2h-2.3V10.9h2.3v4.8l4.1-4.8h2.9l-4.7,5.5l5.6,5.9H2977.6z"></path> <path class="st1" d="M2985.4,22.3V10.9h6.9v2.2h-4.6v2.4h3.6v2.2h-3.6v4.6H2985.4z"></path> <path class="st1" d="M2994,22.3V10.9h4.4c1,0,1.9,0.3,2.5,1c0.6,0.6,1,1.4,1,2.4c0,1.5-0.8,2.5-2.3,3l4.1,5h-2.8l-3.9-4.8h-0.6v4.8 H2994z M2996.3,15.5h1.8c0.4,0,0.8-0.1,1.1-0.3c0.3-0.2,0.4-0.5,0.4-0.9s-0.1-0.7-0.4-0.9c-0.3-0.2-0.6-0.3-1.1-0.3h-1.8V15.5z"></path> <path class="st1" d="M3004.7,22.3V10.9h2.3v11.4H3004.7z"></path> <path class="st1" d="M3009.7,22.3V10.9h3.7c1.6,0,3,0.5,4.1,1.6s1.7,2.4,1.7,4c0,1.6-0.6,2.9-1.7,4c-1.1,1.1-2.5,1.6-4.1,1.6 H3009.7z M3012,20.2h1.4c1,0,1.9-0.3,2.5-1s1-1.5,1-2.5c0-1-0.3-1.8-1-2.5s-1.5-1-2.5-1h-1.4V20.2z"></path> <path class="st1" d="M3019.4,22.3l4.9-11.4h2.1l4.9,11.4h-2.4l-1.1-2.6h-4.8l-1.1,2.6H3019.4z M3025.3,14l-1.6,3.7h3.1L3025.3,14z"></path> <path class="st1" d="M3034.3,22.3v-4.8l-4.2-6.6h2.7l2.7,4.3l2.7-4.3h2.7l-4.2,6.6v4.8H3034.3z"></path> <path class="st1" d="M3049.5,22.5c-0.9,0-1.7-0.2-2.4-0.5c-0.7-0.4-1.3-0.9-1.7-1.5l1.8-1.5c0.3,0.4,0.6,0.7,1.1,1s0.9,0.4,1.4,0.4 c0.5,0,0.8-0.1,1.1-0.3c0.3-0.2,0.4-0.5,0.4-0.8c0-0.3-0.1-0.6-0.4-0.8c-0.3-0.2-0.7-0.4-1.2-0.6l-1-0.3c-1.9-0.7-2.8-1.7-2.8-3.2 c0-1,0.4-1.9,1.1-2.5s1.6-0.9,2.8-0.9c1.4,0,2.6,0.5,3.6,1.6l-1.6,1.6c-0.5-0.7-1.2-1-2-1c-0.4,0-0.8,0.1-1.1,0.3 c-0.3,0.2-0.4,0.4-0.4,0.7c0,0.3,0.1,0.6,0.4,0.8s0.7,0.4,1.4,0.6l0.9,0.3c1.8,0.7,2.7,1.8,2.7,3.4c0,1-0.4,1.8-1.1,2.5 C3051.7,22.2,3050.7,22.5,3049.5,22.5z"></path> <path class="st1" d="M3054.1,22.3l4.9-11.4h2.1l4.9,11.4h-2.4l-1.1-2.6h-4.8l-1.1,2.6H3054.1z M3060,14l-1.6,3.7h3.1L3060,14z"></path> <path class="st1" d="M3067.3,22.3V10.9h2.3v9.2h4.9v2.2H3067.3z"></path> <path class="st1" d="M3076,22.3V10.9h7.1v2.2h-4.8v2.3h3.8v2.2h-3.8v2.4h4.8v2.2H3076z"></path> <path class="st1" d="M3088.5,22.5c-0.9,0-1.7-0.2-2.4-0.5c-0.7-0.4-1.3-0.9-1.7-1.5l1.8-1.5c0.3,0.4,0.6,0.7,1.1,1s0.9,0.4,1.4,0.4 c0.5,0,0.8-0.1,1.1-0.3c0.3-0.2,0.4-0.5,0.4-0.8c0-0.3-0.1-0.6-0.4-0.8c-0.3-0.2-0.7-0.4-1.2-0.6l-1-0.3c-1.9-0.7-2.8-1.7-2.8-3.2 c0-1,0.4-1.9,1.1-2.5s1.6-0.9,2.8-0.9c1.4,0,2.6,0.5,3.6,1.6l-1.6,1.6c-0.5-0.7-1.2-1-2-1c-0.4,0-0.8,0.1-1.1,0.3 c-0.3,0.2-0.4,0.4-0.4,0.7c0,0.3,0.1,0.6,0.4,0.8s0.7,0.4,1.4,0.6l0.9,0.3c1.8,0.7,2.7,1.8,2.7,3.4c0,1-0.4,1.8-1.1,2.5 C3090.7,22.2,3089.7,22.5,3088.5,22.5z"></path> </g> <g class="st2"> <path class="st1" d="M3114.1,23.2l6.2-13.1h2l-6.2,13.1H3114.1z"></path> <path class="st1" d="M3120.2,23.2l6.2-13.1h2l-6.2,13.1H3120.2z"></path> </g> <g> <path class="st1" d="M3149.5,22.3V10.9h4.2c0.9,0,1.7,0.3,2.4,1c0.7,0.6,1,1.4,1,2.3c0,0.8-0.3,1.5-0.9,2c1.1,0.6,1.7,1.5,1.7,2.7 c0,0.9-0.3,1.7-1,2.4c-0.7,0.6-1.5,1-2.5,1H3149.5z M3151.8,15.6h1.6c0.4,0,0.7-0.1,1-0.4c0.2-0.2,0.4-0.5,0.4-0.9 c0-0.4-0.1-0.7-0.4-0.9c-0.3-0.3-0.6-0.4-1-0.4h-1.6V15.6z M3151.8,20.2h2.3c0.4,0,0.8-0.1,1-0.4c0.3-0.2,0.4-0.6,0.4-0.9 s-0.1-0.7-0.4-0.9c-0.3-0.2-0.6-0.4-1-0.4h-2.3V20.2z"></path> <path class="st1" d="M3159.7,22.3V10.9h2.3v9.2h4.9v2.2H3159.7z"></path> <path class="st1" d="M3167.8,22.3l4.9-11.4h2.1l4.9,11.4h-2.4l-1.1-2.6h-4.8l-1.1,2.6H3167.8z M3173.8,14l-1.6,3.7h3.1L3173.8,14z"></path> <path class="st1" d="M3185.7,22.5c-1.6,0-3-0.6-4.2-1.7c-1.1-1.1-1.7-2.5-1.7-4.2s0.6-3,1.7-4.2c1.1-1.1,2.5-1.7,4.2-1.7 c1.1,0,2.2,0.3,3.1,0.8c0.9,0.5,1.7,1.3,2.1,2.2l-2,1.1c-0.7-1.3-1.8-1.9-3.2-1.9c-1,0-1.8,0.4-2.5,1.1c-0.7,0.7-1,1.6-1,2.6 c0,1,0.3,1.9,1,2.6c0.7,0.7,1.5,1.1,2.5,1.1c1.4,0,2.5-0.6,3.2-1.9l2,1.1c-0.5,0.9-1.2,1.7-2.1,2.2 C3187.9,22.2,3186.9,22.5,3185.7,22.5z"></path> <path class="st1" d="M3199.9,22.3l-4.9-5.2v5.2h-2.3V10.9h2.3v4.8l4.1-4.8h2.9l-4.7,5.5l5.6,5.9H3199.9z"></path> <path class="st1" d="M3207.7,22.3V10.9h6.9v2.2h-4.6v2.4h3.6v2.2h-3.6v4.6H3207.7z"></path> <path class="st1" d="M3216.3,22.3V10.9h4.4c1,0,1.9,0.3,2.5,1c0.6,0.6,1,1.4,1,2.4c0,1.5-0.8,2.5-2.3,3l4.1,5h-2.8l-3.9-4.8h-0.6 v4.8H3216.3z M3218.6,15.5h1.8c0.4,0,0.8-0.1,1.1-0.3c0.3-0.2,0.4-0.5,0.4-0.9s-0.1-0.7-0.4-0.9c-0.3-0.2-0.6-0.3-1.1-0.3h-1.8 V15.5z"></path> <path class="st1" d="M3227.1,22.3V10.9h2.3v11.4H3227.1z"></path> <path class="st1" d="M3232,22.3V10.9h3.7c1.6,0,3,0.5,4.1,1.6c1.1,1.1,1.7,2.4,1.7,4c0,1.6-0.6,2.9-1.7,4c-1.1,1.1-2.5,1.6-4.1,1.6 H3232z M3234.3,20.2h1.4c1,0,1.9-0.3,2.5-1s1-1.5,1-2.5c0-1-0.3-1.8-1-2.5s-1.5-1-2.5-1h-1.4V20.2z"></path> <path class="st1" d="M3241.8,22.3l4.9-11.4h2.1l4.9,11.4h-2.4l-1.1-2.6h-4.8l-1.1,2.6H3241.8z M3247.7,14l-1.6,3.7h3.1L3247.7,14z"></path> <path class="st1" d="M3256.7,22.3v-4.8l-4.2-6.6h2.7l2.7,4.3l2.7-4.3h2.7l-4.2,6.6v4.8H3256.7z"></path> <path class="st1" d="M3271.9,22.5c-0.9,0-1.7-0.2-2.4-0.5c-0.7-0.4-1.3-0.9-1.7-1.5l1.8-1.5c0.3,0.4,0.6,0.7,1.1,1s0.9,0.4,1.4,0.4 c0.5,0,0.8-0.1,1.1-0.3c0.3-0.2,0.4-0.5,0.4-0.8c0-0.3-0.1-0.6-0.4-0.8s-0.7-0.4-1.2-0.6l-1-0.3c-1.9-0.7-2.8-1.7-2.8-3.2 c0-1,0.4-1.9,1.1-2.5c0.7-0.6,1.6-0.9,2.8-0.9c1.4,0,2.6,0.5,3.6,1.6l-1.6,1.6c-0.5-0.7-1.2-1-2-1c-0.4,0-0.8,0.1-1.1,0.3 c-0.3,0.2-0.4,0.4-0.4,0.7c0,0.3,0.1,0.6,0.4,0.8c0.3,0.2,0.7,0.4,1.4,0.6l0.9,0.3c1.8,0.7,2.7,1.8,2.7,3.4c0,1-0.4,1.8-1.1,2.5 S3273,22.5,3271.9,22.5z"></path> <path class="st1" d="M3276.4,22.3l4.9-11.4h2.1l4.9,11.4h-2.4l-1.1-2.6h-4.8l-1.1,2.6H3276.4z M3282.3,14l-1.6,3.7h3.1L3282.3,14z"></path> <path class="st1" d="M3289.6,22.3V10.9h2.3v9.2h4.9v2.2H3289.6z"></path> <path class="st1" d="M3298.3,22.3V10.9h7.1v2.2h-4.8v2.3h3.8v2.2h-3.8v2.4h4.8v2.2H3298.3z"></path> <path class="st1" d="M3310.9,22.5c-0.9,0-1.7-0.2-2.4-0.5c-0.7-0.4-1.3-0.9-1.7-1.5l1.8-1.5c0.3,0.4,0.6,0.7,1.1,1s0.9,0.4,1.4,0.4 c0.5,0,0.8-0.1,1.1-0.3c0.3-0.2,0.4-0.5,0.4-0.8c0-0.3-0.1-0.6-0.4-0.8s-0.7-0.4-1.2-0.6l-1-0.3c-1.9-0.7-2.8-1.7-2.8-3.2 c0-1,0.4-1.9,1.1-2.5s1.6-0.9,2.8-0.9c1.4,0,2.6,0.5,3.6,1.6l-1.6,1.6c-0.5-0.7-1.2-1-2-1c-0.4,0-0.8,0.1-1.1,0.3 c-0.3,0.2-0.4,0.4-0.4,0.7c0,0.3,0.1,0.6,0.4,0.8s0.7,0.4,1.4,0.6l0.9,0.3c1.8,0.7,2.7,1.8,2.7,3.4c0,1-0.4,1.8-1.1,2.5 S3312,22.5,3310.9,22.5z"></path> </g> <g class="st2"> <path class="st1" d="M3336.5,23.2l6.2-13.1h2l-6.2,13.1H3336.5z"></path> <path class="st1" d="M3342.5,23.2l6.2-13.1h2l-6.2,13.1H3342.5z"></path> </g> </svg> 