<?xml version="1.0" encoding="UTF-8"?> <!-- Generator: Adobe Illustrator 22.1.0, SVG Export Plug-In . SVG Version: 6.00 Build 0) --> <svg xmlns="http://www.w3.org/2000/svg" xmlns:xlink="http://www.w3.org/1999/xlink" id="Слой_1" x="0px" y="0px" viewBox="0 0 16 12" style="enable-background:new 0 0 16 12;" xml:space="preserve"> <style type="text/css"> .st0{fill:#3E3E3E;} </style> <path class="st0" d="M15.2,2.3c-0.2-0.6-0.7-1.1-1.3-1.3C12.7,0.6,8,0.6,8,0.6s-4.7,0-5.9,0.3C1.5,1.1,1,1.6,0.8,2.3 C0.5,3.4,0.5,5.9,0.5,5.9s0,2.4,0.3,3.6c0.2,0.6,0.7,1.1,1.3,1.3C3.3,11.1,8,11.1,8,11.1s4.7,0,5.9-0.3c0.6-0.2,1.1-0.7,1.3-1.3 c0.3-1.2,0.3-3.6,0.3-3.6S15.5,3.4,15.2,2.3z M6.5,8.1V3.6l3.9,2.2L6.5,8.1z"></path> </svg> 