<?xml version="1.0" encoding="UTF-8"?> <svg xmlns="http://www.w3.org/2000/svg" width="626" height="874" viewBox="0 0 626 874" fill="none"> <path d="M512.414 681.961L393.211 751.365L300.711 724.865L443.297 642.062L512.414 681.961Z" fill="#F5F5F5"></path> <path d="M625.211 747.12L544.211 794.364L451.711 767.864L556.095 707.221L625.211 747.12Z" fill="#FFCF52"></path> <path d="M287.484 552.087L92.7109 665.364L0.210938 638.922L218.304 512.125L287.484 552.087Z" fill="#222321"></path> <path opacity="0.14" d="M252.992 405.864L287.488 468.132V552.091L218.309 512.125V428.233L252.992 405.864Z" fill="#F9F9F9"></path> <path d="M399.882 617.054L243.211 708.364L150.211 681.864L330.765 577.155L399.882 617.054Z" fill="#303030"></path> <path d="M365.453 454.882L399.886 517.15V617.054L330.77 577.155V477.251L365.453 454.882Z" fill="#414141"></path> <path d="M365.453 372.364L399.886 434.632V534.536L330.77 494.637V394.733L365.453 372.364Z" fill="#414141"></path> <path d="M365.453 333.364L399.886 395.632V495.536L330.77 455.637V355.733L365.453 333.364Z" fill="#414141"></path> <path d="M512.414 681.961L393.211 751.365L300.711 724.865L443.297 642.062L512.414 681.961Z" fill="#F0F0F0"></path> <path d="M477.992 386.898L512.425 449.165V681.962L443.309 642.063V409.267L477.992 386.898Z" fill="#F9F9F9"></path> <path d="M477.992 224.364L512.425 286.632V519.428L443.309 479.529V246.733L477.992 224.364Z" fill="#F9F9F9"></path> <path opacity="0.06" d="M625.211 747.12L544.211 794.364L451.711 767.864L556.095 707.221L625.211 747.12Z" fill="#090B08"></path> <path d="M590.707 333.364L625.202 395.631V747.119L556.086 707.22V355.732L590.707 333.364Z" fill="#FFCF52"></path> <path d="M590.707 0.364258L625.202 62.6318V414.12L556.086 374.221V22.7328L590.707 0.364258Z" fill="#FFCF52"></path> </svg> 