<?xml version="1.0" encoding="UTF-8"?> <svg xmlns="http://www.w3.org/2000/svg" width="10" height="10" viewBox="0 0 10 10" fill="none"> <path fill-rule="evenodd" clip-rule="evenodd" d="M8.23325 1.48545L0.992188 8.66385L1.2957 8.97852L8.53676 1.80012L8.23325 1.48545ZM8.98808 8.89937L9.01949 1.01782L8.88067 1.01727V0.958454H1.06824V1.39558L8.58086 1.39558L8.55096 8.89762L8.98808 8.89937Z" fill="#F9F9F9"></path> <path d="M0.992188 8.66385L0.560336 9.08039L0.149466 8.65441L0.569771 8.23774L0.992188 8.66385ZM8.23325 1.48545L7.81083 1.05934L8.24281 0.631098L8.6651 1.06891L8.23325 1.48545ZM1.2957 8.97852L1.71811 9.40462L1.28613 9.83286L0.863846 9.39505L1.2957 8.97852ZM8.53676 1.80012L8.96861 1.38358L9.37948 1.80955L8.95917 2.22622L8.53676 1.80012ZM9.01949 1.01782L9.02188 0.417825L9.62187 0.420216L9.61948 1.02021L9.01949 1.01782ZM8.98808 8.89937L9.58807 8.90176L9.58568 9.50175L8.98569 9.49936L8.98808 8.89937ZM8.88067 1.01727L8.87828 1.61726L8.28067 1.61488V1.01727H8.88067ZM8.88067 0.958454V0.358454H9.48067V0.958454H8.88067ZM1.06824 0.958454H0.468237V0.358454H1.06824V0.958454ZM1.06824 1.39558L1.06824 1.99558H0.468237V1.39558H1.06824ZM8.58086 1.39558V0.795577H9.18325L9.18085 1.39797L8.58086 1.39558ZM8.55096 8.89762L8.54857 9.49762L7.94857 9.49523L7.95096 8.89523L8.55096 8.89762ZM0.569771 8.23774L7.81083 1.05934L8.65566 1.91155L1.4146 9.08995L0.569771 8.23774ZM0.863846 9.39505L0.560336 9.08039L1.42404 8.24731L1.72755 8.56198L0.863846 9.39505ZM8.95917 2.22622L1.71811 9.40462L0.873282 8.55241L8.11434 1.37401L8.95917 2.22622ZM8.6651 1.06891L8.96861 1.38358L8.1049 2.21665L7.80139 1.90198L8.6651 1.06891ZM9.61948 1.02021L9.58807 8.90176L8.38808 8.89698L8.41949 1.01543L9.61948 1.02021ZM8.88307 0.417272L9.02188 0.417825L9.0171 1.61782L8.87828 1.61726L8.88307 0.417272ZM8.28067 1.01727V0.958454H9.48067V1.01727H8.28067ZM8.88067 1.55845H1.06824V0.358454H8.88067V1.55845ZM1.66824 0.958454V1.39558H0.468237V0.958454H1.66824ZM1.06824 0.795577H8.58086V1.99558L1.06824 1.99558L1.06824 0.795577ZM7.95096 8.89523L7.98086 1.39319L9.18085 1.39797L9.15095 8.90002L7.95096 8.89523ZM8.98569 9.49936L8.54857 9.49762L8.55335 8.29763L8.99047 8.29937L8.98569 9.49936Z" fill="#F9F9F9"></path> </svg> 