<?xml version="1.0" encoding="UTF-8"?> <svg xmlns="http://www.w3.org/2000/svg" width="146" height="249" viewBox="0 0 146 249" fill="none"> <path d="M32.5123 15.987L32.5207 15.9819L32.5291 15.9768C44.955 8.39486 58.9877 4.57422 74.7346 4.57422C93.9404 4.57422 109.775 10.9683 122.522 23.7157L122.534 23.7274L122.546 23.7389C135.35 36.333 141.664 51.1891 141.664 68.5062C141.664 77.642 139.594 86.2291 135.444 94.32C131.104 102.784 126.907 108.779 122.929 112.559C118.623 116.649 113.304 121.104 106.949 125.925L106.934 125.937L106.919 125.948C95.1975 135.016 87.2472 142.26 83.7274 147.539L83.6836 147.605L83.6425 147.672C81.0396 151.932 79.5406 156.305 79.403 160.743H64.0826V158.083C64.0826 152.746 66.2208 146.752 71.0696 140.026C75.9137 133.307 83.314 126.07 93.4348 118.339C104.66 110.253 113.019 102.651 118.253 95.5137C123.727 88.0488 126.354 78.9648 126.354 68.5062C126.354 54.7162 121.099 43.003 110.758 33.6083C100.697 24.0421 88.6215 19.2182 74.7346 19.2182C61.8169 19.2182 50.3779 22.0459 40.5638 27.8506C31.7954 33.0368 24.504 40.4929 18.6481 50.0782L6.18062 42.9846C12.6024 31.6934 21.3671 22.7125 32.5123 15.987ZM83.7216 237H55.0916V208.37H83.7216V237Z" fill="#FFCF52" stroke="#161001" stroke-width="8"></path> <circle cx="70.8203" cy="215" r="28.5" fill="#150F01" stroke="#150F01" stroke-width="11"></circle> <circle cx="70.8203" cy="215" r="11.5" fill="#FFCF52" stroke="#150F01" stroke-width="11"></circle> </svg> 